<mxfile host="app.diagrams.net" modified="2023-12-21T18:30:02.996Z" agent="Mozilla/5.0 (Macintosh; Intel Mac OS X 10.15; rv:120.0) Gecko/20100101 Firefox/120.0" etag="1INqaxOtOQGzayuEZRas" version="22.1.11" type="device">
  <diagram id="C5RBs43oDa-KdzZeNtuy" name="Page-1">
    <mxGraphModel dx="1949" dy="694" grid="1" gridSize="10" guides="1" tooltips="1" connect="1" arrows="1" fold="1" page="1" pageScale="1" pageWidth="827" pageHeight="1169" math="0" shadow="0">
      <root>
        <mxCell id="WIyWlLk6GJQsqaUBKTNV-0" />
        <mxCell id="WIyWlLk6GJQsqaUBKTNV-1" parent="WIyWlLk6GJQsqaUBKTNV-0" />
        <mxCell id="nyHb6rSoEs663hCMp0pN-72" value="&lt;div&gt;Target Device&lt;/div&gt;&lt;div&gt;&lt;br&gt;&lt;/div&gt;&lt;div&gt;&lt;br&gt;&lt;/div&gt;&lt;div&gt;&lt;br&gt;&lt;/div&gt;&lt;div&gt;&lt;br&gt;&lt;/div&gt;&lt;div&gt;&lt;br&gt;&lt;/div&gt;&lt;div&gt;&lt;br&gt;&lt;/div&gt;&lt;div&gt;&lt;br&gt;&lt;/div&gt;&lt;div&gt;&lt;br&gt;&lt;/div&gt;&lt;div&gt;&lt;br&gt;&lt;/div&gt;&lt;div&gt;&lt;br&gt;&lt;/div&gt;&lt;div&gt;&lt;br&gt;&lt;/div&gt;&lt;div&gt;&lt;br&gt;&lt;/div&gt;&lt;div&gt;&lt;br&gt;&lt;/div&gt;&lt;div&gt;&lt;br&gt;&lt;/div&gt;&lt;div&gt;&lt;br&gt;&lt;/div&gt;&lt;div&gt;&lt;br&gt;&lt;/div&gt;&lt;div&gt;&lt;br&gt;&lt;/div&gt;&lt;div&gt;&lt;br&gt;&lt;/div&gt;&lt;div&gt;&lt;br&gt;&lt;/div&gt;&lt;div&gt;&lt;br&gt;&lt;/div&gt;&lt;div&gt;&lt;br&gt;&lt;/div&gt;&lt;div&gt;&lt;br&gt;&lt;/div&gt;" style="rounded=0;whiteSpace=wrap;html=1;" vertex="1" parent="WIyWlLk6GJQsqaUBKTNV-1">
          <mxGeometry x="800.92" y="110" width="160" height="340" as="geometry" />
        </mxCell>
        <mxCell id="nyHb6rSoEs663hCMp0pN-71" value="&lt;div&gt;Sensors&#39; Controller&lt;br&gt;&lt;/div&gt;&lt;div&gt;&lt;br&gt;&lt;/div&gt;&lt;div&gt;&lt;br&gt;&lt;/div&gt;&lt;div&gt;&lt;br&gt;&lt;/div&gt;&lt;div&gt;&lt;br&gt;&lt;/div&gt;&lt;div&gt;&lt;br&gt;&lt;/div&gt;&lt;div&gt;&lt;br&gt;&lt;/div&gt;&lt;div&gt;&lt;br&gt;&lt;/div&gt;&lt;div&gt;&lt;br&gt;&lt;/div&gt;" style="rounded=0;whiteSpace=wrap;html=1;" vertex="1" parent="WIyWlLk6GJQsqaUBKTNV-1">
          <mxGeometry x="810.92" y="297" width="140" height="140.66" as="geometry" />
        </mxCell>
        <mxCell id="nyHb6rSoEs663hCMp0pN-90" value="" style="edgeStyle=orthogonalEdgeStyle;rounded=0;orthogonalLoop=1;jettySize=auto;html=1;" edge="1" parent="WIyWlLk6GJQsqaUBKTNV-1" source="nyHb6rSoEs663hCMp0pN-69" target="nyHb6rSoEs663hCMp0pN-41">
          <mxGeometry relative="1" as="geometry" />
        </mxCell>
        <mxCell id="nyHb6rSoEs663hCMp0pN-69" value="&lt;div&gt;ECU&lt;br&gt;&lt;/div&gt;&lt;div&gt;&lt;br&gt;&lt;/div&gt;&lt;div&gt;&lt;br&gt;&lt;/div&gt;&lt;div&gt;&lt;br&gt;&lt;/div&gt;&lt;div&gt;&lt;br&gt;&lt;/div&gt;&lt;div&gt;&lt;br&gt;&lt;/div&gt;&lt;div&gt;&lt;br&gt;&lt;/div&gt;&lt;div&gt;&lt;br&gt;&lt;/div&gt;&lt;div&gt;&lt;br&gt;&lt;/div&gt;" style="rounded=0;whiteSpace=wrap;html=1;" vertex="1" parent="WIyWlLk6GJQsqaUBKTNV-1">
          <mxGeometry x="809.92" y="142.34" width="140" height="140.66" as="geometry" />
        </mxCell>
        <mxCell id="nyHb6rSoEs663hCMp0pN-45" value="&lt;div&gt;Industial PC&lt;/div&gt;&lt;div&gt;&lt;br&gt;&lt;/div&gt;&lt;div&gt;&lt;br&gt;&lt;/div&gt;&lt;div&gt;&lt;br&gt;&lt;/div&gt;&lt;div&gt;&lt;br&gt;&lt;/div&gt;&lt;div&gt;&lt;br&gt;&lt;/div&gt;&lt;div&gt;&lt;br&gt;&lt;/div&gt;" style="rounded=0;whiteSpace=wrap;html=1;" vertex="1" parent="WIyWlLk6GJQsqaUBKTNV-1">
          <mxGeometry x="633" y="245" width="110" height="110" as="geometry" />
        </mxCell>
        <mxCell id="nyHb6rSoEs663hCMp0pN-42" value="&lt;div&gt;GitHub&lt;/div&gt;&lt;div&gt;&lt;br&gt;&lt;/div&gt;&lt;div&gt;&lt;br&gt;&lt;/div&gt;&lt;div&gt;&lt;br&gt;&lt;/div&gt;&lt;div&gt;&lt;br&gt;&lt;/div&gt;&lt;div&gt;&lt;br&gt;&lt;/div&gt;&lt;div&gt;&lt;br&gt;&lt;/div&gt;&lt;div&gt;&lt;br&gt;&lt;/div&gt;&lt;div&gt;&lt;br&gt;&lt;/div&gt;&lt;div&gt;&lt;br&gt;&lt;/div&gt;&lt;div&gt;&lt;br&gt;&lt;/div&gt;&lt;div&gt;&lt;br&gt;&lt;/div&gt;&lt;div&gt;&lt;br&gt;&lt;/div&gt;&lt;div&gt;&lt;br&gt;&lt;/div&gt;&lt;div&gt;&lt;br&gt;&lt;/div&gt;&lt;div&gt;&lt;br&gt;&lt;/div&gt;&lt;div&gt;&lt;br&gt;&lt;/div&gt;&lt;div&gt;&lt;br&gt;&lt;/div&gt;&lt;div&gt;&lt;br&gt;&lt;/div&gt;&lt;div&gt;&lt;br&gt;&lt;/div&gt;&lt;div&gt;&lt;br&gt;&lt;/div&gt;&lt;div&gt;&lt;br&gt;&lt;/div&gt;&lt;div&gt;&lt;br&gt;&lt;/div&gt;&lt;div&gt;&lt;br&gt;&lt;/div&gt;&lt;div&gt;&lt;br&gt;&lt;/div&gt;&lt;div&gt;&lt;br&gt;&lt;/div&gt;&lt;div&gt;&lt;br&gt;&lt;/div&gt;&lt;div&gt;&lt;br&gt;&lt;/div&gt;&lt;div&gt;&lt;br&gt;&lt;/div&gt;&lt;div&gt;&lt;br&gt;&lt;/div&gt;&lt;div&gt;&lt;br&gt;&lt;/div&gt;&lt;div&gt;&lt;br&gt;&lt;/div&gt;&lt;div&gt;&lt;br&gt;&lt;/div&gt;&lt;div&gt;&lt;br&gt;&lt;/div&gt;&lt;div&gt;&lt;br&gt;&lt;/div&gt;&lt;div&gt;&lt;br&gt;&lt;/div&gt;&lt;div&gt;&lt;br&gt;&lt;/div&gt;&lt;div&gt;&lt;br&gt;&lt;/div&gt;" style="rounded=0;whiteSpace=wrap;html=1;" vertex="1" parent="WIyWlLk6GJQsqaUBKTNV-1">
          <mxGeometry x="120" y="20" width="500" height="560" as="geometry" />
        </mxCell>
        <mxCell id="nyHb6rSoEs663hCMp0pN-6" value="DES_3_Head-Unit" style="rounded=1;whiteSpace=wrap;html=1;arcSize=9;" vertex="1" parent="WIyWlLk6GJQsqaUBKTNV-1">
          <mxGeometry x="198" y="69.67" width="130" height="40" as="geometry" />
        </mxCell>
        <mxCell id="nyHb6rSoEs663hCMp0pN-11" value="" style="sketch=0;outlineConnect=0;fontColor=#232F3E;gradientColor=none;fillColor=#7AA116;strokeColor=none;dashed=0;verticalLabelPosition=bottom;verticalAlign=top;align=center;html=1;fontSize=12;fontStyle=0;aspect=fixed;pointerEvents=1;shape=mxgraph.aws4.car;" vertex="1" parent="WIyWlLk6GJQsqaUBKTNV-1">
          <mxGeometry x="840.92" y="174" width="78" height="78" as="geometry" />
        </mxCell>
        <mxCell id="nyHb6rSoEs663hCMp0pN-76" style="edgeStyle=orthogonalEdgeStyle;rounded=0;orthogonalLoop=1;jettySize=auto;html=1;startArrow=none;startFill=0;exitX=0.5;exitY=1;exitDx=0;exitDy=0;dashed=1;" edge="1" parent="WIyWlLk6GJQsqaUBKTNV-1" source="nyHb6rSoEs663hCMp0pN-31" target="nyHb6rSoEs663hCMp0pN-41">
          <mxGeometry relative="1" as="geometry">
            <mxPoint x="550" y="110" as="sourcePoint" />
            <Array as="points">
              <mxPoint x="530" y="110" />
              <mxPoint x="530" y="304" />
            </Array>
          </mxGeometry>
        </mxCell>
        <mxCell id="nyHb6rSoEs663hCMp0pN-77" value="&lt;div&gt;pull&amp;nbsp;&lt;/div&gt;&lt;div&gt;to bake image&lt;br&gt;&lt;/div&gt;" style="edgeLabel;html=1;align=center;verticalAlign=middle;resizable=0;points=[];" vertex="1" connectable="0" parent="nyHb6rSoEs663hCMp0pN-76">
          <mxGeometry x="-0.0842" y="-1" relative="1" as="geometry">
            <mxPoint x="11" y="-40" as="offset" />
          </mxGeometry>
        </mxCell>
        <mxCell id="nyHb6rSoEs663hCMp0pN-95" value="" style="edgeStyle=orthogonalEdgeStyle;rounded=0;orthogonalLoop=1;jettySize=auto;html=1;entryX=1;entryY=0.5;entryDx=0;entryDy=0;dashed=1;fillColor=#ffe6cc;strokeColor=#d79b00;dashPattern=12 12;" edge="1" parent="WIyWlLk6GJQsqaUBKTNV-1" source="nyHb6rSoEs663hCMp0pN-99" target="nyHb6rSoEs663hCMp0pN-6">
          <mxGeometry relative="1" as="geometry" />
        </mxCell>
        <mxCell id="nyHb6rSoEs663hCMp0pN-96" value="submodule" style="edgeLabel;html=1;align=center;verticalAlign=middle;resizable=0;points=[];" vertex="1" connectable="0" parent="nyHb6rSoEs663hCMp0pN-95">
          <mxGeometry x="0.3111" y="1" relative="1" as="geometry">
            <mxPoint x="18" y="-2" as="offset" />
          </mxGeometry>
        </mxCell>
        <mxCell id="nyHb6rSoEs663hCMp0pN-31" value="DES_3_yocto" style="rounded=1;whiteSpace=wrap;html=1;" vertex="1" parent="WIyWlLk6GJQsqaUBKTNV-1">
          <mxGeometry x="451" y="69.67" width="130" height="40" as="geometry" />
        </mxCell>
        <mxCell id="nyHb6rSoEs663hCMp0pN-86" style="edgeStyle=orthogonalEdgeStyle;rounded=0;orthogonalLoop=1;jettySize=auto;html=1;" edge="1" parent="WIyWlLk6GJQsqaUBKTNV-1" source="nyHb6rSoEs663hCMp0pN-41" target="nyHb6rSoEs663hCMp0pN-70">
          <mxGeometry relative="1" as="geometry">
            <Array as="points">
              <mxPoint x="770" y="304" />
              <mxPoint x="770" y="374" />
            </Array>
          </mxGeometry>
        </mxCell>
        <mxCell id="nyHb6rSoEs663hCMp0pN-87" value="&lt;div&gt;flash &lt;br&gt;&lt;/div&gt;&lt;div&gt;controller&lt;br&gt;&lt;/div&gt;" style="edgeLabel;html=1;align=center;verticalAlign=middle;resizable=0;points=[];" vertex="1" connectable="0" parent="nyHb6rSoEs663hCMp0pN-86">
          <mxGeometry x="0.0051" y="-3" relative="1" as="geometry">
            <mxPoint x="3" y="-8" as="offset" />
          </mxGeometry>
        </mxCell>
        <mxCell id="nyHb6rSoEs663hCMp0pN-41" value="" style="sketch=0;outlineConnect=0;fontColor=#232F3E;gradientColor=none;fillColor=#7AA116;strokeColor=none;dashed=0;verticalLabelPosition=bottom;verticalAlign=top;align=center;html=1;fontSize=12;fontStyle=0;aspect=fixed;pointerEvents=1;shape=mxgraph.aws4.iot_thing_industrial_pc;" vertex="1" parent="WIyWlLk6GJQsqaUBKTNV-1">
          <mxGeometry x="652" y="265" width="78" height="78" as="geometry" />
        </mxCell>
        <mxCell id="nyHb6rSoEs663hCMp0pN-44" value="" style="shape=image;html=1;verticalAlign=top;verticalLabelPosition=bottom;labelBackgroundColor=#ffffff;imageAspect=0;aspect=fixed;image=https://cdn4.iconfinder.com/data/icons/social-media-and-logos-11/32/Logo_Github-128.png" vertex="1" parent="WIyWlLk6GJQsqaUBKTNV-1">
          <mxGeometry x="316" y="20.67" width="30" height="30" as="geometry" />
        </mxCell>
        <mxCell id="nyHb6rSoEs663hCMp0pN-48" style="edgeStyle=orthogonalEdgeStyle;rounded=0;orthogonalLoop=1;jettySize=auto;html=1;entryX=0;entryY=0.5;entryDx=0;entryDy=0;" edge="1" parent="WIyWlLk6GJQsqaUBKTNV-1" source="nyHb6rSoEs663hCMp0pN-47" target="nyHb6rSoEs663hCMp0pN-6">
          <mxGeometry relative="1" as="geometry" />
        </mxCell>
        <mxCell id="nyHb6rSoEs663hCMp0pN-49" value="&lt;div&gt;clients&#39;&amp;nbsp;&lt;/div&gt;&lt;div&gt;POV&lt;br&gt;&lt;/div&gt;" style="edgeLabel;html=1;align=center;verticalAlign=middle;resizable=0;points=[];" vertex="1" connectable="0" parent="nyHb6rSoEs663hCMp0pN-48">
          <mxGeometry x="-0.6871" y="-1" relative="1" as="geometry">
            <mxPoint x="10" y="-1" as="offset" />
          </mxGeometry>
        </mxCell>
        <mxCell id="nyHb6rSoEs663hCMp0pN-47" value="" style="shape=image;verticalLabelPosition=bottom;labelBackgroundColor=default;verticalAlign=top;aspect=fixed;imageAspect=0;image=data:image/jpeg,/9j/4AAQSkZJRgABAQAAAQABAAD/2wBDAAUDBAQEAwUEBAQFBQUGBwwIBwcHBw8LCwkMEQ8SEhEPERETFhwXExQaFRERGCEYGh0dHx8fExciJCIeJBweHx7/2wBDAQUFBQcGBw4ICA4eFBEUHh4eHh4eHh4eHh4eHh4eHh4eHh4eHh4eHh4eHh4eHh4eHh4eHh4eHh4eHh4eHh4eHh7/wgARCAMKA8ADASIAAhEBAxEB/8QAHAABAAIDAQEBAAAAAAAAAAAAAAECAwQFBgcI/8QAGAEBAQEBAQAAAAAAAAAAAAAAAAECAwT/2gAMAwEAAhADEAAAAfsoAAAAAAAAAAAAAAAAAAAAAAAAAAAAAAAAAAAAAAAAAAAAAAAAAAAAAAAAAAAAAAAAAAAAAAAAAAAAAAAAAAAAAAAAAAAAAAAAAAAAAAAAAAAAAAAAAAAAAAAAAAAAAD5r1T2r5viPprw3MPpj5J1T6M+Q/TzfNI3XO3yzi9klz8J1mvrHRatTcc2h1VMBtMVTO52I63K6fgT6A1PHnu2jsGZo7wPInrnyfIfVHh/PH1l8G+wnYfAPtJ1nynzZ96cP5Afe2tBtPlPnT7w4+yb7SsbbTxHRx83pnmfU/JvoJ2OV0/BnvjinaRzzotHeOft+S9Ibzl7BueV9V8wPpl9PAdNqYjoNMbjj9gNXAdEAAAAAAAAAAAAADU28R8n+u/F/tBpfMvoHzc+xfFftXxw73rvI+uNTzuz1zqfP/XefNngfWPjR7zzf0j5Ocr13K+gngOZ6nhnq/Ne24x4j33lvq5805O9jPe+T9z4c8r7rz3048N57r6p7Pxf0DzJ5/wCibvyw2+71PRmQHyL0HF9IcDs+e9UYN/0nws0/sWD50fTfBfXvkJ9e+RfXfkR9dIOH4bjfajneIy7x5X1PD9SeZ4XuvOHpOR9F+YHO9Px/pR4fhdXTOj0vJ/QTx/J+seTN/wBd8d+xHzD2Pm/THzb3XL4h9a+Y/TvmB9A83v8AiTS39btHQ8H9h+bm36LLyTzem+mnfsAAAAAAAAAAAAAAHl9L2o87q+sHiPR9QeHp7seV9UDwPvh5yvpR4X1u6PnPqu4PHc76EPL09WPn3p+0PB9D1g8e9gPnHsOuPD6X0UcrxP0sYfknutc9f4n2wA4Gx1x5D1GcPE+2DxPtg+b/AEgcjxv0kYNHqj51t+6HD8970eR3vQDyvH+hDh8D3Y8RX3I1PA/SRx/Ne9HJ8v74eS9aHjN70o8F1PUh4X3Q8/576CPnvQ9kOJ5L6QPOYPVDw+164AAAAAAAAAAAAAAAAAAAAAAAAAAAAAAAAAAAAAAAAAAAAAAAAAAAAAAAAAAAAAAAAAAAAAAAAAAAAAAAAAAAAAAAAAAAAAAAAAAAAAAAAAAAAAAAAAAAAAAAAAAAAAAAAAAAAAAAAAAAAAAAAAAAAAAAAAAAAAAAAAAAAAAAAAAAAAAAAAAAAAAAAAAAAAAAAAAAAAAAAAAAAAAAAAAAAAAAAAAAAAAAAAAAAAAAAAAAAAAAAAAAAAAAAAAAAAAAAAAAAAAAAAAAAAAAAAAAAAAAAAAAAAAAAAAAAAAAAAAAAAAAAAAAAAAAAAAAHz3oHsnkZPWvO809o0tY6zw+A9+AAAc06TwHvwweQPbAAAAAAAAAAAAAAAAAAAAAAAAAAAAAAAAAAAAAAAAAAAAAAAAA+Q/VPlf14+VdjgeoMMef9Ie38/6Ac/5dg+vFfH8D6qeb4vn947un9A+Um19K8V2D5b6fW656rh7njz2vn/JehPc+XxedPoOLfzHTAAAAAAAAAAAAAAAAAAAAAAAAAAAAAAAAAAAAAAAAAAAAAB8R+ya+4fO+r7EfKvad7MT4L3uufMNr3cnhuv7PnHzjB9e0zH8m+xap47qelk+QdP6NsHM+a/Xdc+We/wDQaJwZ9dzD596P2GA2AAAAAAAAAAAAAAAAAAAAAAAAAAAAAAAAAAAAAAAAAAAAAAAAAAAAAAAAAAAAAAAAAAAAAAAAAAAAAAAAAAAAAAAAAAAAAAAAAAAAAAAAMObRPE5PmO5jXv8AJ8z2pffPmsn0m3zeY+jT85L9GfOpPos/Oh9Ij59J7988R9Kr4WK9tPzqx9Hp4fCvvHz2D6G+eSfQnzxH0OPnNq+iz88S/Q3gpPf4fn8Hv8fz7m2fU3yrJX098xqfU6/MNg+jx8100+qX+TUs+sPlnQX6Lv8AzjQzr6ri+X5E+qR8xzL9Hj5xKfTJ8BaPevn2rJ9Jp8t19Y+p4vk+tp9bx/IqV9cfI5Prj5LNfWHyaD60+SyfWZ+Sj6y+RwfXHyKD67PyKx9afJKy/XXyKI+vR8hWfXp+Qq+uz8hk+uvkY+tvkVo+tvkhf0H675D9euQoAAAAABob+gfAN3S6HPrp7mnvy6EXiSLROUxabRKpRGa0zWAiOjWZ050zXLcpZbrATCETUxXrrXWfHiyMzXV0062Lm3s3o0r1s21qrv25+WXbpiwruYtLHZmpTYua2z68zr5IvYya5vZyYLRvxhS9bTza2bqYJ19c4RTecmOt1rW9ahBJviGWtSWqLCwqtCSpM1KsVatUk1yQRMqLCsxeWGa01gnYiMd8ll+k/WflP1bpzC5AAAAAAaG/onwDf0+jy66G9g2jSx70YmnO6XStuSaU7hNJu2XBfPkmuY3q2WyXyLyK71IM1rOc3C6U7g5+HfwJysPUttysPTqnInr3OY3sRp131aLeg59ejjTVvlyLj3cmJrZ06YicVpTDmJmmPYhYzVpbnilstuMJaxGY0tPo6+saZj1m8UVMQym1bLM1irqItCKmBJiYSq2TLFa9msc5bLinLaXBOxK69s1RZZqK5IzK2WPpP1X5X9U68g1kAAAAABob+gfnvq8frc+upu83ekYJ1Tbtp2Ny+iN+efJv35sy9GOfjXq25Nk7eXiWzd+OdFdTNzc1me3IiOxbjDsOO07M8cncnhjuuFY71uFJ6BwR33Ale/fz9svQW8/Fehnz029+OCjv14i57N+FeXtYObNvQtzh0Z5qOjGiN2mojcprxV8Nr2arZqmrXck0a9CTmOmXkutKcaO1NcOO6ODX0SPO379o89X0kzXmY9Ql8rHrIryz1UR5SnsYPHPYq8hX2SPFz7OK6f1DxXtevINZAAAAAAaO9on576vP6HPrp7WHPJTU6GnLS17ZuGcsmFmGGcww4tsa1s4wRsZMtW2VU58ezbzabfPTHTU2bM9NOum9Xm0TqTzaL1Lce1nYnn2zrfnT3Zq1tnZnTQdimNc+3elrgV7ONORHQx3OjGzFazZmXUrlwa52YsFxuOdWzpufms274LS2W5yb8celnacStd1wZO7PEtL2o485nXckvXtx8s10nMmuk5yXozzZk6LnTXQaBehGjNb0aUxvNIm60rLtzrI2GtJ9H+kfM/pnbiG8gAAAAANHe0T8/dPldPl1raKps6W1p51aaWltNbLEwLTWUm1Ly1mEl9vU3NNStseWTZ09qzW4fW5VubFtaO1dTJjZralrNrUtiJ2dXoLu7GTZ5eim5Tbz0y57ZMdZrbFNbGtXFSl7M4Zz4TBe2VdemxhNfS6Opeenq7lN8uTj6GjvlGxoZt8+nk523Llw31zTw7ODWMVcmG4ljLs5cWXHSJTNQkTet1hMrVZFbRJCZImbSxabFV5iFrzWO83Kstl18k5svefSvnH0f0eYOnMAAAAABob+ifnzp87e49cmPNgrY097SzSYlWiSEwszWxOTHsyazJjlvv8AP6OmlTJGUbOHZrjafS5Gpl5+bDqXwWw2MkzZXUz44v1dTqTp0N/V6fH02vmtnpSZrNVw2pNVvE0raiWhCRItaZcaYtXbxXGjTYxa54dLp6u8ectk1+nm2dnV2zfya2xnetq9bSs09Lo6WsYIlc7F65MdItNs6rNixaLUlMsEywmxWbzLFrWWlrTERdkte03jvaxFrWXBki8e8+j/ADr6L6vIHTkAAAAAA0d7RPz7v6G/x67Gtuaht6W9oy1EtprYglUg29TbTFhz4JZ6XM6lmph2dSXavp7yaHPtztMutGHeLXxzCiba3zZYzdXT62O+1uU2eXe96ZZ0ri2INa2zkl0KdOrXLjo400Zzkws0Gvj2a1rU2qM6OHfxXOph3tfWPOaPX5nfyYpitxsZ9Pams2tl1kjFkxWRMrnYy482OiZmahdN1syyY5umoWkhaZpN4hkjLLjZE1WZlJvFisrrMxbNx2WPd/RPnv0L1+IOnMAAAAABo72ifn/c1Nnh139Tc1I2tLe0lxhZtW5WUqJI2dbYkjBs60OnzOnq4tHo8Stre1dqObxe7wExUOmVKVZnJj2a2M0Wz06HX5Hd4+jcpsY8dL5cWV0yZcWbnbZaru81vbNLwmni26JqWy3TCyTq4cO7r5aevt4bjU1Ohp658biek8738uGt7b448uPI1n19jVGO8XOOMtJnazYtjPSJux2LStMlcpE2jFLJazZC02trkrkiq0NRNhNpnNrZMk3mTDaZPd/Qfn/0D1+IOvMAAAAABo73OPguzOzx659XexE6nRpHMjpzlzZ6MxzXTLzJ6Vq5Wzu5E0NXtYzk7+bLGvxfS69vI2806vJ4Xt8DHjMXubbz4OPoFpfAbPtci+Nv6/K1w+xvbHPvpX3smLzsnQsutOabdVtVXWnZumm3Jb1MXSlnjz1qyc2ejFvOwdaqcXH6Cqee1/UVrxXnPqel04fLZ+lV1y+cZvoWTOvn2T32xHyzF9Mw6x84fR4t8Hs+0yY14yPaTN+Ln2RfG39dC+Un1c4eTn1cL5S3qpk8tPp5a8pk9LMecj00S+bv6GV4LvLeDPdiOLk65OI7UTXo/oHi/aevxh05gAAAAAOZ0+YfA8+nscunY1susu7r5NWROrJtTqI2p1JrbnTG60pNtoQdHLy7y9TX06xuZOVnrqYMPOrruOOzbiWrtW4g7t+DnjrzzL510bcutnWceLO5Pn6R6WfMK9Q8vLPqbeUs36qPM2l9NPmKnqY8rW59XbyFa9i8ck9e8jeb9U8qZ9RHkp09XPkrHqXmrr6KODXM7zzFa9RXzV5fRvPSvoHn4X0UeelO/HCR3befk77hI7c8OV7ccOTuTw2XccKx23Emu1HFlexPHHYryan0r3fzj6P34BvIAAAAADmdPmHwXPTNw672HNGrOHPTN04yRlWbTljXFJyRpSciMLLElJvk1dTmd/jWc7Y1djpno8bvc2XntrVqCLjYpMS7voeR6bl6b2za/Ltra1sfTnTG1rMmtjpYpipcbE62VMtls7z7et1Z01df0GhLwsGXD04opXWM1sF029nQzzefXz2zfPpr145LVut8+vtSTgrWMFYi42t7m9LHa8p59YSzYtF7bpiVMWtiYtiJmbcUlXlOatFpUxZmFjSy0Y1qx7z6B8++g+3xB15AAAAAAOZ0+YfB8mHLx69C1MjTHauWrCcpVtUwBMWpiZJi1JJtW91tcjs8BnmbGDd6Tp4cvKx26+jh3504GH0fJ1w1N3S6usdT0PJ7Xn9lOf0tGa5mts8zpxx6uSOnPHq9jn3np5Kbms4o2dbPTPtaW1np0PQcb0XL0b/L73Ox0+e6W5penwzTarrnrZce1c1tlxZ3vbmh189PMNvX1jDGziTL0udvJzdTZ1rmgZzdTldbHa108+yE51FotZkmJmxJEoyyEFEqyE5q0Im1cggW16WFVU959C+efQ/Z4Q68wAAAAAHM6fMPg2Sl+Hbez620uKYvGgITBZETEqAy49nXkpaIt3+d0Odc8Xa5vW3ve0Onrc+2vr9XUlzVwbNnD6mlu7497o83pcPVm19i81xtXuzcc3Nn5lzj1bzqaldrFrOrg3siau1u72Ouv3tDoc/Rv62xia8byvWc3p5ubkrj1yzUZUrLIuLo5suOnneX6Dz3TlkzYtrU5eO2HXCUTqUiUzfq8vp8+2xatuXdMTLEoTKG0xMTEwXiYlhFi8xOZMzDS9LFomsWyYshWt8Z7z6H88+h+3wh15AAAAAAOZ0+YfBsuHNw7bO5o9BdfNgzxzlqwItmaspmISyC7mvnwpTDeTY0ejobnmuvytnT0TPk5erHTLz87pHL2t8zLpb5ek6XH6vDvvbejuztk1c9c3l871GPTxtfYTefjtr0164efp0mtPPkyTeHLklc2bFmXham/oOWTS3di583i9XePKdLtrdaNnWzOR5n0/m+vG2St989bS3+dvitEakQSX6fL6XPpuWrbj3Si6mspM0E0lEszAvE1IvW1TMWi0CrRbNmtqxa9LF8d6R7r6H88+h+7wh15AAAAAAOZ0+YfBs+LLw7X6PN6Umtsa+wuhTJilmaykJhZQstAu3jyUwwVjY028a1vl9Xe1NY9hs6e7z9nP5nX4ueutfM3y6/nPX6GeePra+xOmxtaeTPXdtr7DWa2S2N4rXqsVjHVsVdJnPGrssbN8lnSmWhNLQ63P1jU3OfsXO+x2m7Y5xJj1drAzzOR2dTfn0MGzr9eGnhtG8VmLRji9YdHndKa28mO/LumZlrJLllZaTMZqLlqtBFpki9blLWkiYvFYyRLTKslK5sZ7j6J89+hezxh15AAAAAAOZ0+YfCr72bl153SptYc/PmyHMxdesnLdWWuTHXHIdWbOU6qNOnShOFHaaae1mzZ15PX9XXU0unh3M9cPN6+RvlY+/WzVybVs50bb8mpfZs3j28UxstcZcRWLFtwnNxdeUxZ1lzTgqbDXmW2vljU08HShnVy5akTAqRZixZ62amHoRcc2+7jNWc8GKMkGLPjrJtzpVzvoRz4Oi5kJ2I49TrORVrsTxJO7PBL344MHecEegt5oemeZHpnmKx6mPMD08eYmPp3rfnn0P0cA3kAAAAABzOnzD4Zl59+fXe6HE6uDJqZonBj00355sbdNyqHXcaJezPElrs05943Z5tpOll5WS62o15zNzJo5NS9dftZ1z23qNSxZrJZ7ya07dp00m7VNWNjARGLHrOxXUz1lU1jacvW1O1PDuz2nMrN9SObCdJy+oVYtGOnPM2K3WHJOl67GjJicZvz9iOQrrRyZXquXQ6uTjbWb1Zx5OfUvDVa3iFpyZuCb2txzec3Fa+QwTkkxssRjnKKMk1iZUtLXtJjptUl9p9E+e/QvZ4w68wAAAAAHM6fMPgVufHLp0er5fuRfJqZWsXI6vImqzfJdYbbeR008m7TLVuozt7Grnc9a2vlrby4uhz3ps9Ixth15ec9J5pde5w8PocfVsYcGnHfyauZjYYE65cDTuY18WPWc2OmSzNsaF7NvXmk1r6W3r9OWtFsTOauFZkpI2Ozyujnpn0NnWxrnzOvvhv7XN2nXocLp+dc7qx15XjGMk4pMlFEvt6O1jXXy4cvD0ZKxXO7EVkvjvnUTWSwIvS8VRK2mpbzS0lpglkSs3pcms1Pc/Q/nf0T2eIOvIAAAAABy+pyz805LbnL0avd0eq1ibWPMx87saGd4cl5siLqY8hjn03rxq7V8yaWTNOlenob8mHDl1kzTTIeSxZMXSZprizrtbnN7fPvsZtbNz3euKl1Ohl1LiyG80TpXDPz89nTa2xjrXHsY7dTBt4GdeueusY8sZly5cVZrJpMDF8mTcTRybGs1s+d73BvKImOmBJF4lZpeqRs62xm9nNgz8PTMTGdK5IGbDlxqoqVqjJjFkWmgi0TEmRFrFq2VMSlseTGvuvonzv6J7PEHXkAAAAAA5fU5Z+eNzS6HD0Tv6e7WbBs6yZtDpaebgm9aIrpeiMy+XDcyZMeaTWi7Ur0+d0kwau7p51fLTNp47R6XM3zy3xbU1v+h4XqOPo1Jvhx0jFfFq4MOXHrFrzNael08LHEvu4bMuXW329eN2JvRr0MFurGXKxqX3crXMw9jHc83ob98zVyTjlx6e1ivKvD6/J6cyY1mJiQkWrehOTFlzevs62z5/TaLVmomLRGXHkmqkyymEiUkWrKzMTLKBe1bJFokWpJkpei+5+ifO/ons8IdeQAAAAADl9Tln526XN6PLrl3NLcmtrV29VNnT3dTDDjy00iSwKmVyc+DPma1MlLu3T5fSJ0uhz85yZNbPq+a4ne4OsW6nJ6lnR9R5/0PH0YtDqcvl1xY2PopCdTNakE5MN1yYtq+NaeW+Eyxr4962sWvSXatqNTPGvbLLfDs2Z7WrnGDVy6msQxTeWno58PTmreKiLBFoL1tBW8WXr7Wpt+b0WraudzARlxZc6rYlvCYpaLETELcKmLJNomExNRaLFoRHuPonzv6J7fCHXkAAAAAA5fU5Z+dejz+nz6X2tbPm9DT3dE3NTb1YwVtSphCi0kWWpsYM8YcWbCs9Dnb6bHM63KJ2dTb08/wCf9J5688fS0t/U7HoeB3uHqnS3tTl15uHd1+3PWnIqaZUYb580U242+e9TV7FF4eHt4944WPvrz85b0M3Xn797MvE3etnzrj4e/jTzGr6yuuXj8PtKs+Ar9BvrPz2Po0J88fRbL85fRpX54+hxJ88v9BlfIbnpJ5dfOvRzHm3oqnCv14rlupEc627StWdisuOMsVSUFrYqpnnWVttKh0XNHScxH0X3Xzr6L6eAbyAAAAAA5fU5h+duru7nLfKzdG2d11upWNfX6Y49e1MnFnsrOPPYg5NurJyNjetHPp04rm7GerWTT39azGVI1ejRnUz5Iutnf5N469OXE11ac2Lnp25EHatwyd63nMa+ov5OK9bXydY9bXydT1keRqnr6eUhfVPKQeqjytZPU08xU9PTzCvSV87S30VPPwvfrw4jtxxVnXx8uK6teZGXTjmwnSrp5s3KxxLkYy3rEtQmWKptGObTLSMpcTLJhtlGJmlcDYRrzsF1p2LL7L6R88+h+nzh0wAAAAAA5nT5h8Wy8LY576zm2mu7q21l3cePFlZqRc7bUmtquBLnrRZeq0a9pmKrRLetc5g2IzJrc7o+d06FuVnuetu6nocdeZi72tz7cmnQpc82m9q9MY5qsspeNjLTZlpknPOlG1Mui6ENc9uRLrRs69ziqpZTVyaV5z1+b6zPPyvJ6/ndzbrrV2241IN2NOU2o1Is3o1S7Easp1uhxupx77MY3PtdjLknFK5lIky2wWi7DK5mKFzMVmcsY0ZpxTLmY5ltEC8xWvc/RPnX0X2eIOvIAAAAABzOnyz88dDi9jOti2NjfWxWxLmxxGWCKLMs4RmjErNGKyWy4cmbNLY5Vq5KRua6Vz4M1uv5H2HjWK7Ojm3j2XrNCvL021drR5ejDhtW4jBeu86mPPr65zfDZNvY5+WN+2rGddDLym3Yry7TfVpzsOd7eDBXWM2PBjstrxlvP1e3GThfK+X9Z5Pvyito6K2rKxapEEXmqomt5Nvrcfr8e+eIc+0qmotFsrRNS01mIF1ZDK0TNzEzUtaLSpSRITEye3+i/Ovovs8IdeYAAAAADl9Tln5q7HF6su7NJ5dOnWZtpbHky0yEi1b6SiC0RCXvivm5K5MEWvjyau7qb2hIvqV1dvx3qvLTGp2OP9S6Z9D5/wBB5/h6L6O7p8/Rp4s+trEIiymDYw7xrphzkjOMs4IzL2wts7BGdZo1673sYsdazRitZfbwbU1668uF835H2Xj+3LHEx1lZgsTBETEWtSxWYG12eN2ePbMieXaK2XRDDJEwJiYgnWpizKExpMxMTfHkiQTEC80yJ7b6L87+iezwh15gAAAAAOX1OWfmjrcfrNbd625a38mHYa182LYy59clJmCKIx2ZmvW3avz7y9XS2OZnWdoxrfp+N1uPi6OTHtOu1531PA1w0/tuh1OnHX4Xc5vPppa814+jT1tvVucdL49ppeLNbFlxuUqLiazCKTVJVgrW0a3Wy1kZYtnWTa1dqb9pTFl554fjPb+J3nDEx1zRIRKFLRovTJFJiYz9nidjl02yeXorMTUEZuWBUi1kytASRbMWrDLiuXmlqRaMpvS1z7n6J87+iezxB15gAAAAAOX1OWn5h7XE67XRvitx3u7nP3bcO1zd3LRw4NW63MetF1s1w5JUTabrltnk3NHq6dak7Y6HK6/LzjnbGnvau5udvtznrZIjrmuvv62defxdvgY6U1s+Hn0xY7x0lZkzr4dzCzqRlpvGNbGTVVLVRIibWxebLXJTI1kyUySek6HL6Uzy/D+88NlpzNuuMdcsrhZoMVdkutk2MpoxvTmavY1+njonZvy76LeSaE9EabetHPjp2OXHVqcyepK8qeraOQ7DTjZOpauXPSiOfO9KaE71K9b9D8D771eUOmAAAAAAHL6nLPzFvYM+fRtWw5Ma3OlzeynI6Ot0MuDj6tZdC2/BzabWrLjmZsz7OnsydTU3tazCytTa5fovSnjfYbHlNZ7HW4u5WfBiwR0Y0JL6GfBHAp1tLn10o6EVoTvTJo134rmY+vEzxo7UJxbdmbOPPXk5OXfmtC25U175oqmfGOl0PNq9L57Cym2GEzzrQu7bQqdCecjpW5UWdSeUl6k8hHWjlS11I5kHRjnym9Gik3WkNuNVGy1pXNXGTJOMt4Qs1mSq05tIyTXufpHzn6N6eIbyAAAAAA5nT5kfAdi2Tn3rkqk2N/l9Ew7XP2sK0xYdTcrqRWWlJizEM+XTJ1ac2kvS6PnL7ez1ORqxv6+hCdmNBLmx6MpvRpq2p05jZrgmM0YkZa1F1IMkVgsiSYQqaktECZiFmaSlozzbgbeXM589vCcq233a8rHt+HLw2hg1Oo5VdTruNNdivIrHXy8LoTfQmrl1tEVtyKRJlY5mrzjlbxERdVm2mhMjHLV2OVyTisZYiIvNCe7+h/Ovovs8YdeYAAAAADmdPmH59yYcvDU2rLWXrcftRz97T25dDW3MSYJ2BrzmtWu6PojxuT6Gw+e4PoWnL4jP7S2r4y3oc9nmY9Tj04ext+hjxse9xZeJt6+tnk59PFvmZ9BSzgYO/hXzV97nzdqxjavWKJeMdDYrgppsRhhMzXGeuKi5Ojz+zeeS1Z6TZ2dTcjf0NyDzPc5G1p6rqcXp5tPF+v18vkWt9r8LM+OmJ1JpaqT0Ob0M9OtNbef1SVEWiLWraIslVbVmpmJEwyWrNi1bEky3peglNnufovzr6L7PGHXkAAAAAA5nT5h8FmXLcWhLfr8brrrbODLGCmTSXbtq+orgew9Tv6mpjtr6uLbow0dOeRHbwVaYsexqSVtrbW3J9L5zrnbxWri4cOfWsx4c2O3DGXEUw7NU0OD6jnS+em2PHSaoiKllK3rSsVS9VC9MfRZ29ymXpIvE2X3+dvRuGM1Of2eRdd7seU9HFbRGU9Skpp/N/qG7l8Cx/YfnScTd1Nm3sXxZPP6pTUVmJbzFpVqWLVmFTEwkkheotWxM0ut4msTExZ7r6L88+h+zxh15AAAAAAOZ0+Yfn+2LLz7ZLVnOo6nJ6qxeLs6+T2XsrfP+iius1xxr2ZYw0Xa52LVjR09vFls7kblavN6nNjTz4I3LMmivq4xsmKxMePLjtpjz0MUZKxi19vBZxeH7DkZ1xInHnV4hbFZiscXwsMcZTZ69dneK2W0lKIz69o6c63XtxcP0vGl1uxoZdO5y9vPlbPz8Kb+/xNs6+Tj9DOvM/P8A7nTM+NZPW+X8/opW1bYraFtels1KQmSEsoslUXqi0SQmFvCUiUr7r6H88+h+3xB05AAAAAAMGceLn2aXxk+yHjMvrh5Hb9GTi27A4zsq4kdwefr6Iefr6IeaelS+fnvk89j9KPLvUK8vX1SPOW9CPOvRDzsejHnI9IXzcelHmY9OTzFPVDx9PZl8W9oPFT7QeHv7UeHy+zJ5GfWq8k9aPJx60eSetHlMnpx5WfUjyz1I8zf0Y83Pox5ynph5rP3hw3cRxNX0qXx0eyL417IeOexHjp9gPHT7AePewHj3sB5CPYDx8+vHkI9gPIV9iPIPXjjdkuQoAD//xAA4EAABAwIDBgUEAgEFAQADAQAAAQIDBBEFEhMGEBQgITEVFiIyMzA1QEEHI0IkNDY3YCVQgJCg/9oACAEBAAEFAv8A+BdTiNDTVP58r2xx0OPYdWV25mI0T6/mr62loYYZGTRb8R2gw2gmjcj2f/h6zEqvFMY8tUKmyXFx4jUV9XjOMSbNUmTZvFatmJbf0MbKfDdncOmw/FWYns4uH1UdbRlVV0tK2krqOrHORrY8WwySVVREhraOaabE8Phmmnhhio66jrCoqaenRKqmWmpK+jq1qcSoKZ7HtkZxNPqyyRxJFNFKyKuo5Z6jEsPp5Wua5uI0+A1mNVlRHS02y2KtqMKfWUjFjlikY2spHu3bT4YyvodgKemlptvKCJKPY+mpW4ZtDhVM7GdqMMgwuup6Cmiw2SgpYNr5sPp5cO2Uwynlq9o8Mgo8ap8LpoMOTC4POFLCynp6x2Sk2e2ep6jCtp6OhpajBqNaDDautpKRKWrpqptRU09OnFU3DUddR1hU4lQU0jHNe1P+xkxTDlncqNbh9LgS4+PxbDWSoqOSrrqOkKWspapDaaPCKqKgjgioqvEKGkdTVVNUtP5G+0UP+yq8QoqRaWpp6plTXUdMtTVU1NHS1VPVRuxTDmzlTUQUzKSuo6v86tesdH/G7UWIrXadH/G7f9KbQ/07c/yF9hwX7RtMxJMB/j5yrgOI1KUdDsnRsxGLwfR2pxiV2LbU4jgeHVGH7DVr6zDosOii20xvZ/C24Pslh1NiWE4hSw4PthtdRU1ThGyWF09dg2P0MOG7RVOzmEuo/wCO5Xuw2sp4afb/AB6lp6rDP49RFwKbD4afbXENncK8N/j6Z8mCbSUtPTbU7TUtPUYRsZhWH1eCbeYVDHS4I2kdhGzNBR1GNbQYPWYhiW7Zv/5u1e0MSYlin8fzObBR/wCr2t22pOKwHZmsSqwHFoZHUWIV7WYBs5S8Hgu2X/JBP+yN2OYjHheH7F4dJLJjFXwGGbI0EVZSbUwtwTEtrKWkrMD2UwumrsGxugiw7aes2cwlaH+O5nyYRXUrKzb3GdmsNlw/YardXYNhcENNt/ttXvjHU2zfBfx9USPo9lZaCSvp8Gjp8eP5ApafwvDs6YBsW/DJm4fg7KLGT+RvtFK3Ph7cAwSnjwxKeh23/kKipuCw/BKKeko8Pij2v2owLDYsE2VqVl2cwGoosUr9q3UNHWtW7fzJWJJFsU9cOxk4umrJ9g38HXjG+L7c/wAhfYcF+0ba1rYMI2aoVw/B9poXT4DsBMyTACL/AEn8iSvSOP8AjyJyuZ/2Pjf2fYD/AI/td/yjaT7DsL/xzbT7/L8X8cf7bFum3+KfbP47+yVf/Y1d/sv44+07W/8AJ8e+y7Af8fxKmbWUOz2Iuotm9l6Tg8Ec9jF3bWsWix7BP9Ti/wBs272SjXwuVjZIsMnlw/C6/DWu2bw2d1fgJtl/yMT/ALIHKjUkV+1O0SZIosSqlxrZHYWVsmzv8iuzwY6xYtldh/8Aje1v/J6j/b/xv/sE/wCxsRmZT0P8d0748Mpf+xtvGJHi7cGwdzaWko6FlThWD7QwYS+vwXaI/kD/AI/hcjYsCrMDwnG4dnZsQw7Hz+RvtFZVOotndl8LhxSl4eCl2/8A5C+xYX9si/7H2r/47skzU2S2GpKCob4JhP5+M4JSYm5uHY4jcFwmLDDGMDp6+d2FYvNHhlBS4dTY7gdTiskOD4tFFh+B01NVbnbPOp62ioKtk+OYNT4okmDYlUxUlNDSUvl2u8Txejqa2k2fweowoxPZ6qrsRxDDq2rwzZ/CqjCo8V2fqsQrn01a7DcCwGowqbHsFZib0wmsqGbO4RUYSyTZ2tfiWIU1TUUOz+B1GEvrtnaysrWUr34dQ7NVlIkEelDjGGRy7VmO4CmKYhux7DW4rQYPQtw7D9osETFlp4mwQFRs/FLj5hWz8dBipXbOVtZVQQVraDy5XeI07ZGQ4vSLX4fQ7P4hQwy4Ri8keC4c3DcNbgEtHU0OCoyuxygnxGl2fwufC4sS2fq63EJqWtfhmAYDUYTLiOBPmxWXBKutVYclIzZyubiGI4fBiFDSYPitJHQ0XDw02BVtAmHYLoVxj+DVOKrh2HTwUNNgmIUMeFYOyjqjHcDqsVfRUEzKGiwGuoB+zsrMU2gwafFm4XSVVJRps7XJiWNYfUYhR4BhdRhceIbPpJiEeGYhI7/wG0EGKTw7PYO7D1//AMvk21lFDJNtDBFRYTj1PiU2L49T4ZNhGLR4kuIbRU9DUUNQlVS4tXw4bRptHGqSbVUcUnPiKViwbG4nWYiwqHrHBsritZikf/ots/8AkNXC2opf4/mdGm3TkXBNh6ricBxn/V7RGO4cuJ0tdUw0NFszTTYzitbUw0dNFiuL1kWB41FiTsb2hqcNrqnGqyVuG7Ux1MNZtHiVDKyRssGyOIPpEbtNU0tZidRUw0Wy2MS4vDi2Kx0L6vGcVw5JcQpY8NhxPGquHAMT8UpajHKKHGP/ADm2f/ISb/5m3k3+r2r2V/8An7SYJ/qsc3Y9US4/jdJBFS038iyuyQMSOGt/038h/wAjf7SL4tn/AE7b7eInl3Zxb7Pfx37dvomPwDZx7pNnP44/2zaqs874vLjuIYdDhFTNsdhuP1WDswmSgmp34fROrv8Azm1lbSTY7TVEFTFt7AvBbK/6hm1S+G7RbM060+Cm2eLLh1BspJg+FUe1OO0rsJ2ywyarwfC9oMOmw/CoX4xtP/Ik8KspqumkosEraRu2W3s8LcE2VqIJsC2GrqSkXaSrTG1VaTCsN/j2qpo24skmCbVrjmEJFjuJy0+BOxbA6yh2BgexanHoYcd/85wFCQxRQskYyRkbGRsmhhmROiE8EE5wFCcBQ7n0FE96IiJLSUkr2QQMiSgoUJqannWCnggJqKjmdDDDA2aGKZrKKjje9rXtioaKJ4uH0CvRERFggWf/APUmeTSgi2phei7TwoJtRCou00SHmmE80wnmiE80QnmiE80QnmiE8zwnmeE8zQnmWI8yxHmaE8zQjdoYlHbRRIeZojzLEeYohdpIkPM0J5mhPM0J5miPM0R5miPM0Im00KnmaG/mWI8zQHmWI8xxi7TwoeaITzXAea4Bdq4EPNlOebIDzVAO2rhQTayBTzZTi7WwHmuE83QX83QDNrInDNo2Ki7SQHmeETaKJRdo40XzJCeZIc3mCI8wRHmCI8wRC7Qwi7Rwi7TwILtVToLtdToecac85055zpzzlTnnKA85QHnOA85wHnOnPOdOecoDzlAecqc85055zpzzpTnnOnPOkB50gPOlOec4DzpTnnSnPOlOedIDzpAedIDzpTnnSnPOlOedKc86U550gMAxyPF3/gYj9vpfjk7M9zuy9/otHb4Sbcg0k53KN6nRBHOUY1iCyIg6QbIhN1F79RBWoZREcgj+jorjlUW5dyKiuUhjzCLDGklSt2yIqdDVsMnzIrso1yK9qlxZLD5x046YWVRXqKu9PoX3X/F/j5P7vwMR+30nxv7M9y9l7/RYP3wk29hJzKMS451t2qI9bXQuo5zkGyutmVTNYRyGZC6brKZnIslnGUc0YuQkmVTUGuUzLdzlEeK7o16OY11lRyo10rx1Q4fJdMxf8C3L+vp2LCIWNgvm/AxH7fS+xezfd+nd+VeSMk3wkwu5naTmUe5qDpUQRNU1I2Es2YVTUcZ3GZRFcZlLlxHF1FzmZwquEzqNZKafTSQyNQRooiiCXu3dA7+mVjFHssrk6qgvIv5VixYtuRCxsJ834GI/b6VP6l7InqTs9OuXfbmjH74CYXcwk5VWwriZ+UiTo56ruVUEaqmUUW56kEdcUuZlNRTOoxHvI6ewum0fM1Bai5nvuYp+xjLiWQRyCuKdxI6y3bdzmoqxtHJZd1/wrFt1ixYsZTKWLFuXYX5fwMR/2FMv9X6XorOqOOh0OhZCzTKhlQyIZEGtQVqGmhpoRtsPaLGaY1o9hpmkhpGiPhW+gotHdy03TgzgxKJThnIOpZFOCecJIcPILTKJTvFpnHCuOGeMpXGVzUVsyq6FwsTzSUyKZHGRRWqojFQW5dToN7p0HJcVnRGXY+OxluL0XnuX+khYsIhbfYt9HYX5fwMR+306/wBaL6XO6wr0ld1zmcR5nM5nM5qGc1DUM5nGPHP6ZzOMd1VxqGoahqGczIZzMgitMzTMhdp0Loek9J6CzCzDLGZYy0ZaMyxGSI04TThNKE0YjRhFghFp4jh4jh4jhojhYRaSM4WM4aO3DMOFjOEjFo41Fw+I8PjuuHRnhzDw5h4aw8NYeGtPDGnhiHhqHhp4aLhp4YeGKeGuPDXHhzjw554fIcBIcDIcFIcFIcHIcJIcJIcLKcNKcPKcPILBIaEhoyGxDHNl/AxH7fB7E9sneAn7nX6FxVEUuI4V++Lu/sq9bly5cuXMymdTMpnUzmdTUU1VNVTVU1jVU1lNdTXU11OIU4g4g4g4g4k4g4k4k4k4k4kSpOJQ4k4g4g4k4hDiEOIQ4hDiEOIQ4hDiEOIacQhxCHEIcQhxDTXQ4hDXacQ04holQ04lpxLTiWnENOIYcQ012nENNdprsNdprsNdhqxmtGasZqsNm3Nc/wDAxH7fAn9bfbInWEmQsWMpYsWLFixYVojTKWEQsWGJ1c3oreq9EzIZi9jMhnFkNU1UNVDVQ1TVM5mEW+6xZb5FNNTTU0zKZS3JczIZkMyGZDMZi5fdczGdDOhnQzoZ0M6GYzoZ0M6GczmZDMZjMZi5cuXMxcuZi5cuZjMXMxdTMXUzKbHKur+BiP8AsKf4mdpO8JKhbksWLFixYsWLFriMLFhndey9532HOuMblR7nXQVxmEuKvXMIqiZhEepZxGwbENiGwjIbzJEiJkREyjmoOaK0VokZkMgrBUFHXLqZxrl3otld6iR1lzqZ1FepqKaimqpqGdRHqZzOZzOZzUM5nM6mdTOpnNQ1DOZ1M5nM5nM5mMxcuZi5sX8v4GIf7CH4ou0pCSfWaW6O7jO6jlsr1u+CO6zuu4kddf00jtdy+pe8aEbREsIxFI2IMYI0ROlkRzh3UWx1EaKiDmoNahkQsK0e0sPaKiiiDRLCoI1yEjLq5HIp+177moWLFt9vqWLFixYsWE3WLFjYz5fwMR/2EHxxEpCSH7+iu5Rp+ndxp+p1sR5VfIvRbNL3LI0vubdD9p3hTrGnTKNapGgzdcVw55cQTc7eoqjh4oo5CZLCOLiOI3GZyD1VS6oma5YXuIML8yc1+dORRC29DY75fwMR+3wfFES9ox/b9/SXc0b2k7je9ulT1ckPV7kaj/WIn9buggiD9zCFCPsjBrDKJuc4du7bsyly5fkVRR25UKhvoURSwx6jFNJHKsdle1FFTKO7iDeRPo25Lbrb7Fiwm6xYQ2P+X8DEft8HwxEvaPuvZe/0EG9n9xoztL3aillQ/VQxLojruHjV9NrqiFxRO8bSJCJBvZN1i4qljtvURDLutyKOTdYlb6ZU6jXiK1wyyFxU6LGl5LNRbKKIM+tYsJutvTfblQ2Q+T8DEft8HxRknZvf9L3+gndnaTuIR9pu6KqGbNum7uQd1FaI3coopGnWNCJpG3ogm6wpYymUymUynbkXeqDkFQsSJ0qE623XGqIqir0e991W+9Bn0bFuZOVE5U3obI/J+BiP+wg+GLu/s33L7V78i8id4yTcneLtN3E7pZUqlc1yyqLIZlUaOXc31Cp1aRoQtI03t3ZTIZDILGaQ5illLKZSwplMpZRWqK0sPQqE6qnVU3IN7dxeVnOm6wnMn1UNkvk/AxH7fB8UXd3tTv8A4u78i8sZJ33Q9p937Z2qW3RUF5F6jBqdEQiIUEaftBBBBE3ohlHIKgqdcplMiGUVorRUFQcg8qEHdxRBqiKOXcu5BhbmQsIWLfXTehsl8n4GI/b4Pij7r2/y/wAX9+dN0ZJuQgJ0M1nolxE6VA9/U6IOXchEnVRpH3pz9CCDbqWOpdS4jhXblFQ/Yq73Io4UUchMhInr3tQ/Som5S26Pdbcm9N1uVOdOVN6GyfyfgYj/ALCBF0Y29bdMvq/T2rfKpYyqZVMqmVTKplcZXESKSIZVMqkBKiksaqrMyDb2qUVR0b76bkFY9TTeabzI4iY4VrhrHEEa3Y226xYY1RNyqpmM5nMxmLjlURRVEURwrx7xVLij0HopUNXPZRLllEatmoo6D0uY5qqinVDqRoohblT6Kicibrb03KIbJ/J+Bia2w6BU0Wqggq9UXoqodDoek6HQ6HQ6HpG5T0i2FsMsOsWaKiIrRyIZUNNgkUZpRmlGaUZpRmkwSGMY1iCaYmmeg/rP6z0HpFRhlYZWGSM02Gmw02Gmw0WGiw0WGiw0Wmg04dhw7DQacO1ThWElAxy+HRnh7Dw9hwEY2gjvwbESSga5fDmHh0Z4fGJQsQ4JhwTDgWHAsOCacE04NolG04JpwTTgmnBIcEhwaHBocEhwbThEFpEOEQ4Q4VDhUOFQ4VDhUOGOGOGNnI9N/wCBi32uF39TX9WdpHepq+l7zVNU1TVNQ1TVNU1TWNc1zWGTDpjVFlI5BZDWNc1ziDiDXOIOJOJOJOJOJOKOKOLEqkOLOLOLOLOMQ404041DjUOOONONQ45DjTjjjjjjjjjjjjjjjTjTjDjDjTjjjTjDjDjTjDjDjDjDjDjDizizizjDizizjDjDizjDjBKs4s4w4w4w4w4w4wWsOMU4w4w4w2Ym1ZfwMW+1xJ/WidWdpU9TPbKhYylixYsWLbrCopYsJdDuLYV5E4e4V/XOZzOZzOZxFENM0jTMhlLFzOZzVNQ1DOZhOu+5mMxnNQ1DUMxmMw51jUNU1RH3LiCDuhqGqJIZi5cuXLl+W/0bFjKWLFjKWMvXZBLTfgYt9rhT+pEIyVOsftkQtvsWLFixYsKgiFhWitJHoiq9Snct39nqqLmUzKZ1M6iO6ZlIbqQMujYxWIg4cWFFQcnVU5Oo240QsPQcp1Ou6ylhrRCxOnpupddyZkEc4a5xqOHyPcrlUupGN5m/UsW5Lbrb0Q2U+X8DFvtcPxIREpH7ZPrIKnSVvVyWKdfUvZzbuexRboXFEXo1LlM0ib0QlcK7qrhXj5EFlFkUVy3zqZxrhHCDCJvTT6VDLI9euYV5mEcZhJFGvEUel2L3EVBezVufpZVRXTKZrrcjUavS/K3nT6yiGyfy/gYt9rh+EhJiPtJ9G4nI1etvTPZCVSnRRE9KZEcrbpLFcljVqje8SdKNtxqdF6EwvQc4fIX3Oc6+ZVG3Xe1w1SPqUzfTk6VjPTOtnrucXuNF6DVI1uNS7Xp68o9vRtrRpc0lJmo1d8Yz2pyoJzrzpzLu2T+X8DFvtcPxEBKR9pPpJyNTr+qn3Inri6u/UnuZI5o16SI5qKSRWd+4U6UXZBSZCRFJDI5xwz0GoiJI3qjesLSSxcsRELSnaf41DbpXpacYSN6qwjaSNEYpEhE30zN9Za5YYtjVuk3u3xjPbyoJzr9Vd2yXy/gYt9rh+IgJe0ZJ2+j+7b2qf4ysaSWQhSzW+2Rvq0/TfTVi52uRBU9cRSe3c9pI1TRuMha0e1jkfCl1hNJhpoOjQ0RsRHF1jaQp6WkxXwosiQNGxsQs0s0yIaVx0aWZHYZ2q22cNGMW0jvVflYR+3lTnTlT6H63bJfL+Bi32yL4kIe8naMk7L9JOzu9hOisK11kepD1jb7XJ6rel8dyG7FcSJ/ZF2pfa0QVDIZbDk6SXQzmoK9BXIXuNa4YxSNhlI+yKSdpk6yQ3HMe0zoI8zoahH1I2oorSsT0kfd45OZpF25U7pzryJyJz7JfL+Bi32uH4iL3P7M7v7L9JnZ/dVuj81qZ921vZLFCt0b2t1seklkYio5Htm7RKU3taowRCw51h+q4khlHRvQ03mhIoylG06IIwRoiWLCDCT2zd7lkcS0rXDqOQ4acbSzEVK4ZHlHIVXsUiHJ0kikaO5WkXblQQXmXkT6CblNkvl/Axb7XD8RH7l7N9y+1e/0WEm+JpWopaxTSZJLelrR3aRxN7qVSpb/WxSkX0MGjTuZUMgsSKaDDQYaLTTQVplLCIZULDT/GdOqjS3REuWRBETdccVXxvQb0TPkJJ3yC8rSLtyoJzJzpzJv2S+X8DFvtcPxEfu/X+f8Ai76TB/fdT9qmxIW60/qpkTpP0HqOT1RdHzx/0t6LSJ6GDV6opcuXP00sW3WHWFVBq9W7kL9JU6uQaNEQVNyjxy9ahfTI0cgqdFRB1uRRCLsnKndPqp9HZH5fwMW+1xfEM9ydl93+L+ReaIl3JltCT9pRVMM607e9Wg4a0t1TrE+nbnalkbuafpiCN6WGiqhcVw56EjxqXGN6tFQRBw4cgvRWOM5mLilx6XHJccnqmVcy3FLKWUspZSyiXIr2RFLKWUspZSzhqKWUspZSyllLKWURrjK4yuMrhGuMrjK4RrhWuMjjI8RjzK4yONk2qkv4GLfbIWro5VGouZvtc1b2Wz2Kppqaammppqaamm403Gm403ETFtIxTKplcU7VJGraWByqlI8o2OjHMW7o86OpHXbTLldSuGRuyvhcpoKNhcaKiQuEicIxbdSyllFY4WNwsLySB42kfdtOqDYVvpKLGppuFi6LCotMqi0aqcE5FSkccK44ZxwinCHBi0J4eLhtzwtDwtDwtDwtp4Y08MaLhjTw1ozDkOBQ4JpwTTg2nCNOEYJSsOGYcOw0GGgwSBhoMNBhosNFhpMNNhpsMkZpxmRhlYWjLRmVh/Wf1mA5c/4GLfbKdE0LJub2eiDUFtu6HQshZCyb7IJ0FMqFkG2FtZbHQaojuiSCSCSoanXUQ1jWQ1kNZDWNc1ziBKg4g1ziENdDXQ10OKOJFqzijijijijizijiji0FqzjDjTjDjTjjjTjDjTjTjTjDjTjDjDjDjFONU4xTjFOMU4tTjFOLU4pxxSnEuOJccS44lxxLjiVOIU4lxxLjiHHEuOIccQ4Woca7jiHHEONZxruNkpFfL+Bi32uCT+nVEk6xu6SPsrHdHvsapqmsaqmqpqqaymspqqawsymspqqJKpqiyKZ1I3DnqhneZ3mo8SVxqvNV5qvNV4krzVeashqyGpIashqvNV5rPNdxrPNdxqvNdxxCms41nGu41Xms41nGq41XGqpqOM7jMpmUupIqtTWNc1jWNY1zXNY1hspcuXUuu9OXru6lixYsWMpYsWMplMplLGyKf2/gYt9rh+ITvF7Zu8ftlMyGdDUQWUWU1DUUzqZhou7qJfdYsNWw9elNImdzENMc2yrcjbcyCRmmaYrDKKg7cu5jBWjkHZkFcpcupfpczCvGuu5rSVg66CKNUau5pXr6L778i7ohvMm5eXpuQUvz3ELimyfy/gYt9ri+K6GZCFbpUOsQu9FSvRXF91jKIwyFiyEaDuyqNUQsW3WHp6P8qKoa5uYc1HGVLJ0cIXLiqOUe4zFy4xLFxVHDxyFi5nM4rt0XdiikqC9BrhjxFM3pqJc7rly5fdcVS4ikSiCcrfwk5Nkvl/Axb7XHJ/Usgj+tKvpqSn9tT2sI0RgkZkEaKgpcjUcvRb3Ygwa3o9CwiD/YvvjcrXRVK2SXo+UzrdvVN6qPcOduUalhXDXX3KOFFF5EI0EFHKPE7tGqKv8AXyXLl+SJRvblb9BRPofoTfsl834GL/a4+rEQRCk7VDSnQnaZEMqFixYQcKhlI0FTplEaNQjT0ybmj/bMtnMVRbmtKhSOWVXtIvjLlx7hztyjR7rCv6sURwqqKgrRWipyNQQziyD3dU6mUso0Vf6+ZOSMZ25W/iqbI/L+Bi32uJPQ1ojCmQlQhJe1uaxYyiIW6b4+0u5g7tU/JHYVxcw/5pEIPaXHOHKOE3Kth69U7oogli6Cqg5wq8jS4qoPVDuRsGtHIftfi+lGM7crROf9/UU2R+X8DFvtcPxt3U5L2i7yJ0tzpv8A1vi7S7mi9qz5EEEbmKH5XNW7ehfc4dyPHmeytlQa4zGYzCqX3XLmYuOcRxPeMhsIltzxe7/i+kwj5kE5k50P2vKpsj8v4GLfa4fjbugJCP3P7c6bkP1uQi7S9hovat96dBHCIQfJbo9C+5wu5BRyXFYLAiq+lGQqMp7pwZwyHC3HU6mio2A4dqDY2oLGiiQNuxvRUF3OLE62j+kwj5kE+sgu9NymyPy/gYt9rp/Y3dAPGd3dv2v0EP0u5CHtL2EF7V6eoQh7IzqnxvHd7jhdzd7bCsFaIibrl0FcXLil937QYL3cOUXdUqJyJu/e9pF25U5V5VE5V3puU2S+X8DFvtdN8aCEI4b7l7O7rvUTlTs/chD2l7Koin+OId90JH3j6xuJO4u9N6DRWlhRTMK4VwjhXGYRRBqDeyjh265It3c/63N7xdv3ypzqJyofvm2S+b8DFvtdN7GiEPde3+f6d3XevKg3s/chTk/Zdye3ENyEIwp/jeP6ijhRFLiqIIMUQcg5NzkFQVORBqDULDh47c9SymVTKplUyqZHmm80nmlIaMhoyjYJSKKQ0nmk80Xmg80JDh5BKeQWnkOHecO84Z5w7jh3HDKcMpwynDCQGghooaKGihpNNNpkYZWGVhswjUl/Axb7XTexvYi7r2/z/T+68qIW3t7P305L7Xbk7Yh7bCIpEikaFP0jf1Mqj2KLG4WNxpONNxpOGQOEp3Dad10hU0FFp1FpVFo3HBOOAceHuPD3Hh6jcOUbQHBqcIo6jFoUU8PQ8PaLhzRMOYJh8ZwERwMZwUQlHGcLGcNEcPEaMZpRmnGZWIeguwzMMzTO01ENVprILOhroa6Guhrmua5xBxBrmsaxrqLOprKazjVcaimopsi7NN+Bi32umauRremVSNFvb05PVl6PYqmmppKaZpGkaZpGkaSjIejoDhzQI4h8d0WA0DTJKZj2+HxiUEY2iYJTsQjiZbSYaLDQjOHiOHiNCESCE0ITTjQyxloz+s9B6C7C7DMwztM7TUaaqGshrnEC1BxAtQcScScScScScSotSpxDjiXC1DhahxruNd5rONZxquNRxqONRxncZlLqZlMyl1L7r7uv0LFi2+xsf834GLfbKaFugjGmRBEQRBbDbHQ9J6T0npPQekRWmZormmo01Gmq0V6CSJfVSzpRZRJDVNZDXQ4hDiEOIOIOJOJOJOKOKOLOLU4o4k4lTiXHEuOIccQ813Gu81nmq81Hmo8zuMzzM8u4VymczKKqoZzOZzOhnQzmdDOhnQ1DOahnEd9C26262+xYsWLFjKWLFt1ixsl8v4GLfbKeX+jWNYSXq1/SSTqx/SSWxrGsaxrmsa5rGqagsiiyqJIpqKI9TOoqqdRidJVs3WNQz3EI4swsJpqZBWKKli3I0RpkEYaYkRommaRpmmaZpmUVBR6iqUkN21nR2YzGczmYzGYzmYzCqZjMRKIvLfkTkuXLly5cuXLl+S5sl8v4GLfa4Hf1Jub3Z7ZUI+0iFixlMhlMhlMqCNQVqCsEaZSx+9zCo+NXdcwxesdimZZrkQUXc9Bd1y41Rjuty41wjhHHTkuK8uK4c4cpTxLLKvpbiHe5cuXLly5cuIoqly5EonMn105EFNkPm/Axb7XC70M3IR+2Uj7Sc1y5cuIO3X3Zd7O1R8ci+q5GphkWtPO5MzlHCirucgu64g1RFL9EURwjhH2NQugriSQzGYcorhSjjSOF3bEe67l+gom6LunMn1U3JvQTdsj8v4GLfa6ZfRHvi9spF2l33+gu6w1Cw7c0qPZP7yNeuEx6dG12Z7hVF7qOFHJ0P2XEcZulzMZzOZzOOdfcqoKpmHEaESf1L2xHu7uLzpyRCcyfQT6aCmyHy/gYv9rp/bHvh9spD2l5E5kF3t7/AKd3GkvtqfeYZSvqqhzUZDH7nD+7zsX3OFF33Lly5mMxmMxnMxmLlxBpH8X6xDu/uLyruQXfD3bzJyJ9JN68myPzfgYt9rg7R74O0vaAl5EL7r72i72ie2R1lWQbJ1kXpU+82bp9Okf1azpM4eOF3qO5bl9yb7ly+9O6DREs0xAk9wvKu5Bd8QwT6KfSTlTdsj834GLfa4fbHvg7S9oe8n0mqKqZXOM41/Vq+mqfZXSKRuP1Up6qaB9S6miSClUqPTKo5R4tzrbsfod9JRd6CCDBPYpXEvvF5V3JyRjOVeVPqJy7I/N+Bi32uJfTFvhJPbF7ni991xVMxnM4rhi9f1IvW5HfPH7KtLrlIm9VTpUsV0mE00dJR/pxVszMY67VHIOTc4Tt+l51503IM7xr6CsJvkF+mzvH+KnNsj834GLfa4lIhN0I72x+5493VXiuMxmLl97E65fS9nVIxGWdH7atOpGfrB6TWqnLZ6KPQXqlSxWORUVHC7sqbrIKhb6C703puQYvT9VhUfILzLys7xcyfSsWLFhELGVTKplcZVMqmySKkv4GLfa4+0IimYhd1evpjd63qSu9SuLnUS5YsIWGIInpcnVqC94vbWdymikmdT4aiEUbI2yN6ncehI25Imm4UdvVbHcUVOdd1uRNzOr0GXy1ZUp/bZTKplUyONNxpvNJ5ovNB4lM84Z5wzxlK+7KdwkDjQU4dRKc4Y4c4cSA0ENFDRaaLRIWmk002mRplaZWlmnpLtMyGZpnQzoaiGyzs0v4GL/a2e2NRHGYgXq72x31HdpGXdpiRmUVLb0EGjez+7RSNfRV9Vw/BpKlP9PQxQPdI9CTcg5B3eViKjrscKm6xZSymRRYnCxOFiU0VNFTQU4ZThThThhKZDhkOGQ4dpoNI4WoWQhkRpKkMpNTMz8NEaEZoxmiw0mGmwyMMrDK0s09J6TM0zoLIapqmqaxqmqaqmsprKapqqaqmqpqONRxnUzqZ1MymZS6l1Ll13bHfN+Bi32tjfQ1oiKZCBvVU9DW+u3RzeuURo5o9BUUyqZXFlGIo1vSVijGKLGpS0r1bSQU8RVVSNa92Z8Dka1JkHTIayGsgs6CzILIhKrXHRC6HQ6F0LoKqF0OhdC6F0MyGZpnaZ0NRDUQ1ENRDUQ1ENU1jWNZRZjVNRTUM6mdTOpmUzKZlLqXU6l1Op1+jbmsW3WLFixYsWLGyCf3fgYt9shh/rSESI00GNS9vT/knZTodDoOMpkMplERDOgr0EchA6NF1kJamw+ozGqNmHz2FnNc1jWNY1jVM5nM5mMxmMxmMxcuXLly/wBO26wrV33LoK5C5mQzoZkNRDUQRbiflbJfL+Bi32yJ39WYzGca7rm9LnepF6PfYziyGoZzUMxmM5nM5nMwyTqkxI++5SMkF5bFvwbly5cat1RplEjEiI6e6SQZRjetPC1w7CopUqsFqYyXNG7VNU1TVNQzmoZ1vE/dcvuzFy+6/Jf62yPzfgYt9rhX+q5cuNXq32O97O03fn7mRwrFFvubG5TKrTI5TSUWNSJgtOrhaRThVOFOFOGOGOHOHQ0B8Jay81y4qly5cuXMwriBN7bDSPtPK1Hanrprkeq0ZIuWop6OqbWbPyNSeOSF99yC74V6/RTen1tkfm/Axb7XF8e9vdnskT1M7TJ1ymUymURpBTyzPp8JcJQwtThWE9I1EbSMUbRsFhY0fCMhS2khLElo2pmijRU0mixNFY0VqCtQVrSzRUQVLClQwuXFXcu+5fdcuX3KpA241Lb2jRhK1HEzLOgeQP8AS11h9lGzuRZmUtY3EcFljcqORU5Ie6dvo/r6X65Nkfm/Axb7XC3+myb0Ge2Uj7Sd0sXTc2N8jsOwdxFFFTtledRtkSscQqhdVOl3odi/V3Vqe+ld6BRRRRV3uQsSt6Tsyr15VLbkL8iJmdC2yb2ke5VJm3G9FpXdEXoqrG+SJHDWuaRTZUrMMpKxMQwispVtvhG9udN36+l+uTZH5vwMW+1w/DuuIpGvokIu0orhq3XD8LlqCko4KZiqOcKlxrBylUvpY+7mv6EiDhe7e0yZX4c67b7nblQtyWFS5PHclbldzruuXHEEdmonIhEu5ykielSmdYYvpnTNHRPzJYyoZlarZMyV2AU1StfhlRSSdiLu3snKn1UFE7cmyXy/gYt9riX+rcu6H2yEa9J1KOimqn4fhFPTi2QV5e4u5VJpUQqHK8Z3b2jQm7D+7V6VCXTDn5Zb7nblFLFt7ksO6lRGO6Ov9BVLkEYxvTljURREurmLlkTq0gf6U7ZXRyxVCKK8vd0fQzCWkbiOAQPSSCSmkb25F/ATl2S+X8DFvtcfxoILugtlktanY55h+GxvGtjY27RVaLltdDOl3SxoOerh2VCSxFa7GpZLITWsth9roqF2qdI5kVFTodDodDodDodBbHQWw9EUmiQe3K7fc7lh10HKhTMzLE1LdDoJY6HQ6DVQYqFLlJZGEllVEQathjkHZSzTLZzXuRdZijXXIrWaqE0VPM2twhYx7Va76XQ6bk5k3dN+yXy/gTxNmgTZnDUTy1hx5bw88t4eeW8OG7PUKHl+hIcHp4kTD2ocAh4e08PaeHNPDYx2FROEwiBDwmE8IgPBqYTBqZDwmE8KiFwmFTwanPA6U8DpTwOkHYFSOEwiBE8JhPCIDwiA8IgPB6c8HpzwanPBqc8GpjwWmPBKY8EpRcCo1HbOUDjy1hx5aw48tYceWcNPLWHHlbCzyzhouy+FqN2aw5qJs9QoeX6E8v0J5fojwCiPL9EeX6I8v0R4BRiYJSoeBUh4HSHgdIeB0gmC0yHg9OeD054PTng8AuC0yjMFpmiYXEh4bGeGxnhzCbBaaY8uYeeXMPPLeHnlvDzy5h55cw88uYeeXaA8uUB5doDy7QHl2gPLtAeXaA8u0B5doDy7QHl2gPLtAeXaA8u0B5coDy9QHl6hMOw2noXf+/8A/8QAIxEAAgEDBQEBAQEBAAAAAAAAAAERAhASAxMgITAxMkBBkP/aAAgBAwEBPwH/AKm4mJiYmJgYGBgYGBgYGBgjBG2bZtowRgYGA6DEwNtGBgjAwHSQQQRaCCLQQQQQRaLQPxp+eyGSSTebO8sm7/hgSItV98V85TabySSSTwngieMk2fnBAkQLhX98afn8cXggjxggggxIMTExI8avvivl0iCCCCCCCCCLIdoFQLSNo2TaNo2jaHpmPGTIT5wQQQQQQQQV/fFWXukJFJSiB3ggqGVIVoHdEcI5wQJGr+vFWXvShFKFzYypdXQ7084I4K0Gt+/Gmy9FdIQiBWa4NDQ0VKyuyn5eCLxeDsV9b9+KsvSRWpQhFN3eLMaKlZXZSJcIuuet+/GnjN54O0CsqzcN0WsbxvG8bxvG8b5uj1SpzZWgStPRJkZmZkKoyMjIzRmjIyRq/rxp/ghkHZD4dkMxZBFoI5RJBBDMTExZizFmLMGYMwZizFlf3xp4wReLw2Yu+mrscHV6UOkY3ZMq5UcIII4Rx1v340/PJsSkpIkr0xI010VDZLHN0UUjXRUNMghkdCRV0IgZQR7av68V88mUCVmR2UfCB0mKGkYox7KaClRaqgghEGJBWibMo99b9+NPzyZQ+yjsgYyj5fAembYqCLsVMmBgMZUx2ZR76378aPllwfH4aQyCukovSzolDJExtDKWSSVfLVcKbSZCqRKJRJJJKJRKJRkjW/fjSyeUkkkjNPUgeqbo9Q3DdN03jfN4esbpvG6PVN03mbpumQ+yDExIJMiRMkklkslksklkskr++NPCbQQYmI6TGypk2jAwNs2zbNswMDEgxIFTI6RIdCKqeiSSSRCRgYmBgYGJBiYmKMUQYmr+vFO0GAtMhHQ2huzZJV2UVQZpjFeb1DVpPppldpK3xQl1yXFX1v34002kVRPJn+CsmUubT0TdO0DpGhI+D7FSMq4op+eLsrQa378aH0TZEk2ZPJGnZ2Q0YwISMTEVA6DGLVD5U/OCurxw1v340fLSJjI4xdiNNjZNkIg+EwZEmQ3I7Mb4op+e2t+/GnjJN5Juyk0hwNmRkZIVSHUh1GQqjIVSKqh1EkEEEEHwVRkZGTNw3DM3GZmZmZmbM2VuX4r1aMRdMb49ndoZDIZDI4yTZsxMRUsxZgzBi0zAwMDbMGYGBWoq8Vym8cGyShSOgdJFoIFSOkVBgQQiogkkm8jKPhBFoIEiOUmt+/FP0gYjS+js1eTIyFWZEjqPpHNlHwXGLNCI4a378aeM8JtNmJGmO7Q7SSSJkklNnyZR7a368aX1wfBUmBtFNJCKxFP0Tuyq0EcFd8mUcpJJ5a378abwYG2KgxQ+iR1CbMxsVqauDpI4QJWmz5MocGSMjMzMzcNw3EbiMzcRuGZqOavGmhGKIRJmZmRkZCY2SN8PhmZmRkZWV54xzkkkk7t3bshkMhkFf3xyMvBXfOeCQ7RZeKMDAwMDAwMTFEIgggg1f1/MuVJBFkO75wRam8eCvrfvxXdoIEpMfWBdC7/ggR/lleSeCvrfvxoXQkh2kfN+CJtPun1ZeCvrfvxkklkkk2kkkkkkkkkkkkkkklksknlJJJJJNsmZMzZnUZ1GdRnUZ1GdRnUZ1GdRnUNzw//EACMRAAICAQQDAQEBAQAAAAAAAAABEBESAiAhMAMxMhNAQZD/2gAIAQIBAT8B/wCptsyZkzNmbM2ZsyZmzJmbMzNmZ+hmzNmbM2ZMtlsyZbLZZkzJmRkzM/Ri1MTOdlzcWXtssX86iiuuhwqF/FYulxU8lHMczRQuvjehfwONPrpZZZeyyyxll7LLi4voZRUWWWWWWZGRkWWXFllllmn10vZZe1wipSKhsyMjMyMjIsTiipSMSiiioooqKKmio0eut9WmahjexbUJw50wx9Vllllnj+el+4fSzTCljfQhbWaRDH0Xv8Xz0v3D6EM07GNze9MssUNCUMZcMsvZe7xfPS/fSpWxjhjhbk40yoY5cWXtbLhnh+Ol+yhoaKZzFFMpxQlFzq0mJifkfmYGBgYH5mA9AtAiy2Wy4ZRRiUUUUNRRiYmJieL56dXuLLLLLRZZkZbmZCaLQmWWWWWZbL2XHossssssyGyyzIyRaMkaPXS/cPoQiy51uEJGlFFQyxRQ0IU1Grc3uqfD8dL9xY9lbP8ABwmM1e4QhFzqcL0J7LLLKjVuam4sufF89L99jhQ/cpiZZY3K1CZbLLL4Fs19VbfF89L9j6EONUIsY4TFqMixyiyyyxCFOuX0PZ4fnpfvoYhiNYhi1D6lFFQhMRZZql9LRRR4vnpaKKMTExMSiiihGpWLQYGB+Z+Z+Z+Z+R+Z+Z+Z+Z+Z+Z+Z+Z+ZgYmJRRQ9JiYmJijExMEYIwMDBGCMB6UeP56WWZGW6yy4eqjMsyP0MxazIsvdcWWJFFFDLMjKciyzJlstlstmTPF89LRRRwXKGUULSIemx6a2pChRc6hTpU1DNW6iit3h+el6ocJShw5XqNXGxCipTmhuNO1mqX1+L56X7EOFNQhmkYo1wpRY3F7LlbtUvc9vi+enVDhbGIYoQzXNzZe1xRQtz9y5uXt8Xz0uXtcWKEOjXCODgbGKFLs5OS2Wy2Wy2W4aZTMWYmBgYGBgYGCMEYoxR4/npbmipplMooooWkaMTBGJiYGJiikcHBwWWWXtccjZkZGRkZGRZZZkZGRkeP57GXsss5E2cijVwZMsUOaKmhaRs0qyiioqNfU5o8Xz0tS9rlQo8k5Cdji9+r2aN+uXFjL3+L56XL2uVs17EOKlFTq9mnfrlxQ4W7xfPS5cLfYmMY1FCGUUUVsRrVGkW7XLl7lHi+elyxRY2XLEaVDGti2MRcI1o0loyRkZGRkjUxzQ0YmJizAwMGLQz8zxKtPS3Li5ocYiW1qKMTk5L2VDKUcHEcHBSKKKlssssssss8fz1uEUcHEWWZGRmWWWNmRkZFmRc8nJTGmKx6WJGJiYmA9MWXFllllllz4vnpZezkSh2cnMUPQYsxZgzAxK2LYtriy4Y+3xfPS9lFFFRRW2xOLGpqaEhLYmOaoy6L3+L56XsqyoZW+hDl7tKlbqMRofb4vnpooororqooqK7cUYoxRijFGKMUYIwRijFGKMUVWz/8QAThAAAAQDAgkJBAcGBQEJAAAAAAECAwQRMRIhBRATMjRAcXOTFCAiMEFQUZKxM2FykRUjQlKBocEkYGKywtEGQ4Lh8FM1RGNkcICDkKD/2gAIAQEABj8C/wDoLbhn4lCHXM1J9wKcXmpKZgoOHW4bhlO9BljOBTEIOITVHPy0W8lpE5TMJdbUSkKKZGXbzFMvuLyiakTZhK00UUy7oVgnBbuRab9vEFX8BNb0Ypz/AKhvnMYShH4l55DCiSjKKn4heDMHvnDwzPt3k5x7AZsxMY092O5YzMO4Fwoq2+j2bn3h9JIcdJ01EgytdEQ7y+UW1tpUZ5Y6yCIuFi3YmCtSW28c7Iaimsxwp4rUTENNF/GqQ/Zopp33JUDUoyIiqZjJIj4c1+GUITM7hkWYplxyU7KVzGRdjWEOfdNYyrrqEI+8o5ED5LEtOyrZUJvvttF/GqQKJJ9vIn9u1cDKGiWnTKpJVMWIiMZbV4KWCWhRKSdDIxksu1b+7bKYm44lBfxHIW2nELT4pVMZBqKZW5WylczGSejGG1+BrBKSZGR0Mgy+/GJ5SkySTZOZx9gW+6okpQU7xlY2LbypuKzlkVwkqKZSfvcIW23ELT4kcyBJTFMqUdCJwsa3CNZPNIM27KpDlk3DiW1GhU1nL5BWEkLWl+0kj6dxkG4xi3beR07S53kINlk3idi3TU79Yeb2iDWg3uSuHJwjcMHBN28ioj+2c7/eCwa446qGXT6w5kZkCgV28iREVyznd7xExpG9k2nzQxNZ0IQMOw4+TcQfTm5P7QXAIymSXOc133+8HgvKP8nlPPvzZhDDc7KCkUzmHllUkGf5Bp+Oy+Vc6XtDKRBrB2DkPrjHDL/NM7IZhVOG4pBXmfiJxMS01OlpUhahn23S/gVMTffba+NUgUTl28id5LtXA+SxLT0q2VTGTfjGG1+BrBKQolJOhkD3f9IyHLofKeFsgalGREVTC4yFi0uxSpqsE5Mi8TxZJUfDkvwyhCZHMjH7TFNNe5ShOGiGnfhVPEiHwlGJYNJ2k9ORhluG9iSCsbBZiYtlpXgpV4tQ77bpfwKniZ336GGN2n0EoiKZaPwUoW4d5t1PihUxKIimWj8FLIhlH3220+KlSGUhnm3U+KTmMgcdD5TwtlitxDzbSfFapA+TRLTsvuq155wqpbMy+QjXTvWa0lPE+4mqWzP8hGOnnG4RTxQTiKqyc/nIFvk/qITcp9BGJP8A6RmJHQnVSD0Uq8m0GoLwvhFKYl51Zkm2UySXuIMx8My23D5IyXZkXS2BrA1oyhWuk6RHn3TC2EwjLZ2egpKJGRh+Bijtmz0b/un2BeD4VbkMypu+wq+UpmUxEKZhUtuNtmpKyO+4NxEeS4lSDNtCXFdFBF4EIBUGWSQ9KaS2yDzzzdpxhs1NnOgZejbUQSZk22o+gi/wEDyE1wyYjoqyZ0vkcg4goUrVk/rJnan4zD7KjmTTvR/EQaWGyQSitnLxvD2XaS5k0KUmfYcg4R0N4/QgiBg1OQrbiLzQd9L5B4kQxJWSDMnJnamDQo55N0yLYMGGw0lvKOEpcu07QiFvNJWpptSkT7DkCdiYRt1eUUVoyDcfDspSaDJLku0uwMqhWUNsuotWU0vqI6NRDoJllywwUriMu0Qr7MZkmmqlfd7yxx2DTuQ50kepfkYhMFHmWVPOehfmIrBzmew5QRb/ANiEaJlO07zDpkXSZ+sL9RDvKO9KLK/wCf8AERTyjkWav9P2fQOR6DqzaTtOghmTzrFpW07xgn4i/mxH8H9GNcSu86IT95QXhuN6Tzxnk5+ofi5Tyabi9/YFYUj0JiYh9R3uFORCEwpAJJm0dlxCbiMORi27S22rbSp0DD8daiJTShtR9BBT8BBJglLhkRMkqyZylfI5B1CYUiXZOTkztT8Q60o5k27cFQ7ilpQpvpWDlMrNA5yaHSy8hM0KSHIeJ+syR2Ol2pMPMsNk22lBySXwkIXBzbuS5Sr6xc5SSDhSVg+zZlO2m1tmIqFNdtLK/q/xEYnCpNqjlO3G/wChTH0jD5NttTVk20plf44uV5JOXtpTb7ZBjJ5/Jis7bIeTHE0uPU4c8uUzVsmIiNYsIaeQRZNJUPEzvv0MNJmZTaIplsE32ULPtcfXMzGQwc4k4Z5F5JVMqAo/J/tFskWp9gaiI1JxbzjaTNTp0uoRdgiMEocdRCLKZoQuU7pyDz8PDJZcaK0RpEM86ZnZQZGewRWEcKusXKsMNvKKSS2GIKPwU4wl0l9MmVF+gI/HXVNnRRSEXgqI6KlZs+0y/wBsUVg9CjNbaZOXXFMRuCn+i5OZF4yxG830mISU1dl3+4LfJ/UQm5T6BUKm9+J6CEFUMw6/aZy9piMbRerJz+V4S2R9JpaiUX54lZS4np2fxIKWo5EkpmI6Ml0FqJKfUK3f9IjNyr0Bb1QwTtT/ADCN3Jhn4leowR8ZfzEFbBG70hAGdDQX6iJ3KvQL3x+hCH3f9Jh/dq9A/vv0GCPiL+YRm5V6At6oPQq6OJkMIMO3OwZmRFt/3EO2rPUVte0wRKWlJnSZ1x4Nwoj71hf/ADYMJR50t5BvYmoUqjUW2Z/8/EgcUvPinFPH+NAptWaopGMMYMvyqVkhv/UdkLwcks1mSdpDB2DO04uwv4E9LFgn4i/mxH8H9GIzM5EQJCZ/R8P6f7iRSShJfIhFvttWZGcinOZJOoaSR3tqUk/mIOFRe4t24hENnVEPZEPtV/MMEfEX8wc+ExFb39B/8f8ASH3lnJKEGYeiFlInnOjsIRG7/pIYPinUWmM1c6XGCUnB8KZHeXQC+TMNskd6rCZDlrUyUr/NRcZ7SDeCHnziId4uhPs/tiPepEM6s5JTDpM/kCjmJtqdKZOIuntIKwJFPZduzNB+HbiZ336GDimymptgjL5D6TwopUW6tRyJarkiHah2kNIyc7KSl9kwnfJ/UQu5T6Bzd/0CN3YQ2X2krL8zEXDRkK04+2ufTTfKg/7OhvJr6XVWmYhGa63UWPp7o+PJytB5SXnXnXjm4tfaExSHFw0UijrYyMRh1WSO48mySVH+IyEK3ZT2n2ntCiVhRTcPMjJnJTkENI/xA4SElIi5Omg5W647FxX/AFXjnLZjXF4JjlQRrzkWLSTCX4zCbsQpNEEkkI+XaEKUpTT7fs3UVIcnjcNLch/tJQ0STV+ITDQySbQkpEPpH6ZPlH3uTlT5jk7Mbyedzh5O1aIZP6Ry0Pf9XkpX+MwmMVhU0qbVNosgXQ/MJgzwlZVKTy8iX1hbOwZE4/LsfZRkrMj2hMUvCppyaptFkC6H5jk/0hKI7X8kXoJt4TttKOa28jnfjMMvofVDxLOY4RTGTwlhVx9v7jaCbI9viFs8sS6yZmZJyUjntBYRPDJ8oKiuTld+YyDUZkHDuU5k5z8bhJOEsowd6msjKZ7QiKdwwdts5tfUF0fzBwkY/wAoUpJpW5ZszmDaaw2+3Dmc7KEyMIbtKVZKU1HMzDbDDx/tUnIloiuJJf3xQ8UcUpsmqpl7+zGcMpzJnaJSVynINwqV27NVSzjDKiiDh1tT6RJncYbZRmoSSSxJwpl5FMlKas5xlidjSiDWlVo0N2cyeJuJfwyanGj+rPk5dH8wplyOyj5zk9kiKX4D6Q+mj5T9/k5f3CEuuZVZF0lylMOwhPKZyhStEMjCYbNpE5yKGSFNr/xAs0qKR/s6QiCt5UkzmcpTmHHcEYQVCJczmjRbSOXx0SuNiizVKKSUbCHJ2ozkyFXOfV2rRDIKjsuz9hGSs2QmMXhYyU2qbRZAuh+YKG+kLMR9p/JFf+A6GErbKjmtvIyn+Mx9JwkeuGiJSzLRAk4UwouIZI55JtuwR7RkIYyYkmygyTm/gDwgWGz5Sq418nL+45LF9P8AiK4yPxGQh8OGTBZpKYJRkFoXEvRCnL1rcV/yQNGDMLraZM55Nxolg8IRkUuMi5SJZlIk7CxWDwkbUPd9VkiO/aHIOKjjim1IsJ+rJNkpDIwGGVIZ7EOMkqQcjX4hcVFuXG6opfIsRk5hQ0MTmlrIld+Mw5CR0XyxCislNuzJPgFNQOGFNQ6jnZNolGQbj4XCCkupT0lOoyhqPxCWzwhkmSqjJTmrxGQejeUGVyFZOzZKQPCP00fKT+3ycv7goZEdkEmUnfq52/7DIKj8uwRdBGSs2R9IQEWuCiftGkpkf4BPLsMOuII52GkE3Pb+4LZYLiUsLJXSmdSDsREvnERj2e4fp/8Al9ybsHHIV4G2RT/MIi1wUeTajMvZZsvEE2xCxhEc/rFN9D5jJxENFmX30o6PzB5KFimkkU7TrciPYFNPQcdcqySia6Ktl4Q+TTrVr7LiZKIHFPks0EZF0aiZYLwqZH/5cIbegsINGultqX69R+xONNuTq4mZSEXyxaVG2siKSZYnHEoNZpSZkku0Pqi4YmrCuiZEZT937x4J+Iv5g6wvNcSaTEZg13OZcnL8jGQJFtx1wiQX5htJn0mTyZ/oMGwNUtziF/hTEiHyhISTqVquqRdgXEOnZbbT/wAILw5HXoQqTKeyf+wXERC7DaKmOUQOCk8nPNN12SlhxhTSoeKaz2lAmVYOPImoiJ5SrlA1YJwW7FNl/mq6KT2eIUlcI9yxJ2cg2UzV/YJXHYHNmHUcp25mEuoOaVpmQjWoeEdiohxyaUJp23mYSxhjBxwpLosjmMtBQ3Kl/dtSu8Q+t1lDeTVLohuHQ0qIinfZsp7f7An8I4MQUMZyNTTszSPpBTn1Fi3PxBRMHgpvIKvTlHpKUQW6bBsKbXYUkzneEYMVlMquRTIriM/3dwT8RfzYkOUajC/M/wDcNN1bgmTWfxKu9BhDBZ5qukj/AJsMYTj6pSoodv8ACuNvBEGr9naV9YovzMNw7KbLaCkRCChpyQtZmYQhJSJKSIgwpu7KytfiUhBb39AnYMJpKklepB340+og9yQwhvS/UKWZdJtZGkxCKUczyQjd6Qi3YeD5W42RoSi3ZkVA7BngGxlCzuUpOQLBj/1b9m4jOhzmQRg/C8E4lLfRS4Xh+oN/B+TsOKtKslLpe/3go1UOg4hNF/u7g1xqJaWlpXTNKs3pDKw7qHUfeScxDx6M6GdL5GIvCZlpb00/CVxCBwt9gysrDBKz1llF7VX4siycoh+5J/dLtMTdwjDHEu3uHap7gpqAjULfcUSegq8iDLrJGt2GvMu0yleG3Hotplwk/WIWqRkYXhmwpMI1cyZlniFYJ1BuocmpM7yKQ5Qh9tTKSvWSriEe+qJaJpwjJCjVcq8gthTqSdWaTSid53iHbadQtbbREsiO9IjkRMQ2ypThGVs5TqG8EYLPLzWSnXE5qS2htp15DTSE2CNRyESw48hLjjpWEmd6gnCxoUqEfuWZdnj/AHGU5exL3Kv+Q+kINBzOyclo7Ng/aIqGU2pPSQs/0Ea+glphHF/U2u0N4KyDilKMiNfhP93dChuEQsMtobT4JKQNDiErSdSUUyBIbSlCSoRFIhJ5pDhF95MxIsRZZltyVLSZjQofhENDh+EWLKLg4dSvE2yEiKRC27DMrV4qQRmDaSy2ls6pJNwug4fhECN5hpwypaQRg8iy23OthMhadhWHD8VNkYsstIbT4JTIWXmkOF4KTMEtEKwlRUMmyBpWklJOpGQttwjCFeJNlPFbOChjV45IhIikQJ82WzdK4l2b/wD2lOOynYSagR8kdKf8RDRHPMQ0R3zENEc8xDRHfMQ0R3zENEd8xDRHPMQ0RzzENEc8xDRHPMQ0RzzENEc8xDRXPMQ0Vz5kNFc+ZDRXPmQ0Vz5kNGX5hoznzGiOeYhornmIaM58xornmIaK55iGiueYhornzIaK55iGiueYhornzIaK58yGiufMhIoVw/8AUQ0VzzENGc+Y0Vz5i+Fc8xDRXfmNEd8xDRHfMQ0R3zENEd8xDRHfMQ0RzzENEd8xC+Cd8xDRHfMQvhHS/wBRDRHfMQ0N3zEJcje+ZDQ3fMQugnvMQnyRwv8AUQ0dz5jRXPmQ0ZzzDRXPmNGc+YlyZz5jRnPmNGc+Y0Zz5jR3PmNHX8xo6/mNGc8xDRXPMQ0R3zENDd8xDQnvMQ0F7zENBe8xDQXvMQ0F7zENBe8xDQXvMQ0F7zENBe8xDQXvMQ0F7zENBe8xDQXvMQ0F7zENBe8xDQXvMQ0F7zENAe8xDQXvMQ0F7zENBe8xDQHvMQ0B7zENAe8xDQHvMQ0B7zENBe8xDQXvMQ0B7zENAe8xDQHvMQ0B7zEHUoh1tZMizjrqMRulegTs16QkLh0CITUd4ukQoKGLufIxaQJLFx4qXj62RDo8y4SWQ93dkX8Kf11GI3SvQI2a9MxIhMz/AAHQF4uWM6eKuKnOoL8d5i6nMriuF+POFRW/ueL+FP66jEbpXoE7C1+8TUJFfin1VOZQdI0l1WweA8Rd3PFfCn9dRiN0r0Cdha94mLZjw5vYOzqLjIdIxKYuIZvOv51wvTcOgfc0V8Kf11GI3SvQFsLXpmJCvUU5t46KcV4uIUFMVBTFMUFMcxMTF3c0VsT+uoxG6V6AthdZXmV6qoqK9VTFQUxUFBQUFBmjNGaQzSFBQUFBQUFBQdgoKCgoQoQoQzSGaQoQoQoQoXVVFRXqKYqDNGaM0UGaM0ZoibRdidRiN0r0Cdha7UVFRXmVFRXFUVFRUVxVFRUVFRUVxVFcdcdRXXuzmUFBQhQhQhQg9LwLUYjdK9AnZrM+8a6jUVFRXmVxVFRE7E6jEbpXoE7NZkJEJrF3U0FOaeqTF3c0TsTqMRulegTs1kzMWlUEk4pddPF7sd/X3dzxOxOoxG6V6BOzWekJEJmDHv7gqKiXMp3HEbE6jEbpXoE7NYkLRqLFM7ubLX5GPETJUhIxWQ8e4ojYnUYjdK9AnZqt2O0QO8X9zXLFRUTsiQr3DEbC1GI3SvQJ2atf3bcYv7iiNhajEbpXoE7NZprtOsl3JEbC1GI3SvQJ2awYv/c2I2FqMRulegTs70u7yiNhajEbpXoE7C1GgpzqCgzRmjNGaM0ZooKCms0FBQUMUMUMUMUEyIXkKGO0UMUFBQUFBQUFBTHTFTm0FOriNhajEn/4SvQJ+EtYoKCgoKEKEKEKCmoV62goQoQoQoQoOwXkQoQoQoQpzaCgoOwdmo0xUxPbC1GK3KvQJ2d5V66vMrrNepf9xFqMVuVegTs/cSvcUR8KdRityr0BbP3BuxVFO4n9hajFblXoE7NVPm06+mqGDxzx0F1wv7gf+EtRityr0CdmrzF+KfW3i7mX6iYMsUyFe5YjYWoxW5V6AtmqmJnzbq9ZeJdZLqj5srV3cb+wtRityr0BbNVv58wfUUFMdBminU2pY6DNFxdR0kC4pdyP/CWoxW5V6AthauXNl2dTTHXm0FOfd1hmSyL3dyxGwtRityr0BbNVOeIy8OZfimXU9EXnzLxQU6m8XDoqx34zx+8UOXcj/wAJajFblXoE7NUuxlzjSJ9wHjvFZF3I/sLUYrcq9AnZrBHziEu4bhnC8+5Ij4S1GK3KvQFsLWLPMniTPwE+tqK6lQSFxl1dMdBTHTFQUFBQUFBQUFBQUFBQUFBQUD8/AtRityr0Cdms2i5pF4dfXq69Rfipj7B2DsHYOzF2Y+zF2c7sHYOzmdg7Opdl4FqMVulegTsLrac6ndNe6ojYWoxW5V6AtnX1x1FdWqKiuKozhUZwzhUVFRUVFRUVFRUVFcU5ioqKior3FEfCWoxW5V6AtmtSULhTFTWru7ojYWoxW5V6Atmt2TqXMu/ceI2FqMVuVegLZrRi4X456+fdER8JajFblXoC2ayYMVxXGDtdwK7oiPhLUYrcq9AWzv4+6IjYWoxW5V6AtmvFrNwv5x90RGwtRityr0Ba7MgRl19RnioqK4r8VO8Yj4S1GK3KvQJ2a9NILX5d0RHwlqMVuVegLZr5fuPEfCWoxW5V6Atn7hUFBQUFBQUFNdfl4FqMVuVegLZ35TF2ChChChYqCmOgoKCgprcR8JajFblXoC2ahQUxU594oKCmr1FRUVFRUVFRUVFcVcVcVcddfiPhTqMVulegSfu1eorjqKioqKioqKioqKioqKioqKivV1FRXmV5lRXuSI2FqMVuVegTsLvu2fdcRsLUYrcq9AWzX7y1si7O0S7O64j4U6jFblXoC1o+YRdgkXZrZeJ92RHwlqMVuVegLXrZleYUetEE6gWuRGwtRityr0BbNdJCfxBIKhEFa0QTs7siPhLUYrcq9AWum/2roDILLWiBbO7IjYWoxW5V6AtmtzFhtJmENfdLER+OtEC2d2RGwtRityr0BbNbkRXncCSSPrDzlcyXaWskC7siPhLUYrcq9AWtm4ouigHzLRayQTjPumI2FqMVuVegLWZNINWwEb65H4Cwi4ud7tYIgVwpiPFQUFBQUFBQUFOprirzK6g/sLUYrcq9AWzV5EUzFp7oJGSYIhM+os9nNoKajPHOmOgp3NEfCnUYrcq9AWzr6cy7HfcJmklK94kkTMxXqKYqCncVdfiPhLUYrcq9AR+7Vb8Vf3PiNhajFblXoE7O/wCguOyYm2eUSDSu4yFe44j4S1GK3KvQJ2ajQUx01C4SPUJCfOMlTHRF6zE0nb2i0VAZPIK0fbIWoZZLLwFhxJkfcUR8JajFblXoE7Oustt2jE3vyEiQMwZozRmiRJvFBTmUFBQUFBTm0E9Qn1F2OYtIMXmJPtFPxBqhk22wZGmXcER8JajFblXoE7OskgpmCXE3e4SbQScc8V4uuIS1K7W5fZMTTjNVkkL8SBqsGpH3i1+I+EtRityr0CdnV2lTQkdBM1eJ868e7qJeGs3AutPxEuZZVeRi2yeSV7qAyWg5eOuxHwlqMVuVegLZ1PRQdnxFpXTWLqc73iauomDLx1mZ9eZoElXHzTS4RGRhTkOclH2Cy4hRa3EbC1GK3KvQJ2c+REZi2/PYCSi4hUVFRUXi9QrZFZiuKoqKioqKioI59oqKioqKioqKioqKivUXCuOZ9TUVEp8yorimlRi9P4iRLGcKioNLiZ+8GpgzUXgJKIy1auOI2FqK2VzsrTZOQlOI4grEcQViOIM6I4grEcQXLiOIM+I4gk29EF/rF0VFcQaVFcQaVFcQaVFcQaTFcQaTFcQXxEVxB7eJ4g9vE8Qe2ieIPbRPEHtoniD28TxBpETxB7eJ4g9tE8Qe1ieIPaxPEHtYniC9yJ4gkT8TxB7eJ4g9vE8Qe3ieIPbxPEHtoniD20TxB7aJ4g9tE8Qe2ieIPbRPEHtYniD2sTxB7SI4gvVEcQVf4gq/xBWI4grEcQViOIP+8cQViOIP8/iC44jiDPiOIM+I4gz4jiDPiOIM+I4gz4jiDPiOIM+I4g9pEcQXOxPEHtYniD2kTxB7WJ4g9pE8Qe2ieIPbRPEHtoniD20TxB7aJ4gvdiPOLnoniDSIniDSYriDSYriDSYriD6x2IV/rGdEcQZ0RxBWI4gzojiDOiOIM6I4gzojiDOiOIM6I4gzojiDOiOIM6I4gzojiDOiOIM6I4gzojiDOiOIM6I4gzojiDOiOIM6I4gzojiDOiOIM+I4gWpk3Dt1tKn/AOgH/8QALxAAAgEEAgIBBQEBAAIDAAMBAAERECExUUFhcfAgQIGRobHRweHxMFBgcICQoP/aAAgBAQABPyH/APwLjePfS5svH3/+gaw005Juy6Q1CxIWynmqZ5SmZX3xPXzQmRBI5eklcTLU+sj5+E0OQ295iGN6lTwP/wCoucbAlIytdEJQFe49jyHWBkpuv1BMajtkQ3F7fkegJsSG2S0S5MwvD3a6ZAb3bih8bsW2DJN0hrNJ9i067Q/nBJ5W19qLTCxDIbQz02/wKxtLEJFwDRC4MKiRS2+B6QUqTRuwgsRxDTX+HQFz+QbK3xKbX2FN6YaZfkjS6VFNeTFr02X2FNz8RMVD+ZZNdMTURzuFePsdt0Sn7GRF2aiflCYz00UgXgWpYiMmv8FI2liU0Q2fDhDsa8jJ9XbRhYErFg6UrKCwdJhB/wBHtU5X/Ih1aIYG3+avcXrUnMNc4Ge4SCDVvwMvnE4UJbLe8Kasl4Txci8t0CW8FwXyfgNQ1N/D/RPGVXYyy2I7cJUqUJN+f6K2i+BHDbgbMIlpYG3vIvIGDGUwsxlj5ke7oN2m5v3nksqffkLsYgNpyWbMT1JoK/LKCQGZbI8KNv8ASLxCOm67joVtJNn9h3V+WiAvJTxDL8isFVJROvJCWmJTITNYZMSUmWJTXksLhhkozpEwGljhJFhAdmHgS/2l77ROwxZWQlNOUyPTt4TTf2IsVZjhSzgHKn7ObMcimsdOZjZyJDE4q/A3N9oh+KfrQ9BodEYKf4Nt6Qgd2hR+BJf+EkfjZxctpohMSM4zpp1+sJ+x+j/JLbX2+u/arsmLxRHLDf8A2j7aU32mFO4PTeJ/7RsOc0Obv4PUaHr9SG2IE7V1/BmwN4WYvyxG3wi3/Mb7Qy2ySJGJsGl91hu8adJST+l+SZeUEiVnKJIlzy3MpeIZtt01lQa6kcwAhek3bdx1BADwSCeWkecXlXh2Lv8ACSbjd3UaIlhMt7Zbay1uXgJTExDwM7zDuPe/ZCT/AEVh8nk97PHGLTXQtaULWw4RJbpu0Z4mI6L/AP8AIgUy23ce/SZ8Mk4/bGw6IYtbjgab90RzZKFCgi1LS0KUvEJfcUgAyskCX/VNgTu37E/ol9G0zYy+KO6uTl0lfj/ofgbbbHvhL+oe7DbXR2f7X7EbGXpUi8o5eFf4bMx1T4dr/gl1EZ6Vx67EfI+zH/TICRF+Wf09Lr8aR3p8owib9g1J5/5XQlgjSu5wT8kTY6NW4hJ2XIpOPS2d8YupJWbSCcof3IVvCtMrJy9sRG5GdLwEok4akrEybdxoFkp8JpOPzIhnTJI5tMnPQ5d2lh7kbl5dAsn+0caaKqWDL7tMUs8f+CHXa/2iZG0kUm8KVvFv2O1SSCcrnATngf5+88cItSft9h2WHcrK/wAQNb3OhD/SbEXlWLeUvUWp+tCRbviGp4jkwnMwNttk9CbP3OJ6aE1os9NeDtGB3vgjhwFkRKo3iGCu8xcXKtLXupT2Mojiu4dr+IZnuIrPlfYv5GxbKCNKIlfcji2E/W5lW/hqB7877x/rTRdF16cSNtxnuVj/AFDppS1dnj60eo0PT6D9LW8Mm7uP19xfkQadXmvtgRm2MiXP/oEBuiEuH9ovZlfOP9qBF5q58JIl0VuMw239VB+72Pe9U99Do9jtQF+z/h6DTFxpCns+l3o8/QF7rY/Yfye91Pf7HvejL4/F8P8AI+SWp34r+x6hH78/4PlDCoUuqoKhNXeH/p/gV3NG7qw+7HDi+OpiX6ckU/xy3/CFry2rpqBM3BnlvA/TFsrfj5X7Q47ThXOR/wAEoULB63X4ESWQlt4SHZK274cs+f4FQRC0lhCG2rRWJf6CpUA6d38ZByea84j+sxllvKSR7PY95qey0fqxlNJdjN+BnCQlyiJ/Mn7gkzrSEllK0/sxOA5Et0NDbwIFS4qS5itcyT7SSYQ4a+y6xT0XZJiZ6SvH6Ri/ut/8MeHnutvCDU3Sjin60FWEteJgkRe5vok4x6hKTOJJyHuND2Oh7HQ9DtDs2V/dAtNpI2mRfZr9iS5/REoUL654cROhYxOzK7Cb4eZIBFu1LX/0jU9zrYlckgFFlH7rCVeUsu3bcjokgRGSiZlNikj1rScTJomEh4MKjuoZx0b32zFVscUp2n9DHez6FokyFkb6YhEmVf79sSGWbbrIiLMEpEbVWUoau7CO9cTW92NkScCZGZS2+45S5lWScXfoNDyk50lOW7m2NJkXsZlKcsci6nBy1+8YH9yV6qUWyNDAGzskw15GVxqH5o1fwsMIplgPF7usGGi8ciIizDLDwUBFEXMSSPPNhLCJubQ6b88spbfcZZg8ssuFgcug375NmIUrrxy5b5Y0CTXQVOW55ISSUJQhIjEkzmJXTZ1s1IF6uhgR5t8Gxy2Q/SKQfBlCio8IJRSVBWM0rOZ8cUcWhjBM97ze1sDmLOCRjBCMpWB+lWnOcOBK4/GhERFmCAuqyfccDTbYcwtRpl8mmYS/LcjON1xSnnkUTMHMTi42L0o5epwLS5Qp8RwSGSIE6V2oG5lauJI3Lcy2yFSpWkylt9xCLCEWvOcKwxTzhSWIWRos/NggiMCRdoB3sskpmShW2e0CXVXJ1EYs4I3NITxDw0J9tiIdJtkn1uRNuIssJ0hqTEEJ9OwpqCM1uijM45QtHNyZnx0zbRKmSKL/AMJsWAaFQWkYotIVWdOI4G+TCO+LSMHfyPfxV3BtxJCcRkgTa6WHjgZMXTSsCcpT5wMEUS1hQShO4kEFD4UREWYH/LILFbv9B7YcSpI3Lcy2ybQ3+6sMZCoMhe5Xa6//AAL/AERvFY8M5EySy0n/AP5fG4Uk9lcJs8JDOaaVTsXusnNhLt7EkjiDY/wGnHbzxJq5BpFYne03Mc90k7O4SkJ70i6I/wAoVNm320K64SmrGvyPJNCplePITlT84euybdp08jMg26EzOPFM/J6HSwKuSEvJTN3K/wD0fvNRKU/chQM6ajW9Mr9lgDvzKua+yZfcb8Cv+jFxLaf4fvS8YQy5gRukoXOk/gqxyj4MR1/QnqhLP4uxEz4qU2lwONDD8tcSnzcUEMppVpi3HkdCTN9jd07EVkU65taLmcEPsb+orT1Yi5I/aalCriLGiXQJHHrqiW+14Y5JzqFWXYOjK1TNzK7M5rzD7N8BYnNwTY5zIkVXR4hbEzaPuwRwSk1x07JVzui4n/8Anfea0XTW9YP4X5L7sL4xhNnaY1+HK9OBJW4Dr/armlxjNr9CwuyEEZnVW7JtQl/WIvJFpJEsB4lzI38P2IVJKSSSx+Dg12NEw5rDUGMP2VGkpunEuH/RwKzl9Sj1GmONjyVjxKX7ciUULgjTx9hDiS0A0h0NoU7iFvDHXkmXv2ZeNmAQtqGq6/8APf8A+cdlLF8mXxWHcmTbiGkkYLw32f6kNMqbJFf/AN4IjXKj5hP/AI/0KRc6bln+lRYcRfsRjPAxHFwvj+iIw/mUt9Yj7itPJC8J9zsmK4HUACvbk4zxtJKE11lkOMPuVjaES3jlpXlkPBUjHAkxxSIWCuaRKFEcy9muBEeRsyuyJFteMtv9vsJILv44/pZY+bYeNltCDzeoT9LsXznUpSf9hGkBDUp3eeBKJIIpVsSvIkWVImKbv+IQ/qGh2bC3P/51vc+j4LqImOk+EY8hIz7MspThj7IW3clJSp/cRIQklhKiRFPFx/J7r/wSGmltY/8ATSbpuW/f5gUlkWSXA1u/Lo+7RKWCFTzm2Bsmm1hr/EVXSGcr8ngnzPzBLmeQfw6zsk/QrqVykkn7jgeymtfeC32yST+wmr3CxPvA0moZzpiUv8FJBFklwLQBISK85/8A6lKcMjRLmFIn0RIZkR7BCqRHRghf/BQJIIJIJYmjNJ1ynHLZX4R/j2iieYov+X/4OQww5xx5ciyaWj2TvBB37CBXQ9RP/HqKGUwdRN9o1ZIa2AngZAhkCaMmAMfyQwUmgiceaBPmDW8MoonwspGiTFeySf8AyjlhNJAo/EIs/wAcuf8AOL/kUTv8J/6Cf+gn/ooh/nE/89WBM5rBpMf/ANAwFEls80EE1lFFEdc8sd8dNMssscdNNNtMIo4XdOvH0Ppdj85P4IsDgECBT0S+qzciSEuBIj4yWMKPDHMvhBFyC9qSWThDhuhFg8waqTzHNvZyTOZMVfMPOw3Jr7CTPBdZoZ4h+CeEkcITR0PtJ/qJc35NFArY0XdTCUlPEXXQ5G8GDMlyS2IlVDgQJ2mWBxGqWsjtqhfQPjGxj8UTf4ytEqifhiTCwcYRPg/BPQ2X6Jekfav4HjCPB+C+kR0Qe7f6F6XY/S/wWkg6uRUi4qKmVHg5Li0eRO5sZUkYnRoUkh0EWeOGqxb3A1mXY2XDXAcdKEWVy7Mok1xOwaBeAblWkWsu0F9x0TCRyc2TG/cflliYTdh3N/8AgrV4OE0jOSVFkWCwXvgls2eBZ2sHnATAgbtkiRjHRCyJkobo2XLl/gwNqKGSMQvhA0NdCGWKCuPQb+hel2PfaFuopSVg2oiTPxQn4HsYGRycZl8FS7Ah/wCCvk+EIa//AAVioMeLJdEGRoFBksQKITMjuE2x2xw8jJj9hwvg7AuBMef/AEOf7ANEpuw2KMkPuuB1EISBwiKyb/BJdloaLypFhbgRo1lFrVCZkdGCRMTqv/gbpcgSGhoSEMgQVtKtIqPab+hel2Lx6QKy+4QyiQk9CToSghkEEC3FIIOBgZHIokVVZaa5MCwqTNlvgaxMCUpVjhDm4kGi0jSJvCM2kyeZG41OzFjFwOPI2gDWkuGPwNbpxIDbkTLuWb4HCacEXsMugZbmxGbaRIrLs4nhibMRozUt2XLttDt8mZG3hiYxI6IXxbJpeacUuKhAqapqgoisoggQj3m/oXrdiH1rChlkMARTRBS+cnJVjg20VBbQiSMi1YQyLJiNDxuOgEEBlInIszzPsObWHJMsgXIk8foZyVrLHgf4HpY9TGWmjLUyfBNHJLl39jkMG1yPkTLD/BDFxZp/gYzyIt38JLNo8CTKzfgR3DQ+5PyIkQRHZmoyU07iyK5K2TPJNibEolSJojRImNlixwJoYkIoFRTJBYEhQQEIIvREVR67f0L0uw7P/wCikdzonLIXc8ztpXc8xdxAu55E+WJQl2J3RNZyNdkuREsnkJYyQCQQYe4aPkRaSF1HhFMT1OlEwwPFCWg6Qn5SFpHTI+B1zqm9By4UhzBfxFrmhGHj+DqluInTFwIM8C3EB2wgskgmVwa7Is98LmDOnYyOhHjJFZIfQh8TR5o80N2iW0NHAegLSO+hBqixes6aZaBjewPYFsHZq67xZcn+z+h9LsK1EGMl+ZYhHeXoUjnZclidJglFKwSO4ZFmJvY2PNw8BnIkS2T2T2JxPY7BZHcdjE22d47RbHabhIIyN3DsdIiS2JbCbY8gm3PNnkIbENsjtkYyOxi2MgIiOxKdx2HcPfTkIRfDHn+KbzTTn5ETwCDwi6x9ZLo60dA6UdCNKRuQltARH/q6k0Z0o/6/Q+l2Pxf+HFRpYu1UMvk920bVDiXLoQicQcw8LM2EOaeCLNmWRMgJQkqSKBBkRDQEpExBAThOOaCSG6JDhmiXRciXCSqrsQfNKQeBGCpdxcGCVySciXZ2UD2CTY02LcQ2RIENjTZ50+Q4F/J5F3JLYnsT2PIeRN8ibbpJbZ3DtDkj/wDc/ofW7H6P+CSEgY0MhKCBIuosqoMKyi0WBhBIMwjExfmOivPLE5JrCHv6Eolj24Q2dkJAYoDdMfwJA2A4XAkWC1gl4E5aIM1ZIhmRzjUF7eiEXLDCfNDMVmB6mw1Cs0U2yyxt2uJtvNLgGV5YxD7hLZLyOnoE5aopk9EhNIngkmTJ1hBPZIlsbiKRMkSJCcTMmTJEx59a7+h97sYvX+UEq8/BOk0RyPHxltbhQM7NDkWyoBTyP5PRsQeUNI3wSM1QUxLWCdgUGsdBYwK4GImEqBm0BkshqFiSYEZWJGCFguYH0Jkxa4IxQUdi7JFERdhrVxf5mS/RD4GhNDfEDuOAgSTEQKypBAgkQQQNMSIIIEiDAVBBDwoQgkK8RSPSu/ofW7H68exahhLUciqxVWTCrMQzlzOaIr8Ew2JpNjMbk+rYlpyHJ/obtCHY2ybmNNU8IooCMUcFRgwSdkJFDga+BZwKyGVBrDFjFkv4IUjti60JbPKLkTX40PESNGuHdYlkNjXGtVJJJNDzR5OBOhCEqI4oVFQkoVCyJY9Nt/Q+l2P15jSz+AVEM4EMWRKTOmQhsPfAroMGOTQWiERI7bC47LxJRQ3L0jQJuJcvCidKhYWmLlgawk2ITYgZnehmZGMtUpek5ILXQTJyj/oBnKgTN8WBjJGtlrSwIKCvIgS4tqIgTY1RCpBBFCQlcSoiiBKhUEEhsWMwPbbf0Ppdj9WNWL6hYEvgqZUkijKr5dwoEqBNO4QbJwIs5bLndI6x+C+2O4kggswO2xBfwXSwLYLYaGiPAdoci6GbjaLqVnJHRCB2Q7D8C9FwaguQpsQ2GGQRJESQMApqX+BPYozcz5Hfa4rZkvIkdmZgQJECQ1TgSoxKciRFCCEUQNCEEXOwkJEWGJY9/t/Q+l2H/G/hmJROmYhUYvgLNU9y6leWE8EFgWFh5I7oeEG4YnkaSGnwZQhGrksmX8ErEILECWEh0FuNIHIZuGyGmIlUimJGi4Xi4ILkoIS6OliyQ7MfdyJQeZuQ3eOKZUwJEVgSkSJCEECEQZCwQQRNCCOjkgSw8ECCx7d39D63YX8L+UFpLgo5EKpUVDAzHcsF4UMtUUNg3J0Bz4GLtQbguQKapYSEtGh0qwwgUMUQJ2ihqWXsyEY6EvgsVE1PA3cEuS0W4+SQ2DdwTMFwcC1XRg7VkpHDBa4IkaYk4ligxFVDVhCHNCRRISIEmLelh/DgWR4ENWq93t/Q+l2P1/8APiWyUQqlRCz8Es0oEqRUM85IWVQ44o2kxmwkM5nNKxoc+S0S1AjVROhhFoqLQkfgS2JGb0Q4QjBEd4ucCRbk4kMIUsRYgiXkS52NaobcC3FoSoiCELBgIoLqIEhIi4kIgeDikECyO4ljgdHo9v6H0ux+v/lK4K3whUQ/g5M6sjAmJxszByGA6SE23cegbwS2ZEh6U4jIcB3vA61RqCdckojoJRgZpUm0xVNCELJD2xxk+xkOlDGlOhyZEwx3WBXZI4IlpNgViDdycWFKcOxgLFEQdB4wJXEHgSCUUfxKILUWBCCCBGBFhqj3e39D63Y8L/kMicA3KTLGI5sCfTOg6DoJODrED0ELA2cDkyOwK1SSBIiJDFzQlIcV1IbZC3B7hbyEXkQ8yaryNbDOAk2sCtwyejlC2HKEHkt7H5CtwIyFuSrDMtUXJCJuhuhkEvA+gjjAyMh4KvdVq5CuJMWbXGZGCJPpJLEg5O5bAR7EoyIewkxDgQJbEBYwfYvsQ9CvyEuIH4EZjiiOwvAr0R0zwIqQjJHq9v6G3sx/cewMEgdNCkVOgJuLxPAR+0ZUxUoNDbPgu2E615vbktwi2NrAv4UuhFQKnYRqyU2ghsJITYXcTwkUOSeLMcjaydxHlkiyhbxLeRSh7RbBhYydyO5fknd4PAeA8BCwhu4X5J60IA1kjkhQHBBwCUCfzB0QmVwQWlHj/ItKOhfket+Tq/ki4fk0vyHo/I6UMPCLpFLweIvzYSHeDWkaQncIiuKx0nUWhFYReI6POv6v6H0Ox+MGENTrJkbLBBcJJbrKij2IIg6FCR3klBUFjE+yYghnQgkOgqKQjUkYEEJeS4IwPELYhJoPuq0lIdESJ9ol6I7IDV6PL9UPNEUPwLkPI86Gh9h6t8Ru5RAcRPtE9jZclyJGA6DzJbLeSQlv4T2HmSjJ5j0PW39D6HY/EDOrRDeFSUWP4ggxkkYEzEECWIFkiHt07oiRIQK2lmdCtid7F2Y2Q2LRiwcHB5nT4NTG5MgwN0Ny3kRfQ8KqbQmwNQSnkMwidiT6Fm4cOLplFL5flsvsvsuJtDYmmENifR9jKI+Yd1Z7Ey/ofQ7H4sXEJKHBKhBFDC6HhVXwKZBEhgSVx4ZuZJh1J6LSImBMHQJRIokmyCZkOwutgVJlo7iIeRzAlJAeRORJG8YGQOTsNhC4tg22OYigdw6MMu5L2RNsZUsNcwJZmJV7EuWSNTHgk3pO2I4EiGRWRekVgSGrDyIgQgRSKEqErDRcFS9e7+h9DsfrSEjFjoQvSwiSaJ0TE1IywhJEhbcJCg6MhCIcqAj7ogQpJkIfiBCUeFSgF+kllly1xqyoxyHcS1QZN0TyE2SJhikIISTGbEwlYnEsQT9gYsoLYMUybdnBhFmiDaRmx0U0xCbkiZKGEx1TJUDE2GyRE0kmRDklCdhYoYb1eX9D7HY/Uk3GEwyZ5HNE7Vkkn4kjmIZDS2uSLpFgyiRQTTlComBAtAV8jCDuzKZGhaGlUrjOA2YTbughMmZJMSNQE4wXKSBDQi08Ef2kgM27YEM1wJrpwNIzajEIB0Q9gSLIq4wK1zMaysXJeh1XIySRqjmrHuYVZHwMVJpJmcjwKioWT3e39D7HY/RizRiZhfgvjBkOkDFaYLc1hTkSjN0TISHNzB+WBlETDEopSCMCpomxSSuYqySJE4IQmVAmZEaBInDFzEvRsISkfjSXYTWCJLKBsmEsQkKXZZIvsIPLRIjTILBxmT0DgROSbY1Y5plSRBekGVXAqLNGpEHAqQLNJEcHAxye32/ofQ7H6MWRrijAUPPxVUKg7MfQycici+a3OLkYlvkSicjJyIQhcDykiOPYtixxNkWpPYQucK5FuGkMzi1QwWUKa8wyjVIy0MBLEbCe5aVMepBbaiLgUKaXgs0EzAupONGRSduLcmJaCdKU7ibbZzXIxUQxDMxDwLAxUwHXgyIFROmCaHT2u39D6nalsqNxyoWM4pNEvgsizKk2WcHIEsSRLN5HmqhIG9kDeBMOGkauoxak8uC0SfAmTAcHbZjdO4jzRtMsWgaD0Ni7gUHgwIRAtNyEhjeWpRYvYWdQ7IQre7EGERKxdMQwnYmA9ttDFajrYrNVij0HRiwJCtVBxQxfA2YFdEWOT2e39D6HYb8MWRwhsjTz+ckidzgFMApG02GXcizwINmxH2MLAWgbQRQsolGLeSzcegiSEUiYxU8B/APBM4YmBsleEJWooBsNCGloUKJJkCBckhiRR9jDwKO4jRXWToY4OJGQA0OEJkjpmOUZ+CX+E6Kwr/Bx8SzRjwPY4o9rt/Q+h2P0PwjKXhfmvRZMDIgS2T3QaTsQYTZZyQi0WJY8NSkxc4DDFhDqFrQ9xsKacn6GWRM70GogwjpI0zZLxYxMQNSLlCM4CyMQmBcAyiUhrwPQXkZ6UiyI5FTTbRsykVORjjFCf/wLOKNYbuck2okSqIvR4ETRI8np9v6H2Ox+nOKTKtQzq8U4ozgVdwSTLQcoWW3EFiMWTJoEzITC3jkXCtSJLAfMsGQk7xWWEorKElQyCsRGkNGMhv0jXG5YwwnmXGNcjgiVi5VJORqYmgX0xqUWDrbhkblsCIHmrikyEMXwEURHw5ohn2rdULFGep2/ofQ7fC1dTNTQkmrg4FR1k7nIHvAk4DXajkRMDT6YM6GQSGPAjFiRgQjWUWNGAmNcTDGsClIckWSSBpsSuaImYQY0jikKGhS4L5bgSSKTMF7FYXKR2Ds7ERjrIJoBJ2wKimI+BHLGEHAtI9Q4MfoTQXiJGDoYhdJ1i2BnkPWzoZ3jrZ3iPmd82J2RS5HcNodwuZmxOC5yzERAd0cuRFqP939D6nYwDiIc4KxeRB4Kj0fFUVakaI1CersTVxhh8sOMU3wQTLMtrJiC31UBQhQ4dGhmEoQQSxpdRI5GRx5GuRxG2IjInchBEO4cw6h1yNnkVkYigoLsRMW/Ym2NmTaxqn9hqcx+han4HrX4Opfg9iF/6hAwOr8BBCPhUnhH00UGhAPlSHOa4LHAzo7qF2h7EQaOhCEieA8J4zxHUjwn2EaI9iZf0Pq9hmb2VCEmKhIENCoKOiBGhIOgWQtobCKQkRZ0oekRWsMHUhw0IjgSjAL0aCRF4Ii4Qk0haDoFoRBPggJVwMSIh0JToPAeESuCAlEIvIkej7KH2/ZFaNjNLPI8hoGg/sPIt5PL9nq422/yN5y/yNtk+ifX5G+l+TyHkGD7hu3SdDbnyNuzqZ0MXaLUzqY9bPOdDLGGPvEM+zynZOtnQyzyd7EjkmLj+7+h9DsfjR5DGZKYay3kTnJKcktncWsncdxezSS2SsliwXOJ2RvGRu0j3DYyJMk2GJexL3RvcJ/Py452M7iDk7PhIpeThPNR2JcQhMtNulglwxFkW6KgzjvCbyL4N6SZlQeQrD7Rlj5E+ye6g2yS6jmRSXovUUxnH5RaCtEI6H1IvZu/ofQ7H6L5QrpcjQ8jkydoiBHwhLY7Yr0TclhODIYmJSSIoUXcNKUTEzDnWELnCjwS8HiJFwdJFcCVwQqctwhvIxYL7E5Dl0pDyT5EhdiG0juoW0PTEofslJKKsi4JO422S9k0SX4JcDWF5GEFkhDSIIUiosQFAktjSEkiQ2hkMhIShNEoTQ2NoSQMQo93t/Q+h2HjwhkltCbJMJBGZRi7JOiwIK8vGsQROjAVpYKl0rEw75FNoJYsXhjRcMhJocVg04LBDRhNzkOThCGTYlQkuZyJBwZYzAgPJkw0nTyJZNqLSUUWfRzFkOXwDYhYHZQtDjXJsSSS6JJuIwSJk2GYJFRUVHj4JH9vl/Q+12IpdCQYy0O8jyVmizRcpJBMFosZnTcwjBk3ELUgFRKpCsJI0bHoNDM4dGS30HgfUkjY3QvEhNzyEJLyQPNFNqbxDOtIeLlxeQySGEpsZMsgNBZPxYndliUTUQbJEywNaJk1mqRZHRCxVYiRE1YVHDp7Hb+h9bsS8IN5EzIhkREiRUFpEokGMTAc2SHoaFzLVBARFkiDdI2FsaY/IK1siQvaFqyHlHySMdzQxzbFceESbuYQ1hmZLGRqhYrrRczTVoszTawzCeBIyhj8V8JHU6uYjksNfAsDyKjFR0bFVHNOKK1Mj1O39D7XYh8AsipIJQiMCXsIHcQJUaEh2F7EYzYQhQKKNg7kpFlxYddkTbbENyqHdrw0ayyDGO+CJE417UNNsuCeontkeGR7qokLDQhoRHljfIphku5DYExcXodg/wCGjqiBDwMucfJiFTmkIwMKIWB0TcjbHAxDtRCyMWKc1ej2/ofa7CT4QhycqTYEhdxAqMWCTMUUgPJcXBjFyRRnEu8mMmMMc0J4JXxptCFhwXD8USEoQvJkxzRx3EtWJRRc4oMTNFgtB9CHsXXAj3pJtShaPCcL5JnFc0PKQs0wTTUQeaKqcjycDFRUKgqLI6PV7f0Ptdh/woSxBzFtWGrjijY2S6k2SILV/gluEIIVhxhIx9gddoOw90XAmritIFvgwARlMRw2Zd0WXkQPIaXJxBwmL/JLkbEiCIHBIvAixIuiwSZDuJlctiViKSIgi5xXMxRycfDIYbvSCDIhqjsJ0QrGVHAsmQxD1O39D7XYv8CjkyMaKFjP4QiEJEUZOZN6cVaKpZlMy5CyBZl0JWMMMSkoVhE2IOBDgTSpTCBwhvNyA6GJExkJyqEbiBqXF8Boy+KDNeTAcnBN6tcVxq5yc0KwmhizRgZQqLNHHxPc7f0Pvdj9EY0NcwLaZIGRFyKMCbiJQmqWVTiNYO9ExZHsjBSMxYcY4xGBJKY0DSKY4CXJDgdlBLYsuo5U4IdB7sYlmBJOkDouxnIqsBio4+Cz8CzSBIV0MVOKzOKqYHJ7Hb+h97sfrjASgoQdNlXAkkQvibDTRyFQW0jEOBxGlDKSMlyJBmPCLQrKTiOleLbHqYGnzQuU7ohtXEoomaq3i1RoclCQ9Q5MMsYZ1sW8Tci1kdotUKbBTYSSlHQInSXxIVVJGuM8It53FjI9otqJbI3ehByXCydh3kRFRiD/AO9/Q+12P01JfKazq7kCBBItSSiGiBZFjrrLWJaNIsrDbWEybE4DmdjtDHBpC1i1sl4Z2iRgQwNeizwO8DJPR6JOhoXeKcDFwLUPwEroHSjoDfCNISbg6E0HCIGBHwOhEHCOsJHAWsaQnQLUjoQ+sauEOna4oGDpUaGpBYqzJnQMjrhORD5PH9X9D73YwfgOpEsBOw3uglQD0D0kxPo8BPolonovBmQkwhBHRE8DYCV4EqyhorU0QECjECOsJQHCXxtWDooqgIRYaQusvcDXCB+BPUexD3I7Br5GtZQ9ypugNdB9J0DxEHAwDBg2DbdFs0ncShIydowPadh3jfydh2D2E/I94xkpJyWSFNEsdxSXL0gQdBWEjse02/ofV7FpuJAwfZJQqCLglQ0chiChOhNAjdGkKB7zso08h8oSEhT5IJXYyOuAS8BrS2BoGlHKQwNpDdugMHaHvZ5h9o+0l5Z2se5jgO87mPYJ+QiriWyV2Y4yQFvJHZ3UiUdg5sjmyQ2NdkCJMyCCHR4ERcYhQZEdGRFyKH0PCsqCjTASWjwI6ESi92/ofU7CEqVYkk5GmxAlMGRsEn5fkNsk3cmxZVbbyeM2RFgeGUGeRTZJsck3GrY1YJnaGiXwRtk7qVMs4HzH8LjBAd4kVITLVCcW+jjjvpyHZX8x/BLCuLpMSSSTQmPFUjdySyhhCJiIwFSkkTGHn27v6H2uwyPoTYkJoKbghnYzEuPIjFEawhCBIg1QkIsQYCZET0zoM0IddlIkIk8CoZbkgN3GgoFwgF5iLglL1xtmQN3oznObmrXS8CDuFUPBWM7HfS6vIZdCyOoRZYcyN2JrIZPZzSSb0uL4L4lat6Tb+h9jsTK6Q5PQ99DiEjUm6IbQ2vgXcNMUTBImTYuLFDEGp/JmXUSErVLYxbwsIvDXHlwOmCWyGWYkjuGijuLLDcRWk3mBYuYs0i1yQOC5ZLOabIGbf3H2rplsQpcZCoVOaOiMDI5kewzFg5rLxS6LzSBZFR04EZDGo/ge52/ofe7H4BDWJE6fMfmMLI3FEsuXEhECiKGIXDAypiJLljKkSrgezUfA5lTfdhki03HawYUjsYE2FAmElO3knsT7MYFHkfgxXyxJxRYecDbuz7EqCUCz8jHRwIZkMjgfxunAqzUqqkUYq/q9v6H1uw0eANYVbFj3GFGkO3yJ1GIcwwohjuTOLD04zHPgRC2iF/KbDKwSWOULrMbhQYC0LA3YQtQ7RlBB3jLou8dNJZavItEwosK+Hk5MhmBhTgwF9IILkDHFHijmkShKKoiqakxZp6Hb+h97sfpIvQi9FLjJiWGqMYYmibiLmJCG3NGUo/gcYRkwlN7juhb1T+sQyGqIaGLLwITkW6JQ0IaHSpDGGyR03QhBai9p2RMPAlzIIwFSBZp4GqyZIZfBAxHAx4MKrAx0QvgWaIyOD0+39D73Y/UGIsiVLKZhbDz8ILliBuBE0hKY7MlvcyRlMPbGYmEla2uMCDRMLMGhftpm5IM0mcyLoQNwuNzIatNHJNGRFHYkka4zExXRmJejPyLnjAQzUxETTmlmQ8URmqUrfEhDEpQg/i6IWROxNqkI4PR7f0Pvdj8AMULPwihbC0YICDzLBlrLYZjYb6JBcpfRIxMLH6IkymQQrlHPJ4M5DJSIftYHSNBE2F6U7F9jJqJrs6Tcm5KGTQhjRBAlCEWRXFP3CVb0NWgUtYVKQuasYsjxXAcTinNGIRAhDyclqcC7JpyKiRYIr6Xb+h97sYnSMVRFKh7yFhckIr7uSAxJcZAkJKiE/WgwMO6QXPri8nlA+ENiTAYyfdJvyXsgSkzkGiwXxlq4xjpJI1jil5Hwt+xGroyEwLSwEL4kcVx/I6F8IMUaIoTaJ6JThjNMTaZNwzoZ1Mc2GdZKXu39D7XY/gHsrkI7Kp3paRHEZJJ8HgKEYCqToXVURAlL3D3IvEi5xFgyJMLl7ZCFaCyQR3FLcY+wzdMzIPki1mLwaA1CRaDUDo6QhBIQSpBlTcLjWKSAS47EXMMcIW8dgl5ndE7kd4T+YysjqZ1sg7MV4dEje4ZsQKLzQTOTsFvpe03B7BL5o+A8Il6JXhEmiHR4iPR4x9AuHx/d/Q+t2LHdKcFakbnyTMyzLk0SeNA3YbuZj2HxRnQeHSTWxwJC+t575G0ZHl8sdbSrTTIhYDtIsl9w3MnQQ2sCacMbOVM2cDFYZeDrE/gTVQkEpsUkamFzD6BdVy42ZkCYdZuBI4R1iLCHgI+EdSI+ELqPCeAs0SmjtQuBiVyQ2NNkNjupbj4qPhJaHWJ8Q95PzVGe1jpUjyEs9Jt/Q+92HOzwHaJwmIqExY8l2BfWIVBieDSOgSGOkmIcWXIiDj2cCOxz31wJLQMfIFQJZY28jlyLebI7zRp4gLQjpEvwJ0F1VsgbHhqq20ugYoWPYd1CLsiqJD4GMebjbQ3DaCRCRyzzjcWuTsZ2DsY3sMJ2LuS5DIIIpdkMkQxJjTkSZDoQh1GJfATIPVu/ofU7EvSCEIkXKIWUWkgiCrRAlRthL4IaPspS8iMFgcJmTn1lu1hKwhzGQTJuSJk7x9jzHaS2OhPYxMbtUT2yTobEydEiQmJZchipFL0gkJMlIodCsRoSCI1CFmxuCaDwT8I+SQ7UgSIRYlEiaLVQ8+3d/Q+p2LVPEyyRGJQpJQ7xMEeiR9DxF0Jk9kyTGyG5MYri0TBOiejeBLkFj7ECoQJHJHRBBFyKQR8JJEkkSNFmRJmiTgm4EhOEZoyqfcevsx+xQOmnmSO0eVDYmNyYnCZpCY7DAlzQ7hCR2CcokmhsklifwuIvSRM9Dt/Q+x2G3NDzJEhkKDwMI5bEySRUUsSeCf4E3mKqWwicMV8JiGwb0QK9gsiYyYFFpodk/AwxAkR0DRZQ2HAkQkiEWHRs8iFB/EzgSuBC5CgsTQIpwahG6R0OejZJD+wHRZuQxzGUcGULgOCB8GdSzgQbYwzJE7lqJ2FSaqjMDiqaPAhHIqcHBzX2u39D6HYV/aECRAlglAW2i4EfhEgHQT4F9xAzK5OJITGKVBrZUUxnqXzAFy4EpQKILgceJoRLhQtIaA9BxEagkpsIwR0ouEjDZJEbN5E2xmVEmsnpiAPoh0rJai/tKR8yQiJJDuRBik1yhUPyhKToRNG0q6GxcubjiTJxAlhqxAsmKgvgxURxVwRz8EciqWDmvtdv6H0OwrwKdRCTwIzEKXMdJqJpRJJKzhECQmuWRynWRasoklmJIIkJdw/3bGR3+WzmHYONHaGRMrnNhOVehRxi4NPJI5uiUtkEpyWeR9DGJNDGHcNyTGRuR6UsLIhCIFk4GLhWRCiI2KznXonErPR0Id1Njk4vYTgDXjUkjdKRq4lcyXymLNXFDOKLNIqhc0LA8jEex2/ofQ7DR4JNyb1EySX0XLhAoR+UsspgvmLORzENQgUEUmGoWBLG5EtESMIGFxlHs8lUNj2HehYMgaYzEgjYGwCo6SNmaJodw7wJA8siVEjgcvE2ETBplrG2k6ssrC6O7LIrrob+C1Jk2nCaY6TThrhmfxW6Ilew8r8I/kXy5IGqmLqOaLJ7nb+h9DsWfoS5EISPNaIFvzZWQ2WMvKsjBSOECFSRNCSTIsDuJ8DdE2WhG/EmHvNJ0XwHkkPCFyG7ZGlHAkiPA7KGiG6BYQXME4miDG7kqjSISQ8jgsQOC7J1zkCWoh4ODkgZaHqsOGHESEOaJsdOD5HZlce/lCPFzckY24gZBGw0MSXncbYa9F4VHUqMVIFRHNHkgi40Y0dOT3e39D7HYXkyhCckJyeZI7Zicp+ocMpOjItUXCQ1vP8AA4s/wZ38j2fwJFxot7OoUj6Jr/RkwvJFyf8A8BJJY6n/AARv8UCPkOSIIsMSh2CaJrob3UMaJ3f4G4hsrxYDmv8ABG/8HP8A6G27/otVxOS0ZLECJsRbxkRlxBDH4qQ4WTPITY8jyPI2BBDI2F00CSURhT2bGUpCMsh+byhOxV0JSschWKnuwpxtCHDb8C8TNXZHIg7MDM+raLRkcbLFtijZYs+SFsUbLbPI8hRGSBYcTkUFtjiCGxNbHIW2KNnu9v6G8oUq8NQICQKy+InEURwqG7Pq8EDn70Y8euj03+D9B/w9B/h7z/Bu9H8E0Oeuh5b1eBsz7vA3593gbvR/DCejwJKhe7weq/wz3u8Df6P4NufR4PUf4JTlejwZJeuiPCvWj33+Hov8PTf4e6/w9N/h7T/D1H+HqP8AD2H+HoP8G32fw9J/hlPd4MlPiVrALcA9DlqAZQokshghe2/w9t/h67/D33+Hrv8AD1X+CT7v4JOPV4FkJeuhtcv0eD2n+HsP8Paf4Yb0eD0n+Htv8Paf4eu/w9t/0YG+ujCerwJXo/g/Yf8ABKaeL1wfuq/8fpoQYiEAYRjHOMIQhCEJdmuspiORLSf/AMAf/9oADAMBAAIAAwAAABDzzzzzzzzzzzzzzzzzzzzzzzzzzzzzzzzzzzzzzzzzzzzzzzzzzzzzzzzzzzzzzzzzzzzzzzzzzzzzzzzzzzzzzzzzzzzzzzzzzzzzzzzzzzzzzzzzzzzzzzzzzzzzzDTzjzjTTjjDjDTiDTjTzDDTjTzjTjzizizzDTTyxzDTTDzzzzzzzzzzzzzyxSyxACQyxgDwSyyRBAhizDiRDTTjwDBBzjiTTyiCxQRwjxTzzzzzzzzzzzzzywwxzxyxwwywxwxyzwxzzyzzxyyxzzyzwwzwzxwzwzzxzzzzzzzzzzzzzzzzzzzzzzzzzzzzzzzzzzzzzzzzzzzzzzzzzzzzzzzzzzzzzzzzzzzzzzzzzzzzzzzzzzzzzzzzzzzzzzzzzzzzzzzzzzzzzzzzzzzzzzzzzzzzzzzzzzzzzzzzzzzzzzzzzzzzzzzzzzzzzzzzzzzzzzzzzzzzzzzzzzzzzzzzzzzzzzzzzzzzzzzzzzzzzzzzzzzzzzzzzzzzzzzzzzzzzzzzzzzzzzzzzzzzzzzzzzzzzzzzzzzzzzzzzzzzzzzzzzzzzzzzzzzzzzzzzzzzzzzzzzzzzzzzzzzzzzzzzzzzjjjjDjTzzzTTzzzzzzzzzzzzzzzzzzzzzzzzzzzzzzzzzzzzzzzzzzzzzzzzxQiiyABwyTzAzjjzzzzzzzzzzzzzzzzzzzzzzzzzzzzzzzzzzzzzzzzzzzzyxhxSiijARAAwyRjzzzzzzzzzzzzzzzzzzzzzzzzzzzzzzzzzzzzzzzzzzzzzzzzzzzzzzzzzzzzzzzzzzzzzzzzzzzzzzzzzzzzzzzzzzzzzzzzzzzzzzzyhjwyGhqQ9Pw3QQgzEMz4dJKgeW27u4kly/OXcAYmPyWG5Z+GYF+LfzzzzzzzwLjjfrKbGHaHj2HwHlL/yNJ5oTNuYeO3ExrF25B3bcrCRRGlnqePTzzzzzzzh7w9uY3nuWDYf7zUTrsuOQup5V6Ne2Nq5gzIee0ME5Xu3b5AGgL/fzzzzzzzwap/uEvcx4ajVOLUdO3EW5+UG7W0kHRYubrMMsWllzGl/fUfOVeXTzzzzzzyjZkzKNKR9T+XjTrSu7QdsEfg9fjb6GX+ax3xgQNc6aaL3VRjE6IBXzzzzzzyj40rAroESuEn9Nha4YGVVFwHscJz9KaSE2WUyvBM7warDqId7+DdfzzzzzzzieiuW/bzEN635HgyjBnwBLigLfQlZ+XQlekhj3mCqss1Pz8XrkAHTzzzzzzyimgOU1iD1bvRMQG+DqjBaG13zzxYXDUn+xmuHXWM1J9Z8l4SFs/fXzzzzzzyhjDv2FhDuuLUQiKoeRtXDq2yK7bzeieqc8AmdHYKScb+ySvdgPXVXzzzzzzyxrYJJVIhMRVlR/BGqVRVJbUkhnM/8UwAiId+RtF+d+SF6dot+c2dXzzzzzzyjl5GueglHW1ZeJ7gIpmvFp4kB74FWcrjiHTARprL3S0Rb6Yhh7V//AM888888oOdYwCuhgvg4Q6QwzmY09kuN2LbCgu9c5gFFx857Y34vSgX0xl5+c8888888odNf7Id093+WlZInaLa35zhUw61FRBqctIJmiqx4xOSfD1SP6+8p/wDPPPPPPKPNca1suVyve5IuHR+wz5aIVv7pdwHWkohOAW/p7I+OhyPp4gEyz9/PPPPPPKLEHZyJoSqGz7c0QLYqH8LaTeE1Dxt7E7Ep/Ve05H35C9cM1SoZ4/8AzzzzzzygCouY/wAJYJ5ICET9bunwHCI0Xrs/5dZx+xopjQk7mAmj/mqxqPpfe8888888oR99fSCoG31iGonw/C9OHk9UtgajX0yp+62CIvPGafw5cm/GTmez18888888oMD2bxco+hbInKTEVNM1RAWhhpA6XOY8yrratyRBqm5ohVXjRoOWe8888888oY1AHtkug1aCAVWXUboClPHjWSX4IiHorQ6Ah7jmlcbMzfs8iWmZ/wDPPPPPPPV+OlMyGYMtXrNcJHIiUocR7pSELDuscEu15kY8fcwuQ54lhiUB9l/PPPPPPPCVxdexAmxKZbvtWO8dsPI19B+PKZ/Vi3A60vWIr+4f59yyjIOp7FvPPPPPPPEWlSOouPlUas39mABrIDFmuMBpG9OQ7/V+0iIGbwYPUIJhLFtK7/vPPPPPPPM5xxZNYCmWIVECoSMvSMvn8i31ivfLPcFZ2GAfrUSL7Vgvr/Xc31fPPPPPPOCWE2egz88RZlFt5Kf3aVRhNJXcwJ9z+ZstsP7617mgba3+ZQC4uvvPPPPPPKBzMak8NveYdoIwKhUnmHhuSJdZiueM6o71xz0U3ImIS7pOXxmcpNvPPPPPPLHNPXOQ2ATI4yTmx6JezthHRjVF0Zm83f8ArGnUsiGSO1l75re9vvrfzzzzzzzy8MU43nX2G2zyR/VtETW0x7egLnIpya9mQ2m3ao3wO9WlDjCJQlffzzzzzzzy3ThZdLd02ADsvmUS7/kd60gsWwE54zoT/t1siNiE01yN/nXQzxJfzzzzzzz0D7C21A9jUxjAy6HfipKmmlf5nTBhO/7Z/wD2QaCi3CS6VsqBZL7k988888889hxZ7zv2ZEJt550JaFeVKJEPGarpBRM7N0EytsW4EZvCqqLF1aubc8888888rwf9O0Qj49Flz/cTDu/JQC0xXvaivcXGoFx3NruNE5KsJ6zTwDOff8888888o3sbsPwnNH7tY2N8bK5epyLXcVoy/h9Zhas3VLaykVvjqI+tVZRbW8888888o0hoPxpykmP5tYJXww+E/wBzq+xhj8Pj60K2nikVa4HX7gHFT1TN1tvPPPPPPKPfse86rb3z20Z0NySczX/4HuN7qUez2CUbSPfr8xdT7fRZIRdq7nPPPPPPPPDvrr/7bbTbj/7X7/z3nv7zvvnrzXXbTffXbXTT73rjLLDHXLHHPX/PPP/EACIRAQEBAAMAAwEBAAMBAAAAAAEAERAhMSAwQWFRcYGQ8P/aAAgBAwEBPxD/ANTTXZwA2YLwxYs2IFmzZjgswJ4LNmCwlmC39LN/aSWYQkHwGfBYfF8SCyJhFGOfUMcHXwY53g92DkYLxiEnsm3Y9XZChb289TuSdxw8fsMwWZbLbxhvJzAXv9Vsey5bbHbltvwHWdWyw8dtbWRIlt4HOR7hZYxx1xtvGa8DNpZh3PXBev0/7X7PUG2cFse23t1wM58M3hlnA4ks5w42eBy/Fu1ydICwsOA+Hv8AT1n7Z8gOnDHBmr84DOBvkzbexxbtTcTnlssyLJbRw1e5LWB5G7R8QHIGP6fNkNIM4bOM573hZP2GXu0YAgQZEF51BZswI2BsodnUHbuG7nDOMLF5FvGEETEMcf0+Z9vPG8PBfsT7wsulknd4Q04OnsOzPXLbg2kTGOpkSSTLzL8DyzkzjIEET0+nxPt54OHyOThn2BL3Z3bhHrhhgyMlnGbLLNl2TblfhA2DDkDILUFnyHp9VvPBw8McMyxezBrYEOAY+DNeCdQmywni28PF0cZZHSDOPXGfH0+nxPtuWsMTbW1HcOWztWYu8hzu6YUubPeHV9lTNcy26MsUDGye12d25xHXmPgvNn/b+nAl/b+k9b9Pif8AbGxsbuy7jvhhn26hLrba3nlkYB/yRsRgUMcCuHe5ay0Q/kdS35sJMbC1kUK3aWUJ8YALgCMfpHVm2WQE8CQdzEzggh7LjbsiSATi3SVWCbOflrdN0bCE2CBnVjC2tuW9ykMgMiDx6TZkGliDuwsJL0+kQ57jjIOAOIepAxs+7usZ4sDqU4hVj27zZbwuvAExX+lqwnYvUMj1MDD5JHAd8pscf0v6Bb1kCIxBJ/ktOLpHULYSPbexCeM4EW7Pby2sEBLox5sobeLwh4PfgOS78c49vpGwfy3jbbbefFhBHgWM9g4WDYeIgwCCXqMEDYI4XrixvA46GRYjDbz3HdtpFs3t9Q7suuGOBxs+d2anp1z9gl0J8IQgv6tJhHeFvxXmweDwHzjnB7PHLSCWOANwY+IHRZcCFJ9PRwXY5bVq3alps5y384K2y3nEZat3ZDtW5Mt8G2UmWoatwv3h0uhatyW4Ty7X+lri/wBLV7/T4nNs3y3JOQrCYfnDQyBeJMLNKLZaW0nfP04P+5HEUjI5jBtggL6yVbtSWNIFmIGAWCzYscBGbEcZ9OBGsLyEsH7AkJOFo9QuwZZyf4tvcdGyXq/Jc46Qm2E4HqM+3c6SC12FmWZlne2WWc4HBxkO7Lolh3g+23t9BElgRl4NNtozmQkoS6neBe7t4QZPhPBcbR4ww8sPCRuk9+DepQ+CQ98jYM6ll7E6r/r6g6iWN04DIg+ScB1ZJ3I27XjwXhrCmrSVLWb9nj2jq7efCPBxE358QJmJ1Bx7f/fn0rJ7OLsv4hNjMBYZM3uL1e7JuyI8MWGwgYmzJ4Tl6l8Atu91m2bwWQd/I49vp8cZBjL3HTlpw7cbx9SN7mGGBYiDcI/yc8IHhDvVozFRN2rswQQ474hEq3wb/wBtf7a/21/t/a/taL9KyOU4yyzjDJ8jgBJ6JNhVkcssbJkx5pDgVAWHwYhODSW85A6cSNu3DtcW4dsH1Bnhe7b+OA2YjPnGEbbZBYk4s4G4WHSCTInKBHTk3a2sLgdgImfAMTFpEsT0+naD95TXbLA4DlNjg9QjnvgTJYzwWs4RsmYQrmJHOR9AGJ4BwDLO7MvT6R1sPOhYlOBCxaX8Rv8AkHZtnjYS8m6Lqys3cLJQtzqGdsvA+IvEeQ8ntt7ZZ8NvX6HgHTLCPDTjGRhNrI/GKwNrZ5NCfbou16s3guL8v+IYz5fvHfj4vMecDbaWLFi0tOG7vT6G8R3Zsf4hpEH9iAQGz/lqtFpHu3HbpjzZ+AzJNs5HUze+Id/EdWDuMrMCTBLFjkM8SHjsP0E4gpBsHlvIfM6u23Y6chfs9uowXieF0zKy14bbd2cMLCYkIfzkIrbYbw1g4Xdxbhj+g9jB1a/23eD23uW2eGQXrjfh3CtbFgUkg7Y2pEhx3/t3Hd5bbLdyOnfIHIpizG3llYgSPy/qOP6i2Fty0fLXk4euScB1wMBkWLMOHqycCe8/sxZvInA8PgFss+Ji9vpWINjtdLFIIN4HeU28jkJOD1KL3fkE+zLLwX7y22bMGRwXH7w7fEtvd6fSE0QPyGDJXYeW6iGsHySeXa6sEstt7ZxnLZBJdET0shjPwzlT7x6fSI8bX+39rVq1a2rVq1atWrVq1a/21/tq1a/2/tf2tf7atbW1tbW1atWrVq1gPG/vf1v6X9L+l/S/pf0v6X9L+l/SRa/D/8QAIBEBAQEAAwADAQEBAQAAAAAAAQARECExIDBBYVFxkP/aAAgBAgEBPxD/ANT4QjgD5BGa4FwuBgbgPjURS+a3xLLTyUSPts1tt4bbYtmatbbbeCpKd/SvCj8Nhs7nzjZeAbJ3GoxZBx3fvBKRlhPbhmwmI43hjnIeC2W3Lbc4efp92aSoGxLtbsmPDLG1KtbwNtvJk4XVpw3jbe7C0JWLSbbbeWW22W23kP1jpybdSlixPeUdOGxlsDhvDZ7RjKEYyZdcEO+oFiOvjjDvyMNzxq/E+31w7lyW1at5z9lL1d+ASEKXW8g4JsRuMXe98O7wekFnDizw9zEzgzpZvDUmQcMT1ef0vbHJ51tjyzW8MhwHc4hyXXAuypL/ALCC7u4WTwC3Y4fLxwMvVvdslvBn7NvGJ5Tq8vpUOBbw2NkeRu8ht0e5RiXFsm2Q22y8PUJDZpJ1eJYXqcpGJeuFltsWy8rlt4/VD1LY+Pt+cBdLeuCXFu3lgl+LYRDDPZ5AO/gHuXUVi8LnA48l2W8ftt5YevgcQTwfd+y4HnxKZbdkO8GfIceOP7wiZnSHZurS7uI8PD6Twa8pkBu8l5wAzMI6LcM2nOBsnO04OvBhDODTRF6lvkJt8Fy4bbksf2K3NmYMJ9OODAFmxdkwOTDUO2dWsPCCT+yjg2n4AiOCbbeodnYbe3bPxN1sQIbNmzyRKEp9YZ4NsyXYYCHcCRAhJuyV28SMsuVEssXmBtcXqQT3PDL3Ltrttsd2Dl+TwtjyW8PqFy7fIYv2OuDc41JZnfIjguz1xbxdls93Q3UisIkZ9v2eC7N42cTyb3x5/Scj5BJtkw2z/sNk+Sy3bo35dYlqE8sPjnOsl1ZIMs2pYxrgDbwnhvdnc25bLsPCbMeiHqzLbz+l8h3MmxpazwXl6XuLr7do9yu3gGSzVtpPmcdW7caeHng+cav2/eDecB38O5HUvHj9Uuz5HU28++HmWnKiIkNuz5wcZZ84GMrqkcj2b95vyeQTz+numatW20RFx3l/kr9uh80KzLY5sWJMDk1/sZg7YIjxjZs2b+1mzf0v6WP9schiBAAH0ru6M4jUeW/7bbfvU5ZLB8jvgA4uLRLv9o1x9c6kbLkRW3DbT2yWJMTJZatW3cot254L+nJMPS/QyPDBwB+S2Zdm6OWMlMm3SASLq72e5COD/iRy7NuFiyG/m1JpPUTBnLI3rLOFh0s5HXG28ZeP04OW7wy/Sxky6N2diEd+SZwe2YsEECBJKGbuwlyTYxwIxz4LktvXG8Dy3jy3Zjz4ef0PEurxyZOD1eLzw8Q0kz4OcJ4A25yU20m7bpH4MjeuHgW28HA+Hn9I7i8T18Bx8XiOT5Lrj54PI6W8Pa9W9cHRZ3ByBjUYunw2XrieWmcYttlsNseW9z0/SO7Z7sEZlssPUhbbtLuUmTxKGZls3gLeDeLbuShm44DLi0ngFbRPEa5+tixY5jLiAAPoZ7tsZTasbHga2luHLv6SyH3gxd+GN74U5IE0WLMCxaNlrD/km1mKdNjhiYVmbMmBJs2Z6H6VL94WXiHSLWe0r8lxsiX9c28AfxPZ4MgXh3bGOXs5ulm8E7vfK3vDyy6sWyIcP0iN+8vSDI49QkhkSTYQdSg2COA6yxM4SLOBPHLbkM+3u3hWxpvE4g03h7528/oI937wIch3jb1Bfku+D28I9dREBHL3NrbtJ2GnBzJSU8w8bZeW93q/eZ5HaXUl4tOR48/oOOm802HKX7fkuQ7Z4GyYYiyWx8AOr8mGtqvPBeB6mPb1MPAJz94Fpy5nLz+g4/vwlyxf4xtuuQ6uychtvHTkecKPPgXU9LSXdvII4jFiRd0b58GtlbVqK1D5kqwT6n95a3a26jtepOo1YWFjZNj2RL2McNgrW2xYoBIZhDhsQsgRjFixdFpByMK9YduWj6GSCWQ7DfbBZMgkjbARizP+I3YksPLq3av+bdseBVoEFY9mzuNc5iwL94MHZxdpx8Q3jz+htjatU7gbW2I2MBZGAw0kYC2jKFLnPwxJlsd3qCQ2A22xJ/kLe4E3i9fJJ4yY48/pPdmcYziNRmROPnDxB3BhMuRwFu3AmcEDJNLocWM2bOnANsyQzufQiLpPvGTwz8GQZZscP0+7bYYgMF2uncncvAaTJwGXaS2A2Yw8ZwHH5wYO+EgnUmQOrQ28MTJ3Mx8PP6cWLFiw+GWFhY4ywsLCywsLCxYsWFi85z45xlhKfl/G/jfzv5387+d/G/jfzv5387+cAYfD/8QALhABAAICAQQCAQQDAQEAAgMAAQARITFBUWFxkRCBoUCx0fDB4fEgYDCAUHCg/9oACAEBAAE/EP8A97b+b+b/AFDkuDMlkQSzgsW6/wDyXL+L+b+L+bl//gTa0lAtQFcGgWYNCrm4WRGs5PltPNIC0wsDKGzp/wCxpMNR9AKaFwSwl84KwPj/AMG0gEgoCmMSaWOyRSUoCY8P/wDEUSIqrKuNlgmVvIGUtLRE+5q/qpY9fBCFuSNMQs14O0s4zIJlpaKdZaBp4FpL2FdqgBgtIEZWMusJY2wYhkZgjyBTTUT94qQkgNGXEXnpZJcdBaKqasbynZHvHS90I+PjcyX9HFt+o+FbsPrmjf4iVEAAG1XATSZi8XQbpfEdUpKgGVXgjvhgOUGicWkzZgBWqS8vNRMFA4ISzJpuCBaz16ozXeWQl1H3Vi/qIQWeVxLG1sSZu7lB1Rmu+o3SqqXyXZ9wrgDD2kMJ4jojARjYXu8PEEu7RcHlBGawgqmxRLInQoe2NJ1FB3J67l/lUBr4ilpEwj1ix+VtuMKIqoS9MNxmMNjS9rVBDZ7nqnIYDWJhmrDRLGnRESIiJBwmyxMcwx0m1tAFl7S/hIPYJUQGrYZ1cQauqTlWayq8kFajgWG5oGHHRiyuvyMDgYHXFRshSgG2yr5qsFSnWTEMK8l3HdS9C22NqE03hNcReh52Bpt4+BK0iEBTkGzhaueZUWBSByW9KvvCSA0UDuyYXdzPWue4FNtDUWuCzcrTtt01Nn6opKLWV7wceoqlAAbYIdvWBVwd0XnrLPiRWmVNOzOi+SZ9ufsiNtBUDpBFejxCm36J+4BSVTZ9wm/q6Mbqxf1FVo0pNI2uIloL8eqGa7xuKarV7l2fdQPiD72kGE7kqhoBrPFVTc6N1fa4/UZIItVdAcyv4yByil2i7QXgmiUVW2w6Dmh8wr/BwHSJsixH2V3UTafUXky7UO4Nn38Dytm+E0WCzXGJTe3LqdxZm+8zxUKe65XX1GRAX9jrY+/gFtFmX4hAR5/26v8AEdDKACnhpw+YhDAWqXTZunxDxPf3gnq4iApbOHRrT2ZRQ4fiN1fa4IljYzLcKGJ6CsvYho2s5uqG671+ubtKG3YH5JlbAti1nup+C9BYw2B+0u4zZFB7eV8NSeUCyL84fIC4L6Dwuhu9iP2tp8IYPtfc8VsjH5Gj7hmDw0OwDNDGAK5sMcmAWACro5BxmZYPkxQRlAQOLW6hJMWO+QW5qxuy7jPq4oEsNogHohxEgALmSiBRVmQwR/8AcjaZBnSN9YxcFPBRoDTlbeNRnlJW3CG8Cq1cMARdEi6aRosbMRJUdwLFAKVbHNGozUuWr7JvA9hLIgTgRVUSFXlvDK6wQ9ZQ7UWu7ByYvQX77RMp80t0phwwEbFcEk9TKPEbbobVkNFqV654poaNkze7ZYu1y0COw+yMtZqi5Jq8sCpuat7U7weo2+pUvALvi4R2rrsWOn0oJQJ07SATnIjfSPNucLYd9BuFSCnJrjwQrJKrbqGDdwCAEdjzBkUwwNsX0IRIlqFJvruP1EEKpsVP6eLEmDhnTuFjBD39VukH3PqFzfMJz9B+5ebgyca8UrPZHaLqPDB6I/leJ2ve6fXwD4n9Hth8JSVdaQP1crwDBHWA5VrdX9AepH0MYodEdlEYemCxAZsTQwUFTUyrMyE4DhKqwdzU2MA9A0HGG9Sq/UoyMwKWtzmuIvaaYs0byB7OSGDVaEoJFXlveYQZTV48dsn3FWqXThUMlFNZq4NBnhbIaoKVbku7i0GyVe9tbo2cBKDBQS8KO6r9xGpMDZ0ulFVXpTSxrhPAjWOq83e5mqHMCxPdcO6AyxWmpQUB0NUGCDbREig8QIFlbPhjKjml+95PMvLCNXZGvmo38TlQoRSzIM/UdVaxVQKwSmjl+QwioxhsLRpLwxGxnnLBC/AQ7VLNi0hbywVS6gtjr63rW0Zq4RxK4wRQKaALxaxDG6c5D0qMI1i9xhMRhAVtaIu83UQGRdgZXnBDe/22JalqmDm25kj0XsT6LLMZGV2UGvSy/wBbfdi3qF+8rGrwXqB1xHUJZ1l91nbIgNVpycTDF+BbNfW0HbMs6wDZwCE0HlW12T8AGb5xbdYAmJmqw6oIHZLpsegr6TZBG6wR9iigV1M5Y9k/B+NmiWlRwfJ5RahqUIKv0RmJQaDongL7n5H9vye0/ren/wANGnP9j1fHZhtxWljXtJmJl/8AwBAAspIBhoPJm7yH4AP1NQuKCk/r8kSrkLbm33BH1LywpnQC5fHzUE/sX1PI4UCqv42nY/il0Vtasf5GDrR/W2yC+lVeYCtjuUI9MMC0Vs1+kE63CLsKHd/NLCb+tBbjpSPqEAACgOD4R8T+z2w1ErcfoBarwBLQGhU2nllHIL4YO+wVa0dACBn8vawMFWFrNVtijBacojfkWAFZ7DAGjuJFKFhOV35PnKE/veuf3vTPz8p2ezGHR5Wg8wTLhFWSHZQ+viDZLFDAnd3xzTCOpSRCxOyQHplZhtLW6F9y28XpDahTE2l1zLn7FG5DKqFgLyIfGbQA1FpVUZcDMHBniuqClsb+xi9sjkl0SiwtQdd/gMO37btUTkFGu0sQ8wuTFBVNaFUSnKwG1bQ5a+dQL8/8Mz6U7XVJH7wgdBQuhfGUdYCAUbKmAAAFAfrsVuiX1jgB1pOEgAkSn3wZvdlsAEx7WAYynNveLuJOp+Cw4RGsXWI0d216UlU2NoQxWVnV9xfg0BCBuTr/AJhtzq5bANsJQEnABbcZOeh/vE2nFfAEARwjGBcuYDdDFF2g3VtVBYOJkKW2qtKx0mCsgrrsE6hdWI6TMIlwE16taecN8x2Lx8HlLlHKu2CJlfB+hmmoDKOB4Uhna2NynMK1avDpmtTDDV0a5pi1kZjulyhE0T7pqVlJSRcZw9Y90K1gkAuIyM1GTsUkTa+IqrfeVc7IyQrIl3jpNJcLhQWC6FiOLd3EMRwQKLKXNEPNw0MAagveoFMK7wfo6VNobQsMnMcODdd4LAyXY44iYU+NwDjFGDDUdvNg64ygUayG6h2thRBYyIEMdLh11hMuLGygLQ4gVQGKFdUcsNpQA5EI2AopbtuEyAUBoJgJmQ8mhc4WnR0gUV8PmAIte8i7FNm5k2ppOktpV6sSddT0L42TedsGkOwrCH7fFAXEvUl74qtk7ysSlGenCxbanBiFMsJhq6lM4keuMANIbvUFCYbi5n2BcUG/bv8AhppqDQGQ0zNalugwYMUd2CqxYCJZh3LtUkxdqlOOWDvwNRULCli5GB4Yxw1V3wzVWznqrzFVRQtraausSjQO4Z5gi3N83V5jU5kTQKuiqXZljf35S2huLcOrj4+OmrmlxrIzUXmlulFoZhQWOKuWVVO2eWoMa3UeZsDXsYkwm7uIvQE9qwo7ekgBY4qvQlRoadzLqihqU4lAwcRkp1gEVzi3jJSjZP2TklOH10DUc6yApgIAGglx0SJbbKa4C+bl1gy1lVaBpS70uMvxWNJKhud5d60Q4FQLPMJoSl1XMDPpWNLblNrdAErLXUY+AOA24KKPgXjXEsyEcrPWby7j5vK7rZI/mF/rhaBQMgDWRmVLaiiRJdAAKFQs7NOg1zFOEc8e4hLYxS7W+IffobaulKBqKkGy9WGRsLlzUKmhgJQbi3D1l/moJqUqJl52O0vMtBf6qoKbgWEv/wCBpW7NrQB3jnRFBqWkC2Lkl0q1dBQH/wDl8uaLRdG4HRHLQrAVtgBRIC5IlJa809IwigaBtRQ8B1hZwZ9BQhIrJDMJtJKAULnxAifAQ6zPitwkfIwottq6szpIrsrXBFAPzBUsv6CxEzEgYSI8osDYW8DCM3SWWU/+8qcAaywAq1ZbMOIrE1NAq6ixvPxs+EsBD3Ur7hQPpFkBq0lp10f/AEi0IFns4a31cQ6bhBWjtSwkaHxc8Dt7EoHMl5P8BH1Kiya7xsHg+4RliZayaKcLe5erYwNMA6rQO8ZWBFQmAeN+3exm+d3F4A2pwBtY+fYLDw8B4tR6xevMADakUMGwSzhGO/yYWzrQQuHhcaQAML7aHbKHi5smhEy0QsCYfKUaqMDzyOltsq3D7mv1Y9MIm2tWCvaQ6r7iNHFFZqw2Fy2HSLEikKioWwxg3cL13+COeoriMxGihdfjC5ej0UNyJp+lEp/AuLg5RsdRU5EoV1ioaCXDAUW4u/vcpiJhURaAYzVJxCeWAEi3XdtmhCy//nlvEowQXukFvzoIWsGb0FOoF+5fI1ihMR5CCRYFcVjV71+TKkNXi34Re8nqQ2pZcBy9VbV5VhV4ccZk61dAqFEoAA9EuycLA2nzR+oBBLG8fCC4BAUBTAcQmP3ult/dYSFXCaaFn0vuJvbT9CD9oCyi9n1L/wCzDKojyfgR5wLS1Kn4D4faXSwe28645uysnS7sRMLfKNZaTRgUpKMLV9oLveZsGDjDWkaZcFv/ACpfAml2XBfpepBQ1dIMCLDT/wDOIRAAtZXzLSs65qgX6h9MTSLZZyXqaz6mwnPb3ZQk/wBQEP2SAzTjdia5s4GcUtlFfcA+vgWIaxRRbrYDu3xMsx0jcisllXlPARVUi9zIlOi0XGuodBHIPUNMKVLKtKLIUsq7vrGMKETp4c0tXhQ3dLcEFSHIA95bjQgoukK5vUKuAy0ZYVp9Q8HWQ7yCHLAm91RKbSw76QrrT8Ao0MKY3CBCa2+jQ5bV0Ba1Bk2/BMDO1S0d4wUwIBqv7JlRGm4kdGweQQO88Euwd+1XErymaHapVddSlX1tTksQW6LvUT8BgaKb3Ss6+IaEywfYK2KS3Fd6/wDnEEpLGLEitq5WM0H5lttAW9YLIaBG7yCMKyFKD0AA+pi/U/CrAIPeDAYAUAcHwj3FBTdpRr6+JS9YFAomk+DewQjeqrLBMSBUA4A1DEmB8BRaFogF7HVpCWvnGYhXRAomkhwGgwuaENE4Xri3WAurdxjv06/baZjRed+tAIABpbjSAS8uZfNIl+oLD4gtRoh+isJFR5a+dhYiABEpHNxsgtmE9b5QCwgFANAGpYGOX0xWh9//AKlP3cKkNQ7tSlpVHBf1CFTUHIPvAQqWAsWPQ+DxTrgQ5tr4wwsqcJGwRB+GGrnLZjOILLICNypZneNpaV0+PRoKILCT9y3wWEkf/E3nnyLojayoqfBT6oij3NAIcCV+I2DzV9iIKt6Fv7QdY94VwvoR0xhQGYhVSy4gSEbpdM4UlNclYE4wmUQ7qExba8bESKM8n8UuBuOktsF03ih7tjg/gj9P8Q/p9JxFxdU/tzSeGLsykKD3zjlFEh044i0+jMSyr4ZcFzcNpx2se3vDO4t6gZavj5EBzhaFmLF/pv8AiY7m/wB5/wAT+o/4iP8AV/E5Mf8AXidD53VvrRXh/u9vh1GDcYh/1v8Ax8Jn9h/af3P/ABKt/wBntHrP9ekE/wDK5541pEv+y/4gn9X8R/oP7T+p/wCIx5TB2gDhX7v0OCSs6cFv0lyj3GllMFFYxKHVfcVjHpCikX1AFgU6H6hXUlVbOgQugeCcC/xN6Y6VqC24lqhr6mut12hTCnHSNXolCY9SwpDXScdHqVfT1Erp6gH9IC9HqI4ERnBiCVOW6hvg2qDZAdDkIWlLhZFh16fzG9BxS4Z0t5TETj3gREWp4qFEeUgQ5eCZcuuEmBH6ka8B2IfYPUyiHclSLHa+mDomsDtG20gwXL5Y86jJ1s1uUSrpFNQkCfA5j8FHTEsqS7VhplV2qU5dOsYg95WpWZLmaThxiXatXHSF47R50OpBcSV9RrhCLbaR9NJjVT7lkUfJFbkH6nDA8Sg1lgMKg27Zm+Y3eGeaZQaB2nkjQ5m+ohaVPEbc0/cLDTDm/JAND1CsvwShx6RSrr0lDh6i3QHqaX+yFGfRLej1Beh6hfQ9QKyi+ojb0SuQeoWFv4RP9CFsVPqI1N/og9Yhz/hRVQBZnAsBaIjdQXSbMpWXyC4qKcRLmBDZcG0wzLLi8elw0zACiBioxYeAVBnfSXWe8o8SkwViVm2WA+5V3HDBVGK33lMlW7RlF+QxGzVvTkgF0XhI3FNWlgN35KhMubBFOl/vGwD6nDbZdp5jy2Fz+yiLFze6TBFHJNKB2kvCg/MsDSLkZXNDoSpSA0xMpqnjmbqAdMESFs2SkLBtCVgurzDyQ7lBsRUwjct7Sr8C/CXQDhmNFbh7w1c5DxBpaViWNrEpogzcEVOYty5liyYVyi4DqWRuIKIqIQC7cwMSppHKDlbEVuUqJ4isgHEDipXaVbiHfE6XEqoQ0QTlAPEMtWIAo/RIa2jf+BGGdT9z4i7uCjcxc5wwg2JodYJXMsqoIuYWBgDUwWS8xqMIj46xlLdTCKe0rH3KGOp3Rur4mIFRyyshgxRqDEG0OIYdBkDAit/9BMk9EMTSK/Mtaz+pk7j0ZY6FvMtS3AMxl9BzB6iqBn0qIrXlctFK6wcnbS5iyy3WpaO/0hgWm+BN6TwKIAvCosOe8TFXb+YVVOZYQy33mPQO8FZM8RIiwupWU6uOoU9hM0PwmpYUXmsxQR+u5sALkiQoiXlmFiYNQCxaQsbgtxeJdkFndKmj4ZxuK8MFlhG6g6OoWghuBeJgiLTMMQ3LrGXn4RhKoO2diAMwBhr9Elpuw/aRCGUeVXH5RlG2ImJz4t6i1wxhgtimElw38GCZxMcoZQYgVAkJuoYQzDI9LjgxUWI1XE2rz0hIHLpxBFBOr4liDbZrxMINFXUXMo6y9Rt4pjBQG6hUChrrBAHYlVkdpzxXSfcA4gDQJ1IR3LZKpZai890RpoYySgnOd4iCyjhRmPDqwUgDxc3qL6EXgWEQIzhXMwj2XCzRmO4VZziN7E6HEeVU3HJxaQc7HMJ06i6dpZmFmuEpYpYnUOzzIPJ4lVGOsOZTqIuY2zHic7mKwQCURDcUqMcS/SW9YuyIViU3j2gJuI8wz3AzpS6biy8SssPOIguXbQRlcTTDLdYHE2g/RSKiBRX+BLJwwxZi4lo3D1QJWOrhRkJal7xntCrX4i+io1Gp0ahTx8CFtSoxiNlWDK8uZFOSIhazMYu+oON+520fqRdw1K9YJRxKGvepk1FyLL3AasiVpvmLqrzLpeu0VOEQAUjxB1I84jivwgtKYwKH1LFHsYeaR9QfJ9Qh/jmPDekBGhzFKBfEyCrwIVrrt7gLhPYiXHrjYJQAp64SMWBuZ0JKqxvpCW3hiMObhmygqqgCAlWwTwBLfIG8Q2jLVS8W3LcsrQfiXXQNWSrP7IhYhOI5iTJhaIvqC2X8Tu/UIovmZcsyQExB5M7EYpliAKxHosnJZNpO5C3MBRtig4Qd3KGlIocTDzEEd3MGjKTLFzDxEISoa/RrLVYt/qSvHbCMcBiODMvpExcireMxtWokNbk3hEGkQpQahDGGbRDG2cNqpAbWRSvWJDC/heccYEaDMASdBE8CKsmDTBlVYxEbSUs/YQ2amxu4VSyGFCMha/UNiKr+OJ2v1AXM0P2UJzfUsK/BAlfghafsRd/xwVyfqfxtBSvxRH+BF8KvEpg4+0Vk9EzhbjSXB2iv7FLimnxBWD+oO1JMcCayQ7TWlcQqVXuBI97qW4v6iTEOABAOJNxDNX5pxJdL2RyY9o/uigdP3QJdmGTVPMS6jYwEFJ6KW3BDiB0vqJaSOEHpKHj6nKPxA/6TIZv1Kf8ASBEaviFMJ8Esf4IYx6ofZfUpafVDcpk39yriImpi7P0Ta3Av9ogbAzAmxYcRyUo1VQtxCNS12gjm4QUWK3dwYwzOivMRGWAG2MFYQlLYq1WYpyxrEx6BWGSrxL2xZV/tCrqh1ct5gOSRiBYLQXnOtLE3QLEEqqBsKXG8OQPuFuF7isjJl5wE2fcenwAu86rF8ypzJzmSwv8ANLJdErVk8yqfudSAXNFXXF0ERvMuoPuNe59x698MTLs/cpVafc72VO00N/cYpb3Girb8y5iUOBjMMB4gjhxKMOahB1YVbgZcy7IPovpKto+IkqhErEYwBLoYOZI2qhTmj4laq9YB/DP+VBkX1zGftR3+jFf8WB9vxNpbyQ0KRynrJ/w4DOWq8/ohq9uq/hKVpGzEyx654gNruyZNahliJvE3ETqUhyv4hglIy3cGEYhVotiNlSH4JzblyBU+kza6ghMlQqRUDLKB1CmtTBFgcvmI5uvuCbIjpAnKQsckbzO7DGqWGq+5eXFGkXTEr4Yj7LxCrqDYuVitdRyF+priGmomoiiVREzpHpbIBQ3EFdw66VdYUNLfmCagZVyJHhjmtS5YbYipV1FmSo9GD8ItsQJsnAIgsJOj+4UXWFV/hFLIXWNdfcvVX3OZVdIKbJkX8Q6CIcCBNQF5lTSgorMOuI1zl5gqAiv/ABEYIMpL3hxzLy1oYm3adkjZHowuSaov9EqnV9f60ZRI4S1DtFoxxM3L0o7g22xC1OmoJZJR1LBcC6mPU6Caal8BFGr9TLVVAojijLtphFsYd6lmkQzSzEP6AeYqyy/QhDdHastvYTpVeWINZidFJKpUbwDzEFajlmLpBqXDmWhFLSsIqlGxiHRWNCCBVmVKCoBFk6SW9Agi9RbGkZcGJewLKMovkdC+4JLrPSMZTHJmbMJqQeYC0elwclJcQ84cQwKk3RG4tkq3FgLhrWJ1D7neZcpWPwEF5H3LFZmTmETTqoMbiMrhQBLi2E6uJdzOolcdRnRhGmAbNQfMBcwRu4ccbds27jXxp8SzFME6xbX6KdWO1/Giuq1UCxuPWeJSjPEKs3L7kJzMEVM7hYyXN8VFWGdnwGjPMTG4BoNyiOszAPU4ixLIjGVrerhHNmsFEPhMscYwaCAFUMZ7wAkAYDAQrfSFroGVQsGoXKGERZHLqErNVzMdh4IAULhhxg1aUhAa1B5QJcjCI8yXbQNwhBqIwxArLjScyMAZ/E6GxXgpDwIg0rimRmUXWIyYAOuE2jiIAvMZVUuGKJh1G1RGGBswkVGu8VaUYazrCHYlK3HNzTEDaAHbKeYrpBpzMk7src2qb4uKjsHW55zz+FZrUOtKC1xL1EqqzAxiIimGpXmorggl4Yzlcyzz/wDRCqT/AHdEuQm4aIF/UwM8TmTPhF8EpE3UNzma5goSlEdGBd4ESODAhym7S0nURkIoAuDn5NkNmgvPEGoMDHlLqKirmETwg149zSIxOARK5qcTAQggcXLFriCsx7iiDmjU2Uq3mKK0cSip5jbNkqOohxKhVolLsRiazBZxAGJprmElBXeFrG+8Hvg3oRwNh2hGj2jFL4kIFliIph0xqUs4bxMeq624mbJOrzUsFTq4wXzlTZZ24mJKY1pg5hFusFfaaTIz8GKGKF3uVFylRXKPwB0luYmkKbmkLuHFMBZiN0IgkSuIXf4Ar9Eiaq9T/CRwBFyoqlK30jV5RTBeY73FZ8F2IbMzhNcVN6mDO8MmYeMtz6R24xHVMqOo6YoolVGgV3sgilcHcpgU3FSgmnDpCwReZfTNy63M9IqwZWaLnMXeozq3NuOkqX7UegeD4TTMF0YiOUVKM2riUCBa8wRtnpCgSod5Ms2EyUEajMvepnxqAoCobs3KcJUoLUXAy9NsuwlwraQqDXBB0cXTO+UHEHknDUS48TrKpSetSw6NTSYvwApm0coTcAOGBgmkyZWibRwhhUTA6RjCL0gjiGeoU4hhHuDxFjRFzMNkzZlDctA8rhr9EiKIP/WiPYHWCze4kYsPpgpR0+PiwwxGLiJuo6lq1AOW7hrAxLUi5dIK84TGXMjHQnkQCTYIkwGa+MkWntKUou08YGPBHoWFRIirCu8cosxTLaVZcKiq2IPEQOGJQRaEFAS4YpcuFWilIY3n6lWAYZC30gOMym5ASojaOn2gWVwFAcSiyR5QFQdxtVHWCJ0JcEllnSCg8xMQqAWAdYCo9jKASHMWSsrS5i2wtp+UyyV0uScXnwhNBp1I8ZlFIfM23H6kS+JWCBGaADzLXiIMriXBMOyAeZfiPnCnMEyki3B4sholL6pQYhMYWuVZSuL9EopjFo/wlalcy/6wJUliqcSgvMeGsxtS1SrmJUMoMwzNUBPMFJPESpVBAgqb8qmODUJhdHeYIsElhXcBAU+Im0MudJZrTHqXXZLoXHLM6MdZhDxLjBWI3DJWY9FQaMuNQgtYauuYS4QmBKGBiFty/KJgzaD9QyMxMag6tyQt4iHaUyloiwtaIlrIihWIPkIGIxDtekE06jofREAOWCzS3UAbPdcGAHmIBLHXmMXZ6GOXFBBQYLLmRNE2lJKVmkfbEe6zC7UXbMXWIGtQdoK4gGGtIDhmF+IUdSgqoBDsgBthzrKVcEt8YFuWn6OKqkfJ/hMz5ln0hpdJgPaZhBdKqIuqz8CcPg6+GiPODOIGpidPiVXm1XKIVJkLdkNlgLL9M7ywqkQ2kVt3gaDEr2xlBCGlzu8NAK4R1ELVZTZHcAGIeApeYcZj4pQLgUQtJAMhSDrSOYSlbc5Q8zAUI01AtW4JkbY2y+IHJT6iDjUzrOR1mV1iOe5yCJamCyMLRuNaRhubMSxe1eJhaahFxbAUCo04ldojpMXggZgEnAIMhWIW+0A0GCVzGGW4nQiVOxMCdlOVCqh2QiagUHSBRBQIDtDcE1mZL5CsQ9oa/Ramrl2/8KILPWEfpMXWY6eIKkaesGL5hVv4DiBPnjnG0w3Y1A+Bs5rWWYtxXKNGIhi2GKm1Yg1RlKKGPW/qbxbKTslzU3Nhb4hCVzKQLNQrZdEbRdXDQbjKadRlWtQvDcZdYlZKiaIjsxKGXSQ6gEvd5ghiOxt2ht1UOoSvgIoOTCsG415pEqsusoQCBzriUK4BwxfriHZiP2Jmq03LhRlKA261HmgzFVcTFeJcQ6oBAzBEhbDAcsddo5GbBzKaMaVmWNkwYisEaRruoMEpDWEpTDLiKw1DDMFQEUSjSJIzC1r9HlFC/wCnhFj5gw9oLCGkov42q4KKE0M5+BrcXHwp94syVD6ilfJ5FHEtdVx6ijn4HYdoZuMDW5tB7RhnOcAyxbCl03MMHOZgHExAiXCUbhDIiGbUINxMGkRAKEOcFd45Yb6QogGD4RUAvWyNDRAsKYPmWdTJhKiIpuYiVfSGQeZWlL5jdhS4RQCbSi0IRWMwnZDwdJidVwdNXE2AalqKqGraSX6YYm1mvES8c4ldRPENAMFAtDTIbFw0xKZVOxM6IJYarESUsRBuAJQ1BAAlZVRQYUFiDWY1CdEtYYbiOsocwzKlR4GdyHvBX6IVVpW1+ERiSLKjNQtqYcCRZXKBWWJty76Fe0bdoCocp5QHD6ljaHyyYug3EFWAPcm+uMLCCWCbgUW0S8c+IVYniNRf1LpM10j/APZlmnH2gW/xwxM9dIuewYgqfimoGekar10jqjICFR4MNX9RF0ajlMEAatmUUOhKjAxUYFG5oq5lmo2xcYqUQORuO4CowazMulwi0saiq0xBd4i7+opN5hfwTGifqet+og2+qMqPqmJFniFpsa4jdT4S2ZRmjbAR6l0kQBR9RCxfUB2x1qUH9uKD9mYUMWYZ2R9RTZ6gzNp/zJZNoEpeYur3KoSV5wI/wTgOaVeYlDLBF3KsMowCuYzkKCSQt3I14ZVGoqhUUtnQTMQuT9CqHWMq9yDr0PpCBNy5rN+zM1zAqpMhjMXTD1JZj0EQcwqwchEeCFnRFpwloYGYEsZhnVZgZTmBVMx0sriY1CoWtCX0K/Eucj1AJXojv4o8nolRZfUDQT4g+x6h6avqGao+oCizoH3BUakQ2DMij9RoykVCrzIKPmW4B7gTA13h1A7zbp7mmfcB0fMY0FPMRw9x209zjH3CywHuxS4iqXtEbH8o1Y/KPGL7i5dHmOWTLG17xJX54m/upzg+5aHulOuPvFq9rq5dK4Uy6V7p1UfMFovuP1+Wf7vFm6kn+WIu+KeJmmY4z4hLWKF6ke+9mIoA9xFoPaBHHtOE94rx7xawx6sKU9pe/uoBwfcM/wA0N4e4Fz+Y9D8y7f5Rrv8AdOAPcAf5Y8g83A3T3DWAdd0/QmKwqyf7kTFN9eJQK4hvMjsQo4ll5i6CPIJlzB6uAfDuTFSFlBAmiJTiKXEqQ22o43L2kbhLUyiVx8B1G4AS3NSsBq4ValSrIPkHePeavzEbanJTELbxZA3mUr/zCNal5mBsEt4ETwKgYKJnzUeVjbClzEBOaY7dxowkc6JQ1HUCJGKla6IOy4btPUH5PsjmH0la1CHmWmBmAjAMDqPqGFQfESYlo5U0oT1K+QvxChv0ge0GeE9TfIeoFeCJ7SgwEqSkjJCkjCwoD1+Igtq8TMBYA3dwrtETdEwttxZqSqn8ZfAfqYeUC2vUb6pjVzArCjDxYoKtCRZevxGY3a9/omki14/xyohlwnaOBOWXCWrMFMsoaZyEySnGGecpUO6YuGCepAc0ByVFui4cqk1G4tIpNACEFAuVFY1FIHJid2CWGGUUhZhVuZQcSv3mZO4es2TDApAYqKzWcmaisGJlMxaVHgmPK2UDVszekbVgC0lK2x6FhO2alwqZpXn7mXT3L9HuW5D3BtY/MSYihtmElbGCwqPmJOUCsF/c4g9zNQ9MsWvkwbIY3bU6FSEwpUSaZSXDHF3BJuCOYqtwXWXaKg+vaC24bcovJjO7ivEBV1TLeHcbguqICVAVoEQyVCmDJ3hhog2PYQJqh5h3THNy0CCqlmzPOP0Q0htr/nLKIA10ihi6ZqTOqRNYIA0TPiV6QOkD4Vekompn3DvcKusxyYi7GpmCMV6mJUUSuI1M+XbNt74gB39wowTCVEObls9ou1qUpuKYZdMY8QkBEkCO1ivqMNW+0ALQPJuZyR8m0XVlKNmMBVizZBUcRobq5SClnPvU4ZI8KR7tlF2sW+2MLgPKACrD0u2V2tl8QQhftNMNvCBWLUtBZWin1JgkMfVy/L4jVjTRA1Z+5h2w6lZzsS9sLNxXVjczBbMCM3MmBiZhhFTELSBg4bgkxK3JEIEDEr4IqwgXkhYsMQTSVcQNpSX6LaVf7OogMkJxGUJH+USOyCU5lKUxHKsR8JYcQG8TC1AMS4jF4lg6Sq1NXpMwgFbhsr7iCF4eZwl9JXWZqBkOYOxpL5T1uDNJKEQIC8cRpFAXKYE4isNSi84cTG3cyIQtOYRqYCch2loGPs2TYResiCKheZcQhHcpqEJhl9piiisRCJMpSXMTmGp0QnVDATKpQW7hIsekuiWK6KhXsuXFjtMJ6UIAUNxiOkXXWVBAbtu4kHQ0EYMO8FJTKiCY1itQWMAuH5itagxcRb3OJVwSUtiZ5lUVBGBrvE8kAqI01+YuSVMVBmA11EFLjxMksPp+iVk/6PEMMuaIlA5libmED+EuyYE2y6I4bhjidVyvSK2/hYMlEL3LKZYiWytB1JgNZCtsIEBWdZnRfmJgS8Q8YrgjIBnmJENHaKmCJGFecVUz1ZK8EUZLuCLtBYssy6TMyZzzNY6mZO+sSqJ6Cw5xTtHWdTLYfcLBWKaFREOkOgw9ypcMXcvTuDVCCKuLi/KNqC2YexCqCEQG7mYalbZiDsm7cw9Y0xvVkA60Nxo0MAgmYMAHoDExELZm+76TB+GZJq3NpUJApm04E2dZx8IIZXcouFDNcTecJdJPCWYxKVKfIuGprDZMf0YaSLbeP8Pw11zO9EgXLBqNi+Zh3Kz2JpMzDAolXd6gDWZnJiIwCVZbggwRUDI1qKNhbUCONydYLWY0OCNMzrMTJfceHI6uNEVwTFk+YYWDtBoM0zdcwRIZmBmZBLGMLn8SjKzpLCKwnE0zAe1TiNYxxiGJvFyzUphuIishUBc5jIOYiDWYw9ZxKAoupeC3cA+QXiKKMJpW/qJUSOpq7L6QBAWG2E5JYDQkRZqXl5jRorOckxvDMmhRiWjj3cHwnB1DEyV2rGBqBcVMYoiCsMte4GUbndCEkpiYj1RFZzLxqZQGdzBAtjcZhiyXMtko1iUhQUYmCmo2NTf4F5xazFSxEov6LaRw9P2SHfpNaDlBlByJgyo51AhqMosdTN1BWJugrmaMrvaVBa41W1ieEfmJLIBqbgnMZ7RlocxSINhIXkI3OmYCcWJYcIIpxCMCMoItpESwufuBUuW7bmyXaQe0D1p1mIw07wxTlI0IgYKpCICiOWg3DoWMEwdRdzmGPUI5x24FDD1l8RTIdJgaFItoYcwCwXpqCoc5ajYA7pgAY6OkrRyKgDt7jXZUvWnMTie7MGKiVbuKO4VFy7uboygWGpYHeOFZuZShxCJ8MpxGKrXMhcwJkTTM1MpqW2RuvwOzUs4gpLAgYlGULHwNk7fo2rLH+hg+F18YmxLLxxFk3L25gtahhqZ1KHLHBhuHwqHmUNIS8e4PTBRweY1EyQGrWZZZ1IAazTAUIlAR42S8HaG67OoA1shhDbcxHm5nd4iztFrS+seDjA4olKV0I0wnmLblmKtIuzE3yglWyN8QETCLUGIeW8wYI66SYk3UXOtkuyLzAaNOkXJHmYgldIRFb8QssUNSUsYNZ3hmmp3Bxql9PJLCzBxZepeM2ipq45TmIqj4gvPMNQjLWWElsIaxHJ8DqGRkJL1UGglsdJhDLCCphqGUPheMGYsPxdzJzNRuJVBc3HB2Rs7f0a2lZ3/2SYWmI9Yjgyr2zAXm3zHcqWXVZgvMWWfAMul3DIzG2A1Cu1GRW5QOKXh3wR1QOfwlrAsoZsc3Lr5XBASViUuLyizpKlc7lIVWxKsFEXM1Cdix2xDNKR3RAAZ6VGGrvEb+qxyNsE62oSxiNDeWWuJQCK7S+jMbERxA5dxioYwnTLKHBKbvDHELTCpKE11hTZukawV0YsqzwZm9ahDGzlzKhzDeDcSWnNQCq7NR2CXFHERQiql0zBwVLHMQEY8y6Im01JYRl06fBqLjU2e8GGdECahAaviK0xWQ5hv4dEizFvGYdYOcx3C1KLBYriBhUaYGf0bWl/Y9JpK0x41MqspDM66mZ5+Wxi6zMm46iltMQRLjhXj0gHvgqhDWQxxiB0hisEixY3cJNXT7TFeHJ4YIQyQ8jJqJio0ji5kNU1EBlRipDmKRceC42lHFeo9jNdphBZ3fEQlqHQTNDXmNgMRJoBDtKxDUojY94FZgLNYlTUKhlLLDKjZAPBGUdzIDmGcGJtSEDIS2WYIGTCXSog0ypXCC3ncMKiDKZ8xtJX+YSWNxrUEDjAMRRyXmDGo5YjaYHwVDvFfPEs4ly+SK8zBxLEXMGOyFYRS4B9IjGSKOUFqiMNsYZFEqQFNxkLEpVTh0jQiuNf8ARay+1/jhrCG0Wx0ipvmO3mYuBjcpT7mG0cAVzLsw4zHbuG0EbQGqhCVC1zKsxWF4gSNxiBTRfBNTzcvhbQX/AIg1MMyKi0uHdV1BbN2pI/QKtFsgnbUCyMQreCWgUQrdoUCI8y6lQFppgsSsegJuWG4LDmBZxUtyZgZS2koVizUEoqpYpn0M7ENq4RiRyqEFOZiNSqJWAwcMsK64i413FRDiF66Fqw2A+ZvMTQcyinijtrUKMVLEVkSTvEt4ShCuoGownhN2OXMrtBfEpUTMOI2su6QrpBTiBrc11S2bJast0hfRjhqtyjuO6m4ibizHf6LWl/WdCcXFQhcUqd0b6IAV7ylQgyEWBj8Bl1iLMVj4lRmByQZhmOIOI6OWJmFIEdq3L+cq4td4mcILEvVgQLVbxDIttCpalVDcoTA1CJvDMEWmYxpcHVSXoWwdEQxRdRStzCjpEJ1mhHu1MsuYMZh7AyowqO0rvAm9XiU1TiOmQY75jslZQc3EQXqCLuNqgKGKiu0GAFlaxLkuOCORi2MxaXbfSU9X9QyoUXHI/Ccoi2ZeowwEZ3CEAwmNUrbfqC18GBmRObYFMrcfimhFPSylefxGv/BHQYfgIZYUwpjSPwY6FkqTkJVywZjNjcNa/ollkq/0xKgPqGFGcIz79KrHEYcp/eoddcp4Y08zssadMsczyTFaxRFiwpqxmQNRJtncLAXFRMEWyzVuFzUVRO7MVGuMwdyzxD33a8EclNI9IBg2KMQGB74h2fignNn1MAb9QeF+oEW/iE5luCBcTC5i7hXLR28S7pT6+EAsM8SpIvOIIATXSWdK6VL48xW+bgCcIGzKQLGgUOtQQDLtFwh9QqWfMAGyKwL6i8K14nPfSIKpnrBoPqbJA9UiNpZzCgHJUGbdkpKnocrIPAI2QUfwmQMr8KU7E8QdentDlR5IC6fiH0h7kNa+kGb9YPBLgHkhXESFX3lFpMuB84J3fSVfxS7hJzD6wmdkn+ugDqA3XtEf9pX1SzQ/c5rx7zDFP7ivUjZkEvr9EOlGl/4Ea8BA1ojZCcwrnUtMDC+IdFEKtIuMBDmKgHFzipEvUgZKjoBOsO8IW5SCwQIIp46wml9Zf+8yhdiNUIApxqAroKnPLBlepMpZAgkruZVkRDhEZqBrIK8hMsQKWBARQlH+0tX/AJlzkRd1DzCgtgDzKTRfmPytPmIYqVeQgjWI0VcV5bRF1j3BXjCTa+5bkL8wTABH+7KH+86p7gO8BGoy5e4v/ZF3tCr2/ABcDmflLDH5RTCQBAlk9GK4v2i9j9sGkBZVNuz7hefzFA/mbAPu4lktLLCDfUBcUgv5J/0Ihr8karrDvP8AsRZbJewe0Iab8x3g/cenKQx7RMz7Jh0QwLhbECm3AZqU/wBE0qxcBz9oO8QIzKJGogF39ywS+4TQhJwROLI+4/7CVZp7iux7hvA+5dbR+4GY/OW9/nLbZI7+Sf7HP9vjlJpl/lFq4cBT7hZXQ6RJtiwzSWdvuDP5TMW9wS8teZaYs+51b7lvL7h1X2/DXm8Odz3j1vuJt39xBtfuZsJ+4cz7iNpe5Uf5J1Kfcu0r3Kdo/cv527xBX7oVXf3Nq5FO/uUNDzF6L7i+D9x0H5Sjs/cOX9xGiyNmcdiCPMrruWD+cwd3eKF/vizq+40/2gOSRN7gLwnudheY1vlLcQ8DLOYozxFLUXVKTSxANsT5ZfSy8rn2icLglzcTkxA2w2Wyl8zJ5IEDKwLsZTm4wxc7z7hOK/EqYG6/ZAqFX+iWkF/v4mRcy9GZ/WBIzMIVp2hpYGmQDlBjFTqY3MMsdS5yJB3KIP1gC2RmkNDEoXkhTlyytd5gvhEsPMEauamEleLjABVwRo5h01lQCx1moKxFtgyqNYZ3WplgMpzWWsiX94ytoJYlkVrMMZiCxHOiJRm4Io6IFpMG4tuEW9RY2o8TEOUNckFF7QiVLYLiylo1GAqZ1jKEKUgE6JidX7RgFnEsxaLOYqtse9lvZIhmxFF13lgtVyoLYFF6YQ0l1YgOJTpOkhLq5SDEDcQEiMkUpuJg1+JaqyHN3KWpc+ClOsSxBvWIDNfEmcYh0Zt+jW0gttfxwvF9ZiCVmLtuKcdq3ERniKvMFimoMLblkMMR0ZUW3OZCDrIJaoSahNWkKAEllo2TeCRa5jktgnTgd9IjZSs9JU4biDRfEoFGHxXeMy0RQ7Q22KlXDMB2zCWyOWXjpA05dpmfDqmHMQwlR20IhdRADEFcQmj9SA2qcVXEmBJyO4a8kpoJaiIy0DUaOKY5bcYokWjMwVVpf1bQ3HpUNO0c3MMIqYjBVRISGTWotLOYxSmKiNoswinUEOSKOmJ6MtnEs2qIWNqKp3HimLQtCZI2xHTLOkcvHMpyxTVzv/AtcEvoai7ln6K1Etk2fsR1zuHC41N4qJThMTHXHWCviLcBjoUgLmANG4DAlKjyDHuxu8xnpGEuKajsNsJbSuYlQqLIbwy8oVctuo6ckNC70RFLs3NKhiWaCuXlyIuBFATXMy7xKdRhNpFTllkXMmis5oOZ2cQVQ2yjluW3TEJ8yq8RdExdSmrqJcphtAKqhiVO+oiXxDBYy6zENRli41Ih5f7QWzrLBDNmVrcRqPRMUtGbRS6mJ5lnggBMoKMHHxcVzLEVhjyR06m0GEeZ3RgEUtfMWLfgNwgWFUZP3vjd/QqkQ3OZH2fUc4WQ2Ju5W8ViVYGsxlIC4lea5gwpSqUQV0fBhVhFUR5UXdMwGYg0eZbaIZgSp1zGC+kyvMWhECpU8cDVWUQwq4V7JV1Rwlx+wFmKlieod1oEHEqpt0RhcBBpblM2XKZekNlUQbW1FBe4dBSbraI1xFRxO8mZZtslJqXbURpiOo1NAagDhLsDFDcbTiIFF1CbgjxLOsL9oKW3zFb3FesEtRNQuax4Y7gwCvMo+KAEBALEY7Y9yvwtCWxpUzYOJk3LRwSwLIC8x18ax0nBB6JtmyGiN5R3+hVzJhPRMUfiGi+YCiDcMIYrUZfgQRUqXK4HCOOYVGIia+CwmZiB0Qa1B1KYciUXWYxsiCY5jvGN15i5Qi3SMPtOChUYil0Majkt7gC2XKu5Kg81iJvpGtaoRFywNx7PVL1azC9QmHdRmzAZscauFWQC50aQxUMccwLd5TarMM0YlKoLlBj6gZoiFAqO3GzRdyjUpYTBAmYWrUe3vhdZ6zMKlSoLiKmFVAobgWJTtASwAm0TFwtgjkagyjlnCA4QQ1GUWApxBwlbhVnAw18QMCpoI7hF43Nof0VqIf6zEFrtA6Ic+EF07TNgEuNbGpfOIKI4lSUtF9Y+ieCNWQEVFXWbXE35QQxrpAVcOpcoLslK90sq2b1L2BzKril+YBqFZuCK4NzOjBGi7jvXSGYMS2OlBGyEZXKWEqJcNSj4eGfzpDqfcuu2Xs8S9rEyaPMar1McP5lUolS6mL3KjBLsbeIwXHU0OkR0QC3cW16jYxVoI1b5m2DczAKx8zmDDnUXpFg7/KlLIm0FwxyalhYwbYKgMkWI5ZVEzMAy6yylQQ4ZcozaPSBuKiXb1lsIKIP0c1FeP9qmMwQwgjtAQ9oQT3hFwLYlUvLUS4yzBUpSuSJlxgQXCoh3e8QbhtO0NkI55IGszGTM8QsHbMqo2iLyrvNRFEIBuEJzpKWxitEGITUVG5W88zcIDCTTrOzEuTKIMBiNd7TCYMQLR6RCLB0mfWi9IEVoBNIYv5yIRXGRCNJQdpmAMEDFOahFBWWmJCmK+yZDK54EpVPMaZIYG4DUduCI5hgIlUiZ1KCBo3zD6oD8T0gUwYo6kLAgU1BajRX4F1cZSBmoARqaLhntNY2OWbQzASEsZEbrDWf9EqLJOv8ABEFEC52XBZrOJ+/Ey46S7jiBuS0alDnmABmCQqgXCrMSFYI0UttEXN6G1iUBUVF8x1biGIbuLqYKME4uNYUhdRrLNP2ipVajpEwu5ebiOHrMk7QKLiFRDiCW6mqSxTGJdoCABAhl1MjcdFIBLGBJq3cpHWBVXKbuGxvrUWqMcwDpHaDFVLdQcLySwjZz5iqKpiBkuBBDlg0I5JXSLmJRe+FesWDRL6xgTulGOoadIJGVzJGPMYMpRmUsKvguGTEM6hqj0mxCP3hRzD8QZ3+j6wv7LpNEczb6QqfE1OrFdOJY18TZQozSdScHE2IV6iNSsDOUysxCEWrMAaiXuXB7wOfdnCOrS6Oz1xHmcYlSkZhEvNzFGrMmKox23LmCCCoFbLhFhbDGSmZqMYvNRDuCvVMVLA+aohDcplcsKhWWu2WJqPDCEL3tKrpxKiuUo4uBlzDO4ekqCm4AFnMapiU8oYvFRYVk3tzwxCmELdxlLcNazEaIGMkNE8kTcUZRYV4KgHVy2LKlesYGWDaVmbpC3nUbG8VM2eELvJUHPE2Bg6P0dWFYu/oQLJZuIFESuMRpTvOp0lq/+KgOYCoBlr38O6Z7QU3LxKGWPuFI68ZUGPMW3cw4JYzFMePpUBX1MM2oD4ktvn5EvEDlMWJcWzcGyaCoeVSkNRwcIYTaYJXtEu7Y3UQzCGJk4+EVYZkRGkjw3cWMFESsS1i5ZbWehAf4E2vwS/Nn1HmbPEW/4INh6IO4TyS41+MuMv1FmT1CLb1LwfUFdvUaZE+pwR9QGrHPaWSz1KV49QuqlPJ6ITevEVdg8kAKWOVA+ZNqbODEFNnaA7gUsR6hCSLtcNxIEaQ58o6ufhGm7mABzfojEiv+lT9yYZSKUolph1jnO9QUGouiXllvSYD40pRKcuo4YlKZJ4olSnWWB1+IBTB4iU8RchcWqkfU40kc3qPM8QeHCOsGXS2YNWoAwvUWUtlTDgivikky+FR9BQlSgAFDGu0WGLea5/UGwMd64ru5fm0CbkWZgjLuUbbDCO79y8BcZBu4wxUtTz8Cnb4Kgcv3QmfgjHogfB4h/AYHY+oU4JOfXEk0pjV+GDgaCSj/ACQDmdBidvUaKA3FEqctMCcoFTZFW2EK7JZDqRgEWXCnrFU4nmjZpiGo0Qnid3LnmPFbNVIYVMKtKP6JhMS1dDtG6PqCNUv1L+IJq0AbtyzV1FChxHKWuERvB80+p1iDTC9QNZ+oWb+oIZcWwUKGom6kR2pTJnFEAkcB94bYQUpRAILb3Uojb44sqKlYEVNThuOyq5tMyq0O0lGwnZzl1cGaI5UA28GFOAhaEDC5ipo/BNeCWh7mORcvFlwBZGtqnuVXRHmAxg9yvQxul9xWvzSkr7p2PuJwfcTphsASVtbj0FeZk4ywhHH74/oTHn5xX/eWNJWv98H/AN4/9MUy/ceqfuYdvcVy9znOP5wRlshyKncibGZrnRYqtweqZMwU1KOZvKmmXYHNwe5E1hhojmIuBlOVQBX+hGmYslWSBXr6IagZQ3RHLkwtYlpGBksGw5qlpxMGyAuiVFU9xrsCJchGkxOEkvpKgWWmgMWbqFCTIDcsaEYc+0TuHGoEDACt5Q4lYJdgSC4e4FwCVVVfuWtfcJqRj/CXDMrtEFDrxMpe4wzuLtXIYobBIZGaXaPSL5jiRbv2RfDJ+BJkLbhTasx1hTkQVaJnxL9uAZYPSZ3w5YMtsY1VnOvSNFS0RTiqOEROiUlG05ELlL8JEDALA0xDEpOINjcCpcDwlGoELhTDPx/8pnpieMctEAOUCx4QQRXepkb5lJ5iQyDHhC5oNoHshy2lBK/Ray0zFvsQGj3FFU9xgpPcK+w+5aHV1ht+iUFNxJfP3ApsPuXMjZLOr9xsZcyjGSax+oosziP5hnbODc24VtmyikFmWLie7lla3N2a8xWzXeO5/KPg/KYbbUbhp8UQS0Q2tzgENI39xLItQXWZbFd3ctcIjmNcJACERr8S+kUZFynR+IXNRrZTA1qBXT8S62iiAUxM7BFOIUFRKDAcxaRcesyw0cxxy7iNFLI6blDkn9LlD1jndwsFM12zux3Zi0VlQgOaiajfpA8Qp0gLZOYqA7sqJHiFuScKoVaZTombxKKgmWXGCUgaqpXohJgjfFREreI7xKrJW+n6LUSdagfUvYzAMJbNW3mYpUy6MxcO0MG4Bcs4neqVC4wC4XMp7h041aYMziMCVOQESOsQe0zsxL1AthxEhcAvxCv0LDBjcquWFYUgBZXiBXhVm4pV35jShCq4MwU4T7hKDmIWcwTaUKuAqYZa4pXmAV3K0oHvCG6xCOKIwsE7zGQb6RA7hWFl0XxDC8VBKGoNYlpVltoytrywkngAIYIBFIKk1O8EuGZ8/BUGbS7UUbI1NxKSlG+ruMJmORGKqF5zUNy0tgNXcyYY0NsFqLcBYNDljndss7RtbuWMB9yztmA2QCrucRmrlgxBcubN1MHWIpmS1BX6EFU8KvHD+3LglBo/OJksEhdRhQOVzUuEqcworMRKW4IMxDphV3UVdREYlIOpVD4FIUBUsGEwabljL4qNTOYEENKM57Fx3jwFUeNQURMKqLaiMlpXm5ZRg0Nywnm5c5lmEwHcZq2LdLEe0QUyqGaRmpFRb7OJfIxhYQSg13jVHHZibmkyURWOY5cQUGV9pQxgtvtGYaTp+YniNMxK5+HnBKizHLGUZlG9/EkLIrA7QBtGspiNVibIFd5VKhvUqN0i2MozCOVzZYywYl44uHOUrM34mD1mTM8TEJ9YMMYDH+iWNiF/5QTKVcxNXHYjQoZmZDUR2rhwdMEaiR9iIO4MyjmMDNzMl5ZArcpXEqVnEWIT2GXCO8XrEprW5V2M84wcU4mZdRgrkctuesCCwnzLKS2yKJ5hUETJxMsIwIgy6lQSt2OovI0lubxDa7gDJ8Jc2HeK7xyo25tplxnMs5VALl1NVdBQQ6Q7ocTb5Y9Jv8KxfcGbfAYi5DFmafGsFNVC9osQW6mSNHeYzq5ltyqtiNzEhuNOszH4Bd1mOsBLesqh2h8AqZlwG5syn6M6OtP9Kg0uO/EIrrD6JYXeaJz9xW24BYgmsyx4hXEXNQUjLLgxgZ4RR2ksKdI+TCgqEYpFYrMtMRy41DrKJHRylaqm6wEZBprhAVlLcKMNkmN3m5YUZg4EduCmtTeaJXDHiEmxdMe9sbvKTvEhLYgRuLqNjcwblNRboKVJBRdlyt+sZWOIbPLNx+AkWLJ6THsixNEEm4sLMxYHiVUYRSyuqeUofuLI9ZhOnwLuPAiKpdErkZnj4DWJlMIN6mk60ZLm+f0dWNgTn+KNC9RJiDDtVCU7TEH4GT7hhYBTMoIFx5whsmYEFF4mEHjcxFwaOJg22IAG4wTaUgqAuzMAgcJGCYhVwDuDnxFycpxAyJ4hdCIJLDq8R0dolOGFVzQTW2GKOTUCtwlYlWZk1A0zAxEQVuO5Ttg3ubypYp7RkaltXFe5ZSCB7kY3AU/aEM4lk6Q7N2zgx0OrDKzHZZqgzGowEWN/BaqVJUjPEdisbmfhcd/EINB8HQlZWHwbTSCgwYuJisxIg7gCxLtbm05Zy/RzZ2K1/wAJqHF5mcZoqpBSE1rl+8TfHMY5ZXTEVe7lUy0QppnVc7aHFvMMqczEGcaFQpdxE22SnEQbgcVzGoEcEBTTCpHENF7e0o/EMMXWZosBqE/gEHaAKq76wE9ZkzmO4m5SlCV6EwSOwRdS0wJmZItlQ4wSylupdVc0q8zlEyGUd3GrJHiqWwSU2jubfbGDvCK7yx1eIaAxlgmqmiOiCtsjmGIV1UMWBDtGCsx4r2wCDd4lEI1LzXwfitEzanITBFljuoYKi2kaIB1KQnKLlMLrLNiJWVQvwVOpd0mr+i2NUQ5/wR34pj21LzuMAjtUXEFZUslRXq4nWKQjzBF3xKF3CdDES8MY2xGx5ju6GpUqjUpREUTMGTsJnWItVXAJwYD3xXsAPVlMy2BW+qKjfdVxazljaGC13i8UWx1jzbzULNrNwURqC8IkWfQjRjUstf1BmxQ2REMFivgdUa61NIktYiXC2I9szkrSlY1Kdypb0RtucJd1iYjuQ53eVqBorUzZmDGyVm4FmBmURU2Ep+L442h2hgS7Phz8XcLYxS4gqFFgWKsMq0Y15RNxkQTiFENjR7MoQXYgtxwwXUDm/RLOwprd9R20KpjiOFy2CGqEhZvrHycQHSMtVqXhnzGu38xzxdLcTpICNMPi2wT6y37QmpStXmWjEUmYfENcS4LOMy3Ovh65glgtSgLxEQCnMweWlsEGWygsDJqCqU4jSVRXMtU7WACIPiDUzcYWJUsr3mDiWIrIoDDe5U6QHYi4Zh2hbXiYYqBZUBjUaxUqfBLUaQSy4rJNbtCA7sOCaJylrZZVME6zHWXvmbkS5rNRIGCtHWJhrMN1HcJe8Qcd5pO2J1qZYMI+EC3BH6MH0ZatTqEtMKExT/wQ/wDBNn8UK6PRBMfim29UNIqiNzr/AESmObt+yUXQKOcQSLxRiIJqYLqzVZxLLuinMrJiIw44pIniAbi8o6Gk5bmal8St5mBAMJsvpDYcKjC+tyx6jyjUaGP4ZlCdkHJ1gW3dtwEFJylshEZKVUs+zautRLMuCVuWxwYV2SMpWyShfONBlcTd8ytMVmJ5qKcQBqAsO74g7KgHKQDzCUIAMOAgtXRRKjgJleIbJYNhJBpS/f4Jdr1Q/jECZZSqKO+fwjNAPqF7UR3EjWVRwuiMKRJQpU7xGRwfOI1eUsefmYZvH2uw5USnKZkRLgwLaYVhO6MBGgvvMdMgFQ1f7INoQrpF2h9TjYR4iDCh4YGOYKKfomjhguh6mI4h8mISriODti23mAbGCpLKQCGoC7IrcURcTmVdUTlEsVEYRtEukyMYmYVOZlm2YnNMAtWYrHwUjxAhQUZk7s2EtlahoVAXGOYbcmplicNQsrL7pBYipqtxzZlikcUL6NTkW/U5mEDYaYKyCFDm+YxjBDUJ+JwB9ShnLxKWj8IJlX4lQSodTKOrhDpMgRfiFIO76QnENsXLLSFQBHaTUUqIjS7y5dDo6waEPNSg/YlXSe04w+ob69JgVVKz/HLFo/U2gr4lGpCNy/8ALDKH1iT/AIILRN1Jyh+50L3GjT3MGn8xd/7idJ7h9gfMOZPcUNxn09xRhhXlT7iGrfuIbTFNKqXtvcKufc8vuK0vuPOe4ssv3PJ7lvLMm4yO4lv/AEI8yFXizZ6hcWiqUwCC4ilvcVDUauBCxGNVyhUYm+iOGC2OM2McOX5tLgJl9Zkp9O4Ur0lzEIDJlyBS4qEhDF30xM4GofImYKlYYhS0EMGpqVDUWWa8y7w9w2K1KWsbyFj1usRKbOtSylxKmmipcoCU5ofDBNhcRyEpGSPMpKjUeKV8kC3SKcTBgQZoPEBlqZ6AMCb+Gb7lTDCCgoimqvEaNpENoeInyRTjSYTJOaYOUsCf3Iu7g7bAaKvEt4PuPH7JZuRtOWdrCvYg7FA6mKcsv1fcvd5g+bjY4YgVzMU7sK5b4ismUtExV8EqUE0i+0XGIUcQW6gmXl1VGuc/olZKUmX/ABMbv6m4KgvCD9JSmZSO8rM8S+qNyngiHRNNhhutg/Qy/SBnJO4S5JSQCq6gVRNWhDSDvRQpBWKhVHvUtWinNwvrthAyJjBP3DeXuVNi9y6be5fQW/McDf6lrhYZrbF24VOYVUNSmL+YIz/mNUmpv3BhWYjlmLbLM2y/eLYtiWLZS25inLBTtinLBWLWIrLVeZTV3USgW1ArmWTcAHDKVhBAVvpKdBrmINWF7MwZacy3KmIFz8A3lMMyjHQWbIrSTWI4BLZuFLXKVzcHrA7x3UA9JQNG5Thj4gY1Ab1FXJAQNwDA6zuEsNWRBiMRmMSuEdwCowL/AEQ9weFWf/hJjs9wJvL9wU0wxhgDNQfeIhi8E5gvEAawREqsy37TBCzdseslJtmkrGKyxOiVm24cU4hUN4j6dxFyxJoiBeUzCgJk/wATMxKGEIhWBDBxErRBXmV6RSV2QvbwlektqCeyIJj4GF3MR7MsMOYFjXmvjGpxLOJQysZC1K0ZtViVMwaqkbWX2hMnqY8MMDLF4sQCBzeH3LOuGyiRcRUMagpSxrEvVqilsWWZaYIYvMyanSJMKXBq+WO1gooszoqK7TDB3cWMoRVXcM7YLfERbgr3EmIkzuW3G7mUabhYIrdQIJNnSO/0SrItrreopgTSwqczGHtMw9olt8yjk4lSO8SirlMLMslVLmpbdVBkBU3iNFuKhPTKdU46PEs6Q+I1sq+kKJXK4bTSYEYaj7MTAkFcX6lOMniWxv1DEc+oHo+oVUXqbYfUaMWiWQmYVnaW+iL1KI0cMzZZzKTcMIE5lGmCOWLHET1lOscWmdRcUUysw5s5hFyhmAMMyhWkWmF4laIYcrgiBE7GoNw3lCxByFSHaBmsqTY8kqoqgLi6jiOD8Ja2RbcJ2d/GXrHEV1j0+KakTLQWNyW3zOdTUlUQYxBWcauTPiWSphh3DeZSLBFHjNqlRzJVIuVRG4ZP0cWkrEmr1KhxOxC2rZwXMwBh5BzExdIrdOYZYcS7iV4LrtGl4ZgALXMAb0aYPMvLJ40eYIYgLoRpdA5jTQZlAnFkcMHA1N9CrfiAsBMDUh8cYAIbjNR6zqxL7cFAkMqss4AlOgXLVVlOokhyOkKgSvtXOigkbRysHuJbGqLHLHRc2BNgxjUaLcS3WOO5XboHMUVduIIdIVgALiKOssCx1PeDr1NVKUAekYJzcSVyMh1i42L/AMsuCDkfxDAMhmpaQtVu8JKtfQASS8Eot4my8wnAj1QVj8RrhLkVSJKxFxOJHUpUZb0IWbzBrCUo5QZxBPgk7SyvjplUvgD9GlpXl6j1KV5RqCBWaqCz5j1vpKbd5l4JQy6wAXuUoXuKqarPmA6nAVx5aTC35OkqRhVi15Yw2l0KhfGCGLDBJkA4gmmFRkztp3eEBARFUFdYqazM5iO57TydibmfuzIxbMs97hUSjKwtZYYM6dzEpe0ekStMTQO50Cc20RyZbTFUflF7GWEmwWAacypridITARo7xUc32gqKIUanS1GUEY36ROmWg9IW0lQuswGKNK3CAS7IvAr/ADQAZecTziICALWYp6ysGUAoXuS+q1KADrM0Nm5sO43HiYlOWFSo1mcTaapbdRVGLj8I4GJwfBikloTkimkHDvNQwR2zdgr9ErSG24b/AFEQ0XiOGolCYzL2uJXTrNMAXB7lZpCEU23xmIARmvKdiGtEEtRro1TUs+MxuuVhGVxLsQsctcsy1DjleviVGDgzBG4uKnSo7A4jFGV+ipwtwgcpRWYFS1tMQgLghRuYtxKtJq1qbXiMcS4tJY2yQbaalXDSzVszGnTTLVmKr0iuZSM0uWNMpzuNiqqAWq6iquV6cRNjLSCVEDEoJ3ShJUi4B3lBtLlVGobRyy0tVscLpGcOUmWOXBZY85wyuYoUF8EqVNT2I9o2rO3DxxBU/VtPJGwUQZIADVROsTfzLqOGUxELXmKlMdkdVO0CVqG4A5RNSjUGbRjBCZIRajf6QS0rreT9uXDMquZgsl6rvGoXEw1qNU4hDNBBstqakF3VFs14hAEBQwqMIRQy1NKzM6qLgAA45iA3eT+UtATQuB1lgd6QoXDbHMFOiZ5Y0uMNQkB8u0uqFAL5nUVUUYiU4t1EqlQxRuVLQdYg4jDRqWKdQhZhmPBBWt2peIqCLJQsxQJjiO2TQJGbw2wkPAyoC1aqA5W9Q0aBBvUZzBVpWHSYMIORgtBsjacsxAJoi5+Ua8K+AkeYrBlzALJwkIAsZNPcW6MtU4guYv1GdtFkQLdpXAo2qluHkyxdpjnEKwjpowlw05i4mLBxFmOqg3mDFTEiKxpmDFx1Lbhok27i0gLJTTpCq4oGEG8wQ3DNprfotZAZHZ9oMn7IlJAUL1EXT13KjYrtEYZnaZJg7LnuZrBThYGQWsEZYNGoboEWUq4OLZA4ETDWJvWe4TLh3SFof2jdI6sn3Ali1qH3PqNViDUHFrzvxAH+CATZ+pUNsdoWtb7RYQHRW4MSAdShR6ord/Uqy36nLP1G9sB3eoTl6jRt6iOLM9I853GQvGSuw+QuLovpAvl9QHsmBasvealczRyxcDtlqba+iIbUTtLGq6xCnLQ9JasV4gB29TZV6io29QUVb1FGbepcEWYoyfqWm+OktQOtR+jXiYlWvEEFA7S5TPaX6zFal3LieCKVOoUjhuQEr0qZConSw6ZiFljuR5qBEiojjI56MJX7TZ2HWdcbCXDA29R9b1L6n1Ebt6mnL1LJt9QeZ6gPP1Mu3qK+XqDpb1HDb1BzPUvFt9Q52+oM1vUVzL6i3u3qPmfUZNvUa1hLAb+IGi/UHU9SmBXt/oVsBiQtlTw0wLwwL4D6gOvZ/iAtnv8A8T/o/wCIp/P/AIlKB2f8Q+lfeFyfwGKSi6AhRt9CEb9aFin1oVK/GgCmAFKEgydPitg1KJEUrB6ysKkBADUwGmw2TwZtcgyiFUjZLGMbzISAFB/4MOJMlwFt/EKK7mYZixT8ctsp3FOUtskrW7v+IEV+f/E/6v8AiK79n+J/3P8AEDYId5/xMltnq/wQHIHd/wAR3f8Af+J2JkP+IShB7/4im/Zj/o4A178f9vH/AEcK792BqPbgug/eKMLtK8C9fi4D0Hxcai/EYvvJIHQwNsjfHvJFzsgqPDSQFKqXAmW6WIDcpm6H8R/1/wDE/wC7/if9b/EA/l/xP+r/AIn/AF/8QLXv/wAT/v8A+J/1/wDE/wC//if9/wDxP+j/AIn/AEf8QIx7f8QH+X/EX/l/xA/5f8T/AKv+J/1f8QP+X/EV/l/xAdh5/wAQDXu/xK/5P8QCMdXBKVgrb/8A0B//2Q==;clipPath=inset(29.84% 30% 12.14% 23.67%);" vertex="1" parent="WIyWlLk6GJQsqaUBKTNV-1">
          <mxGeometry x="-24" y="44.67" width="88.72" height="90" as="geometry" />
        </mxCell>
        <mxCell id="nyHb6rSoEs663hCMp0pN-33" value="" style="sketch=0;html=1;aspect=fixed;strokeColor=none;shadow=0;fillColor=#3B8DF1;verticalAlign=top;labelPosition=center;verticalLabelPosition=bottom;shape=mxgraph.gcp2.repository" vertex="1" parent="WIyWlLk6GJQsqaUBKTNV-1">
          <mxGeometry x="163" y="68" width="25" height="41.67" as="geometry" />
        </mxCell>
        <mxCell id="nyHb6rSoEs663hCMp0pN-52" value="" style="group" vertex="1" connectable="0" parent="WIyWlLk6GJQsqaUBKTNV-1">
          <mxGeometry x="182" y="190" width="170" height="260" as="geometry" />
        </mxCell>
        <mxCell id="nyHb6rSoEs663hCMp0pN-50" value="&lt;div&gt;apps&lt;/div&gt;&lt;div&gt;&lt;br&gt;&lt;/div&gt;&lt;div&gt;&lt;br&gt;&lt;/div&gt;&lt;div&gt;&lt;br&gt;&lt;/div&gt;&lt;div&gt;&lt;br&gt;&lt;/div&gt;&lt;div&gt;&lt;br&gt;&lt;/div&gt;&lt;div&gt;&lt;br&gt;&lt;/div&gt;&lt;div&gt;&lt;br&gt;&lt;/div&gt;&lt;div&gt;&lt;br&gt;&lt;/div&gt;&lt;div&gt;&lt;br&gt;&lt;/div&gt;&lt;div&gt;&lt;br&gt;&lt;/div&gt;&lt;div&gt;&lt;br&gt;&lt;/div&gt;&lt;div&gt;&lt;br&gt;&lt;/div&gt;&lt;div&gt;&lt;br&gt;&lt;/div&gt;&lt;div&gt;&lt;br&gt;&lt;/div&gt;&lt;div&gt;&lt;br&gt;&lt;/div&gt;&lt;div&gt;&lt;br&gt;&lt;/div&gt;&lt;div&gt;&lt;br&gt;&lt;/div&gt;&lt;div&gt;&lt;br&gt;&lt;/div&gt;" style="rounded=0;whiteSpace=wrap;html=1;" vertex="1" parent="nyHb6rSoEs663hCMp0pN-52">
          <mxGeometry x="-10" y="-20" width="180" height="280" as="geometry" />
        </mxCell>
        <mxCell id="nyHb6rSoEs663hCMp0pN-37" value="Flutter_Head-Unit" style="rounded=1;whiteSpace=wrap;html=1;container=0;" vertex="1" parent="nyHb6rSoEs663hCMp0pN-52">
          <mxGeometry x="30" y="151.67000000000002" width="130" height="40" as="geometry" />
        </mxCell>
        <mxCell id="nyHb6rSoEs663hCMp0pN-38" value="" style="sketch=0;html=1;aspect=fixed;strokeColor=none;shadow=0;fillColor=#3B8DF1;verticalAlign=top;labelPosition=center;verticalLabelPosition=bottom;shape=mxgraph.gcp2.repository;container=0;" vertex="1" parent="nyHb6rSoEs663hCMp0pN-52">
          <mxGeometry y="150.00000000000006" width="25" height="41.67" as="geometry" />
        </mxCell>
        <mxCell id="nyHb6rSoEs663hCMp0pN-39" value="Flutter_Dashboard" style="rounded=1;whiteSpace=wrap;html=1;container=0;" vertex="1" parent="nyHb6rSoEs663hCMp0pN-52">
          <mxGeometry x="30" y="201.67000000000002" width="130" height="40" as="geometry" />
        </mxCell>
        <mxCell id="nyHb6rSoEs663hCMp0pN-40" value="" style="sketch=0;html=1;aspect=fixed;strokeColor=none;shadow=0;fillColor=#3B8DF1;verticalAlign=top;labelPosition=center;verticalLabelPosition=bottom;shape=mxgraph.gcp2.repository;container=0;" vertex="1" parent="nyHb6rSoEs663hCMp0pN-52">
          <mxGeometry y="200.00000000000006" width="25" height="41.67" as="geometry" />
        </mxCell>
        <mxCell id="nyHb6rSoEs663hCMp0pN-7" value="car_info" style="rounded=1;whiteSpace=wrap;html=1;container=0;" vertex="1" parent="nyHb6rSoEs663hCMp0pN-52">
          <mxGeometry x="30" y="1.670000000000016" width="130" height="40" as="geometry" />
        </mxCell>
        <mxCell id="nyHb6rSoEs663hCMp0pN-8" value="car_control" style="rounded=1;whiteSpace=wrap;html=1;container=0;" vertex="1" parent="nyHb6rSoEs663hCMp0pN-52">
          <mxGeometry x="30" y="51.670000000000016" width="130" height="40" as="geometry" />
        </mxCell>
        <mxCell id="nyHb6rSoEs663hCMp0pN-9" value="can_receiver" style="rounded=1;whiteSpace=wrap;html=1;container=0;" vertex="1" parent="nyHb6rSoEs663hCMp0pN-52">
          <mxGeometry x="30" y="101.67000000000002" width="130" height="40" as="geometry" />
        </mxCell>
        <mxCell id="nyHb6rSoEs663hCMp0pN-14" value="" style="sketch=0;html=1;aspect=fixed;strokeColor=none;shadow=0;fillColor=#3B8DF1;verticalAlign=top;labelPosition=center;verticalLabelPosition=bottom;shape=mxgraph.gcp2.repository;container=0;" vertex="1" parent="nyHb6rSoEs663hCMp0pN-52">
          <mxGeometry width="25" height="41.67" as="geometry" />
        </mxCell>
        <mxCell id="nyHb6rSoEs663hCMp0pN-18" value="" style="sketch=0;html=1;aspect=fixed;strokeColor=none;shadow=0;fillColor=#3B8DF1;verticalAlign=top;labelPosition=center;verticalLabelPosition=bottom;shape=mxgraph.gcp2.repository;container=0;" vertex="1" parent="nyHb6rSoEs663hCMp0pN-52">
          <mxGeometry y="50.00000000000006" width="25" height="41.67" as="geometry" />
        </mxCell>
        <mxCell id="nyHb6rSoEs663hCMp0pN-19" value="" style="sketch=0;html=1;aspect=fixed;strokeColor=none;shadow=0;fillColor=#3B8DF1;verticalAlign=top;labelPosition=center;verticalLabelPosition=bottom;shape=mxgraph.gcp2.repository;container=0;" vertex="1" parent="nyHb6rSoEs663hCMp0pN-52">
          <mxGeometry y="100.00000000000006" width="25" height="41.67" as="geometry" />
        </mxCell>
        <mxCell id="nyHb6rSoEs663hCMp0pN-54" value="" style="group" vertex="1" connectable="0" parent="WIyWlLk6GJQsqaUBKTNV-1">
          <mxGeometry x="172" y="470" width="180" height="90" as="geometry" />
        </mxCell>
        <mxCell id="nyHb6rSoEs663hCMp0pN-53" value="&lt;div&gt;sensors&lt;/div&gt;&lt;div&gt;&lt;br&gt;&lt;/div&gt;&lt;div&gt;&lt;br&gt;&lt;/div&gt;&lt;div&gt;&lt;br&gt;&lt;/div&gt;&lt;div&gt;&lt;br&gt;&lt;/div&gt;&lt;div&gt;&lt;br&gt;&lt;/div&gt;" style="rounded=0;whiteSpace=wrap;html=1;" vertex="1" parent="nyHb6rSoEs663hCMp0pN-54">
          <mxGeometry width="180" height="90" as="geometry" />
        </mxCell>
        <mxCell id="nyHb6rSoEs663hCMp0pN-20" value="rpm_sensor" style="rounded=1;whiteSpace=wrap;html=1;" vertex="1" parent="nyHb6rSoEs663hCMp0pN-54">
          <mxGeometry x="37" y="17.23" width="130" height="36.67" as="geometry" />
        </mxCell>
        <mxCell id="nyHb6rSoEs663hCMp0pN-21" value="" style="sketch=0;html=1;aspect=fixed;strokeColor=none;shadow=0;fillColor=#3B8DF1;verticalAlign=top;labelPosition=center;verticalLabelPosition=bottom;shape=mxgraph.gcp2.repository" vertex="1" parent="nyHb6rSoEs663hCMp0pN-54">
          <mxGeometry x="5" y="12.226666666666686" width="25" height="41.67" as="geometry" />
        </mxCell>
        <mxCell id="nyHb6rSoEs663hCMp0pN-59" style="edgeStyle=orthogonalEdgeStyle;rounded=0;orthogonalLoop=1;jettySize=auto;html=1;entryX=0.5;entryY=1;entryDx=0;entryDy=0;dashed=1;dashPattern=8 8;fillColor=#ffe6cc;strokeColor=#d79b00;" edge="1" parent="WIyWlLk6GJQsqaUBKTNV-1" target="nyHb6rSoEs663hCMp0pN-6">
          <mxGeometry relative="1" as="geometry">
            <mxPoint x="262" y="170" as="sourcePoint" />
            <Array as="points">
              <mxPoint x="262" y="150" />
              <mxPoint x="263" y="150" />
            </Array>
          </mxGeometry>
        </mxCell>
        <mxCell id="nyHb6rSoEs663hCMp0pN-68" value="submodule" style="edgeLabel;html=1;align=center;verticalAlign=middle;resizable=0;points=[];" vertex="1" connectable="0" parent="nyHb6rSoEs663hCMp0pN-59">
          <mxGeometry x="-0.3993" y="-2" relative="1" as="geometry">
            <mxPoint as="offset" />
          </mxGeometry>
        </mxCell>
        <mxCell id="nyHb6rSoEs663hCMp0pN-60" style="edgeStyle=orthogonalEdgeStyle;rounded=0;orthogonalLoop=1;jettySize=auto;html=1;entryX=0.25;entryY=1;entryDx=0;entryDy=0;dashed=1;exitX=1;exitY=0.5;exitDx=0;exitDy=0;" edge="1" parent="WIyWlLk6GJQsqaUBKTNV-1" source="nyHb6rSoEs663hCMp0pN-50" target="nyHb6rSoEs663hCMp0pN-31">
          <mxGeometry relative="1" as="geometry">
            <mxPoint x="290" y="170" as="sourcePoint" />
            <mxPoint x="305" y="152" as="targetPoint" />
            <Array as="points">
              <mxPoint x="484" y="310" />
            </Array>
          </mxGeometry>
        </mxCell>
        <mxCell id="nyHb6rSoEs663hCMp0pN-67" value="&lt;div&gt;pull&amp;nbsp;&lt;/div&gt;&lt;div&gt;source code&lt;/div&gt;&lt;div&gt;for recipes&lt;br&gt; &lt;/div&gt;" style="edgeLabel;html=1;align=center;verticalAlign=middle;resizable=0;points=[];" vertex="1" connectable="0" parent="nyHb6rSoEs663hCMp0pN-60">
          <mxGeometry x="0.3147" y="-2" relative="1" as="geometry">
            <mxPoint x="-52" y="93" as="offset" />
          </mxGeometry>
        </mxCell>
        <mxCell id="nyHb6rSoEs663hCMp0pN-65" style="edgeStyle=orthogonalEdgeStyle;rounded=0;orthogonalLoop=1;jettySize=auto;html=1;entryX=0.5;entryY=1;entryDx=0;entryDy=0;dashed=1;exitX=0.5;exitY=0;exitDx=0;exitDy=0;fillColor=#ffe6cc;strokeColor=#d79b00;dashPattern=12 12;" edge="1" parent="WIyWlLk6GJQsqaUBKTNV-1" source="nyHb6rSoEs663hCMp0pN-53" target="nyHb6rSoEs663hCMp0pN-6">
          <mxGeometry relative="1" as="geometry">
            <mxPoint x="272" y="180" as="sourcePoint" />
            <mxPoint x="273" y="120" as="targetPoint" />
            <Array as="points">
              <mxPoint x="262" y="460" />
              <mxPoint x="142" y="460" />
              <mxPoint x="142" y="130" />
              <mxPoint x="263" y="130" />
            </Array>
          </mxGeometry>
        </mxCell>
        <mxCell id="nyHb6rSoEs663hCMp0pN-66" value="submodule" style="edgeLabel;html=1;align=center;verticalAlign=middle;resizable=0;points=[];" vertex="1" connectable="0" parent="nyHb6rSoEs663hCMp0pN-65">
          <mxGeometry x="0.6487" y="-3" relative="1" as="geometry">
            <mxPoint x="17" y="-4" as="offset" />
          </mxGeometry>
        </mxCell>
        <mxCell id="nyHb6rSoEs663hCMp0pN-70" value="" style="sketch=0;outlineConnect=0;fontColor=#232F3E;gradientColor=none;fillColor=#7AA116;strokeColor=none;dashed=0;verticalLabelPosition=bottom;verticalAlign=top;align=center;html=1;fontSize=12;fontStyle=0;aspect=fixed;pointerEvents=1;shape=mxgraph.aws4.car;" vertex="1" parent="WIyWlLk6GJQsqaUBKTNV-1">
          <mxGeometry x="842.92" y="335" width="78" height="78" as="geometry" />
        </mxCell>
        <mxCell id="nyHb6rSoEs663hCMp0pN-81" style="edgeStyle=orthogonalEdgeStyle;rounded=0;orthogonalLoop=1;jettySize=auto;html=1;dashed=1;" edge="1" parent="WIyWlLk6GJQsqaUBKTNV-1" source="nyHb6rSoEs663hCMp0pN-53" target="nyHb6rSoEs663hCMp0pN-41">
          <mxGeometry relative="1" as="geometry">
            <Array as="points">
              <mxPoint x="530" y="515" />
              <mxPoint x="530" y="304" />
            </Array>
          </mxGeometry>
        </mxCell>
        <mxCell id="nyHb6rSoEs663hCMp0pN-82" value="&lt;div&gt;pull&amp;nbsp;&lt;/div&gt;&lt;div&gt;source code &lt;/div&gt;" style="edgeLabel;html=1;align=center;verticalAlign=middle;resizable=0;points=[];" vertex="1" connectable="0" parent="nyHb6rSoEs663hCMp0pN-81">
          <mxGeometry x="-0.1076" y="-2" relative="1" as="geometry">
            <mxPoint x="-2" y="-77" as="offset" />
          </mxGeometry>
        </mxCell>
        <mxCell id="nyHb6rSoEs663hCMp0pN-88" style="edgeStyle=orthogonalEdgeStyle;rounded=0;orthogonalLoop=1;jettySize=auto;html=1;" edge="1" parent="WIyWlLk6GJQsqaUBKTNV-1" source="nyHb6rSoEs663hCMp0pN-41" target="nyHb6rSoEs663hCMp0pN-11">
          <mxGeometry relative="1" as="geometry">
            <mxPoint x="767" y="429" as="sourcePoint" />
            <mxPoint x="910" y="410" as="targetPoint" />
            <Array as="points">
              <mxPoint x="770" y="304" />
              <mxPoint x="770" y="213" />
            </Array>
          </mxGeometry>
        </mxCell>
        <mxCell id="nyHb6rSoEs663hCMp0pN-89" value="&lt;div&gt;flash&amp;nbsp;&lt;/div&gt;&lt;div&gt;image &lt;br&gt;&lt;/div&gt;" style="edgeLabel;html=1;align=center;verticalAlign=middle;resizable=0;points=[];" vertex="1" connectable="0" parent="nyHb6rSoEs663hCMp0pN-88">
          <mxGeometry x="0.0051" y="-3" relative="1" as="geometry">
            <mxPoint x="-3" y="3" as="offset" />
          </mxGeometry>
        </mxCell>
        <mxCell id="nyHb6rSoEs663hCMp0pN-91" style="edgeStyle=orthogonalEdgeStyle;rounded=0;orthogonalLoop=1;jettySize=auto;html=1;startArrow=classic;startFill=1;exitX=1;exitY=0.5;exitDx=0;exitDy=0;dashed=1;" edge="1" parent="WIyWlLk6GJQsqaUBKTNV-1" source="nyHb6rSoEs663hCMp0pN-31" target="nyHb6rSoEs663hCMp0pN-41">
          <mxGeometry relative="1" as="geometry">
            <mxPoint x="560" y="120" as="sourcePoint" />
            <mxPoint x="662" y="314" as="targetPoint" />
            <Array as="points">
              <mxPoint x="600" y="90" />
              <mxPoint x="600" y="304" />
            </Array>
          </mxGeometry>
        </mxCell>
        <mxCell id="nyHb6rSoEs663hCMp0pN-92" value="&lt;div&gt;push&amp;nbsp;&lt;/div&gt;&lt;div&gt;baked image&lt;br&gt;&lt;/div&gt;" style="edgeLabel;html=1;align=center;verticalAlign=middle;resizable=0;points=[];" vertex="1" connectable="0" parent="nyHb6rSoEs663hCMp0pN-91">
          <mxGeometry x="-0.0842" y="-1" relative="1" as="geometry">
            <mxPoint x="1" y="-43" as="offset" />
          </mxGeometry>
        </mxCell>
        <mxCell id="nyHb6rSoEs663hCMp0pN-100" value="" style="edgeStyle=orthogonalEdgeStyle;rounded=0;orthogonalLoop=1;jettySize=auto;html=1;entryX=1;entryY=0.5;entryDx=0;entryDy=0;dashed=1;fillColor=#ffe6cc;strokeColor=#d79b00;dashPattern=12 12;" edge="1" parent="WIyWlLk6GJQsqaUBKTNV-1" source="nyHb6rSoEs663hCMp0pN-31" target="nyHb6rSoEs663hCMp0pN-99">
          <mxGeometry relative="1" as="geometry">
            <mxPoint x="451" y="90" as="sourcePoint" />
            <mxPoint x="328" y="90" as="targetPoint" />
          </mxGeometry>
        </mxCell>
        <mxCell id="nyHb6rSoEs663hCMp0pN-99" value="" style="sketch=0;html=1;aspect=fixed;strokeColor=none;shadow=0;fillColor=#3B8DF1;verticalAlign=top;labelPosition=center;verticalLabelPosition=bottom;shape=mxgraph.gcp2.repository" vertex="1" parent="WIyWlLk6GJQsqaUBKTNV-1">
          <mxGeometry x="420" y="68" width="25" height="41.67" as="geometry" />
        </mxCell>
      </root>
    </mxGraphModel>
  </diagram>
</mxfile>
